{
.appVersion = "3127";
.formatVersion = 3;
DisplayStrings = (
"/uni11ABF"
);
axes = (
{
name = Weight;
tag = wght;
}
);
customParameters = (
{
name = vendorID;
value = GOOG;
},
{
name = panose;
value = (
2,
11,
5,
2,
4,
5,
4,
2,
2,
4
);
},
{
name = unicodeRanges;
value = (
0,
1,
2,
5,
6,
45,
77
);
},
{
name = codePageRanges;
value = (
"1252"
);
},
{
name = fsType;
value = (
);
}
);
date = "2022-04-04 11:53:41 +0000";
familyName = "Sans Canadian Aboriginal";
features = (
{
code = "script DFLT;
language dflt;
lookup SUB_0 {
	sub uni1513 by g727;
	sub uni1514 by g728;
	sub uni1515 by g729;
	sub uni1516 by g730;
	sub uni151D by g731;
	sub uni151E by g732;
	sub uni151F by g733;
	sub uni1520 by g734;
	sub uni1521 by g735;
	sub uni1522 by g736;
	sub uni1523 by g737;
	sub uni1524 by g738;
	sub uni1595 by g739;
	sub uni18C0 by g740;
	sub uni18C1 by g741;
	sub uni18C2 by g742;
} SUB_0;
script cans;
language dflt;
lookup SUB_0;
";
tag = salt;
}
);
fontMaster = (
{
axesValues = (
26
);
customParameters = (
{
name = typoAscender;
value = 1069;
},
{
name = typoDescender;
value = -293;
},
{
name = typoLineGap;
value = 0;
},
{
name = winAscent;
value = 1069;
},
{
name = winDescent;
value = 293;
},
{
name = hheaAscender;
value = 1069;
},
{
name = hheaDescender;
value = -293;
},
{
name = strikeoutPosition;
value = 289;
},
{
name = strikeoutSize;
value = 50;
}
);
guides = (
{
lockAngle = 1;
locked = 1;
pos = (230,357);
}
);
id = m01;
metricValues = (
{
over = 15;
pos = 1069;
},
{
over = 15;
pos = 714;
},
{
over = 15;
pos = 481;
},
{
over = -15;
},
{
over = -15;
pos = -293;
},
{
}
);
name = Thin;
userData = {
GSOffsetHorizontal = 5;
GSOffsetKeepCompatible = 1;
GSOffsetVertical = 5;
};
},
{
axesValues = (
193
);
customParameters = (
{
name = typoAscender;
value = 1069;
},
{
name = typoDescender;
value = -293;
},
{
name = typoLineGap;
value = 0;
},
{
name = winAscent;
value = 1069;
},
{
name = winDescent;
value = 293;
},
{
name = hheaAscender;
value = 1069;
},
{
name = hheaDescender;

glyphs = (
{
glyphname = idotless;
lastChange = "2022-04-04 12:28:08 +0000";
layers = (
{
background = {
shapes = (
{
closed = 1;
nodes = (
(121,528,l),
(95,528,l),
(95,0,l),
(121,0,l),
(121,0,l)
);
}
);
};
layerId = m01;
shapes = (
{
closed = 1;
nodes = (
(121,528,l),
(95,528,l),
(95,0,l),
(121,0,l),
(121,0,l)
);
}
);
width = 216;
},
{
background = {
shapes = (
{
closed = 1;
nodes = (
(258,553,l),
(67,553,l),
(67,0,l),
(258,0,l),
(258,0,l)
);
}
);
};
layerId = "A1461942-0433-4891-A171-8512F51D8C86";
shapes = (
{
closed = 1;
nodes = (
(258,553,l),
(67,553,l),
(67,0,l),
(258,0,l),
(258,0,l)
);
}
);
width = 325;
}
);
note = dotlessi;
unicode = 305;
},
{
color = 3;
glyphname = "acuteFinal-canadian";
lastChange = "2022-05-20 15:06:05 +0000";
layers = (
{
background = {
shapes = (
{
closed = 1;
nodes = (
(557,0,l),
(557,13,l),
(222,714,l),
(197,714,l),
(-138,13,l),
(-138,0,l)
);
},
{
closed = 1;
nodes = (
(214,695,l),
(206,695,l),
(528,14,l),
(528,25,l),
(-108,25,l),
(-108,14,l)
);
}
);
};
layerId = m01;
shapes = (
{
closed = 1;
nodes = (
(51,357,l),
(222,714,l),
(196,714,l),
(25,357,l)
);
}
);
width = 247;
},
{
background = {
shapes = (
{
closed = 1;
nodes = (
(341,714,l),
(219,714,l),
(25,357,l),
(147,357,l)
);
}
);
};
layerId = "A1461942-0433-4891-A171-8512F51D8C86";
shapes = (
{
closed = 1;
nodes = (
(154,357,l),
(348,714,l),
(219,714,l),
(25,357,l)
);
}
);
width = 373;
}
);
note = uni141F;
unicode = 5151;
},
{
color = 3;
glyphname = "graveFinal-canadian";
lastChange = "2022-05-20 15:05:53 +0000";
layers = (
{
background = {
shapes = (
{
closed = 1;
nodes = (
(49,714,l),
(21,714,l),
(197,352,l),
(225,352,l),
(225,352,l)
);
}
);
};
layerId = m01;
shapes = (
{
closed = 1;
nodes = (
(221,357,l),
(50,714,l),
(25,714,l),
(196,357,l)
);
}
);
width = 246;
},
{
background = {
shapes = (
{
closed = 1;
nodes = (
(137,714,l),
(19,714,l),
(229,317,l),
(347,317,l),
(347,317,l)
);
}
);
};
layerId = "A1461942-0433-4891-A171-8512F51D8C86";
shapes = (
{
closed = 1;
nodes = (
(341,357,l),
(147,714,l),
(25,714,l),
(219,357,l)
);
}
);
width = 366;
}
);
note = uni1420;
unicode = 5152;
},
{
color = 3;
glyphname = "ringBottomhalfFinal-canadian";
lastChange = "2022-05-10 15:48:17 +0000";
layers = (
{
background = {
shapes = (
{
closed = 1;
nodes = (
(273,393,o),
(307,455,o),
(307,572,cs),
(307,714,l),
(283,714,l),
(283,582,ls),
(283,462,o),
(252,413,o),
(163,413,cs),
(74,413,o),
(43,462,o),
(43,582,cs),
(43,714,l),
(19,714,l),
(19,572,ls),
(19,455,o),
(52,393,o),
(163,393,cs)
);
}
);
};
layerId = m01;
shapes = (
{
closed = 1;
nodes = (
(291,351,o),
(349,412,o),
(349,519,cs),
(349,714,l),
(325,714,l),
(325,518,ls),
(325,419,o),
(278,373,o),
(199,373,cs),
(121,373,o),
(73,421,o),
(73,517,cs),
(73,714,l),
(49,714,l),
(49,516,ls),
(49,412,o),
(109,351,o),
(199,351,cs)
);
}
);
width = 398;
},
{
background = {
shapes = (
{
closed = 1;
nodes = (
(316,355,o),
(366,392,o),
(387,459,cs),
(397,492,o),
(402,532,o),
(402,579,cs),
(402,714,l),
(283,714,l),
(283,541,ls),
(283,485,o),
(256,463,o),
(220,463,cs),
(185,463,o),
(158,485,o),
(158,541,cs),
(158,714,l),
(39,714,l),
(39,569,ls),
(39,418,o),
(100,355,o),
(220,355,cs)
);
}
);
};
layerId = "A1461942-0433-4891-A171-8512F51D8C86";
shapes = (
{
closed = 1;
nodes = (
(326,351,o),
(392,419,o),
(392,531,cs),
(392,714,l),
(276,714,l),
(276,530,ls),
(276,478,o),
(254,455,o),
(215,455,cs),
(177,455,o),
(155,479,o),
(155,530,cs),
(155,714,l),
(39,714,l),
(39,531,ls),
(39,417,o),
(106,351,o),
(216,351,cs)
);
}
);
width = 431;
}
);
note = uni1421;
unicode = 5153;
},
{
color = 3;
glyphname = "ringTophalfFinal-canadian";
lastChange = "2022-05-10 15:48:08 +0000";
layers = (
{
background = {
shapes = (
{
closed = 1;
nodes = (
(73,532,ls),
(73,652,o),
(103.667,701,o),
(193,701,cs),
(282.333,701,o),
(313,652,o),
(313,532,cs),
(313,400,l),
(337,400,l),
(337,542,ls),
(337,659.592,o),
(303.135,721,o),
(193,721,cs),
(82.333,721,o),
(49,659.333,o),
(49,542,cs),
(49,400,l),
(73,400,l),
(73,400,l)
);
}
);
};
layerId = m01;
shapes = (
{
closed = 1;
nodes = (
(73,357,l),
(73,553,ls),
(73,652,o),
(120,698,o),
(199,698,cs),
(277,698,o),
(325,650,o),
(325,554,cs),
(325,357,l),
(349,357,l),
(349,555,ls),
(349,659,o),
(289,720,o),
(199,720,cs),
(107,720,o),
(49,659,o),
(49,552,cs),
(49,357,l)
);
}
);
width = 398;
},
{
background = {
shapes = (
{
closed = 1;
nodes = (
(148,540,ls),
(148,596,o),
(175.333,618,o),
(210,618,cs),
(246,618,o),
(273,596,o),
(273,540,cs),
(273,367,l),
(392,367,l),
(392,502,ls),
(392,595.333,o),
(374.167,663,o),
(321.5,699,cs),
(295.167,717,o),
(258,726,o),
(210,726,cs),
(90,726,o),
(29,662.667,o),
(29,512,cs),
(29,367,l),
(148,367,l),
(148,367,l)
);
}
);
};
layerId = "A1461942-0433-4891-A171-8512F51D8C86";
shapes = (
{
closed = 1;
nodes = (
(155,357,l),
(155,541,ls),
(155,593,o),
(177,616,o),
(216,616,cs),
(254,616,o),
(276,592,o),
(276,541,cs),
(276,357,l),
(392,357,l),
(392,540,ls),
(392,654,o),
(325,720,o),
(215,720,cs),
(105,720,o),
(39,652,o),
(39,540,cs),
(39,357,l)
);
}
);
width = 431;
}
);
note = uni1422;
unicode = 5154;
},
{
color = 3;
glyphname = "ringRighthalfFinal-canadian";
lastChange = "2022-05-09 09:03:43 +0000";
layers = (
{
background = {
shapes = (
{
closed = 1;
nodes = (
(231,382,o),
(290,437,o),
(290,548,cs),
(290,659,o),
(231,714,o),
(111,714,cs),
(19,714,l),
(19,692,l),
(110,692,ls),
(227,692,o),
(266,639,o),
(266,548,cs),
(266,457,o),
(227,404,o),
(110,404,cs),
(19,404,l),
(19,382,l),
(111,382,l),
(111,382,l)
);
}
);
};
layerId = m01;
shapes = (
{
closed = 1;
nodes = (
(133,357,ls),
(240,357,o),
(304,427,o),
(304,536,cs),
(304,645,o),
(240,714,o),
(130,714,cs),
(49,714,l),
(49,692,l),
(130,692,ls),
(229,692,o),
(281,635,o),
(281,536,cs),
(281,437,o),
(229,379,o),
(130,379,cs),
(49,379,l),
(49,357,l)
);
}
);
width = 353;
},
{
background = {
shapes = (
{
closed = 1;
nodes = (
(263,317,o),
(339,379,o),
(339,518,cs),
(339,655,o),
(266,714,o),
(103,714,cs),
(9,714,l),
(9,606,l),
(110,606,ls),
(188,606,o),
(221,580,o),
(221,517,cs),
(221,450,o),
(185,425,o),
(94,425,cs),
(9,425,l),
(9,317,l),
(91,317,l),
(91,317,l)
);
}
);
};
layerId = "A1461942-0433-4891-A171-8512F51D8C86";
shapes = (
{
closed = 1;
nodes = (
(151,357,ls),
(270,357,o),
(339,425,o),
(339,536,cs),
(339,648,o),
(270,714,o),
(151,714,cs),
(39,714,l),
(39,611,l),
(143,611,ls),
(194,611,o),
(223,587,o),
(223,536,cs),
(223,486,o),
(194,460,o),
(143,460,cs),
(39,460,l),
(39,357,l)
);
}
);
width = 378;
}
);
note = uni1423;
unicode = 5155;
},
{
color = 3;
glyphname = "ringFinal-canadian";
lastChange = "2022-05-09 11:25:14 +0000";
layers = (
{
background = {
shapes = (
{
closed = 1;
nodes = (
(296.324,401,o),
(366,470.441,o),
(366,558,cs),
(366,645.58,o),
(294.737,714,o),
(207,714,cs),
(120.697,714,o),
(49,645.444,o),
(49,558,cs),
(49,470.575,o),
(119.106,401,o),
(207,401,cs)
);
},
{
closed = 1;
nodes = (
(131.666,423,o),
(73,483.35,o),
(73,559,cs),
(73,634.242,o),
(133.201,693,o),
(207,693,cs),
(281.204,693,o),
(342,634.201,o),
(342,559,cs),
(342,484.923,o),
(282.053,423,o),
(207,423,cs)
);
}
);
};
layerId = m01;
shapes = (
{
closed = 1;
nodes = (
(341,351,o),
(423,430,o),
(423,536,cs),
(423,642,o),
(339,720,o),
(235,720,cs),
(131,720,o),
(49,642,o),
(49,536,cs),
(49,430,o),
(129,351,o),
(235,351,cs)
);
},
{
closed = 1;
nodes = (
(140,373,o),
(72,442,o),
(72,536,cs),
(72,630,o),
(142,698,o),
(235,698,cs),
(328,698,o),
(400,630,o),
(400,536,cs),
(400,442,o),
(330,373,o),
(235,373,cs)
);
}
);
width = 472;
},
{
background = {
shapes = (
{
closed = 1;
nodes = (
(351,315,o),
(434,403,o),
(434,518,cs),
(434,634,o),
(350,721,o),
(228,721,cs),
(106,721,o),
(22,634,o),
(22,518,cs),
(22,403,o),
(106,315,o),
(228,315,cs)
);
},
{
closed = 1;
nodes = (
(174,423,o),
(140,459,o),
(140,518,cs),
(140,573,o),
(173,613,o),
(228,613,cs),
(283,613,o),
(316,576,o),
(316,519,cs),
(316,460,o),
(282,423,o),
(228,423,cs)
);
}
);
};
layerId = "A1461942-0433-4891-A171-8512F51D8C86";
shapes = (
{
closed = 1;
nodes = (
(340,351,o),
(419,430,o),
(419,536,cs),
(419,642,o),
(338,720,o),
(229,720,cs),
(120,720,o),
(39,642,o),
(39,536,cs),
(39,430,o),
(118,351,o),
(229,351,cs)
);
},
{
closed = 1;
nodes = (
(182,455,o),
(155,492,o),
(155,536,cs),
(155,580,o),
(183,616,o),
(229,616,cs),
(273,616,o),
(303,580,o),
(303,536,cs),
(303,492,o),
(274,455,o),
(229,455,cs)
);
}
);
width = 458;
}
);
note = uni1424;
unicode = 5156;
},
{
color = 3;
glyphname = "doubleacuteFinal-canadian";
lastChange = "2022-05-09 09:45:30 +0000";
layers = (
{
background = {
shapes = (
{
closed = 1;
nodes = (
(361,714,l),
(333,714,l),
(157,352,l),
(185,352,l),
(185,352,l)
);
},
{
closed = 1;
nodes = (
(233,714,l),
(205,714,l),
(29,352,l),
(57,352,l),
(57,352,l)
);
}
);
};
layerId = m01;
shapes = (
{
closed = 1;
nodes = (
(230,714,l),
(204,714,l),
(33,357,l),
(59,357,l)
);
},
{
closed = 1;
nodes = (
(360,714,l),
(334,714,l),
(163,357,l),
(189,357,l)
);
}
);
width = 393;
},
{
background = {
shapes = (
{
closed = 1;
nodes = (
(530,714,l),
(412,714,l),
(202,317,l),
(320,317,l),
(320,317,l)
);
},
{
closed = 1;
nodes = (
(347,714,l),
(229,714,l),
(19,317,l),
(137,317,l),
(137,317,l)
);
}
);
};
layerId = "A1461942-0433-4891-A171-8512F51D8C86";
shapes = (
{
closed = 1;
nodes = (
(348,714,l),
(219,714,l),
(25,357,l),
(154,357,l)
);
},
{
closed = 1;
nodes = (
(542,714,l),
(413,714,l),
(219,357,l),
(348,357,l)
);
}
);
width = 567;
}
);
note = uni1425;
unicode = 5157;
},
{
color = 3;
glyphname = "doubleshortverticalstrokesFinal-canadian";
lastChange = "2022-05-09 09:46:47 +0000";
layers = (
{
background = {
shapes = (
{
closed = 1;
nodes = (
(226,714,l),
(202,714,l),
(202,352,l),
(226,352,l),
(226,352,l)
);
},
{
closed = 1;
nodes = (
(73,714,l),
(49,714,l),
(49,352,l),
(73,352,l),
(73,352,l)
);
}
);
};
layerId = m01;
shapes = (
{
closed = 1;
nodes = (
(73,714,l),
(49,714,l),
(49,357,l),
(73,357,l)
);
},
{
closed = 1;
nodes = (
(192,714,l),
(168,714,l),
(168,357,l),
(192,357,l)
);
}
);
width = 241;
},
{
background = {
shapes = (
{
closed = 1;
nodes = (
(345,714,l),
(227,714,l),
(227,317,l),
(345,317,l),
(345,317,l)
);
},
{
closed = 1;
nodes = (
(157,714,l),
(39,714,l),
(39,317,l),
(157,317,l),
(157,317,l)
);
}
);
};
layerId = "A1461942-0433-4891-A171-8512F51D8C86";
shapes = (
{
closed = 1;
nodes = (
(155,714,l),
(39,714,l),
(39,357,l),
(155,357,l)
);
},
{
closed = 1;
nodes = (
(326,714,l),
(210,714,l),
(210,357,l),
(326,357,l)
);
}
);
width = 365;
}
);
note = uni1426;
unicode = 5158;
},
{
color = 3;
glyphname = "middledotFinal-canadian";
lastChange = "2022-05-17 10:04:27 +0000";
layers = (
{
background = {
shapes = (
{
closed = 1;
nodes = (
(122,324,o),
(136,338,o),
(136,357,cs),
(136,376,o),
(122,390,o),
(103,390,cs),
(84,390,o),
(69,376,o),
(69,357,cs),
(69,338,o),
(84,324,o),
(103,324,cs)
);
}
);
};
layerId = m01;
shapes = (
{
closed = 1;
nodes = (
(117,331,o),
(131,344,o),
(131,362,cs),
(131,380,o),
(117,393,o),
(100,393,cs),
(83,393,o),
(69,380,o),
(69,362,cs),
(69,344,o),
(83,331,o),
(100,331,cs)
);
}
);
width = 200;
},
{
background = {
shapes = (
{
closed = 1;
nodes = (
(170,274,o),
(207,311,o),
(207,358,cs),
(207,405,o),
(170,442,o),
(123,442,cs),
(76,442,o),
(39,405,o),
(39,358,cs),
(39,311,o),
(76,274,o),
(123,274,cs)
);
}
);
};
layerId = "A1461942-0433-4891-A171-8512F51D8C86";
shapes = (
{
closed = 1;
nodes = (
(174,275,o),
(213,314,o),
(213,362,cs),
(213,410,o),
(174,449,o),
(126,449,cs),
(78,449,o),
(39,410,o),
(39,362,cs),
(39,314,o),
(78,275,o),
(126,275,cs)
);
}
);
width = 252;
}
);
note = uni1427;
unicode = 5159;
},
{
color = 3;
glyphname = "shorthorizontalstrokeFinal-canadian";
lastChange = "2022-05-09 14:01:34 +0000";
layers = (
{
background = {
shapes = (
{
closed = 1;
nodes = (
(406,544,l),
(49,544,l),
(49,522,l),
(406,522,l),
(406,522,l)
);
}
);
};
layerId = m01;
shapes = (
{
closed = 1;
nodes = (
(405,526,l),
(405,548,l),
(49,548,l),
(49,526,l)
);
}
);
width = 454;
},
{
background = {
shapes = (
{
closed = 1;
nodes = (
(407,591,l),
(39,591,l),
(39,485,l),
(407,485,l),
(407,485,l)
);
}
);
};
layerId = "A1461942-0433-4891-A171-8512F51D8C86";
shapes = (
{
closed = 1;
nodes = (
(407,485,l),
(407,589,l),
(39,589,l),
(39,485,l)
);
}
);
width = 446;
}
);
note = uni1428;
unicode = 5160;
},
{
color = 3;
glyphname = "plusFinal-canadian";
lastChange = "2022-05-09 14:01:23 +0000";
layers = (
{
background = {
shapes = (
{
closed = 1;
nodes = (
(239,522,l),
(405,522,l),
(405,544,l),
(239,544,l),
(239,714,l),
(215,714,l),
(215,544,l),
(49,544,l),
(49,522,l),
(215,522,l),
(215,352,l),
(239,352,l),
(239,352,l)
);
}
);
};
layerId = m01;
shapes = (
{
closed = 1;
nodes = (
(240,357,l),
(240,714,l),
(216,714,l),
(216,357,l)
);
},
{
closed = 1;
nodes = (
(405,526,l),
(405,548,l),
(49,548,l),
(49,526,l)
);
}
);
width = 454;
},
{
background = {
shapes = (
{
closed = 1;
nodes = (
(269,474,l),
(401,474,l),
(401,580,l),
(269,580,l),
(269,714,l),
(153,714,l),
(153,580,l),
(19,580,l),
(19,474,l),
(153,474,l),
(153,328,l),
(269,328,l),
(269,328,l)
);
}
);
};
layerId = "A1461942-0433-4891-A171-8512F51D8C86";
shapes = (
{
closed = 1;
nodes = (
(281,357,l),
(281,714,l),
(167,714,l),
(167,357,l)
);
},
{
closed = 1;
nodes = (
(407,485,l),
(407,589,l),
(39,589,l),
(39,485,l)
);
}
);
width = 446;
}
);
note = uni1429;
unicode = 5161;
},
{
color = 3;
glyphname = "downtackFinal-canadian";
lastChange = "2022-05-09 14:01:26 +0000";
layers = (
{
background = {
shapes = (
{
closed = 1;
nodes = (
(208,692,l),
(343,692,l),
(343,714,l),
(49,714,l),
(49,692,l),
(184,692,l),
(184,352,l),
(208,352,l),
(208,352,l)
);
}
);
};
layerId = m01;
shapes = (
{
closed = 1;
nodes = (
(240,357,l),
(240,704,l),
(216,704,l),
(216,357,l)
);
},
{
closed = 1;
nodes = (
(405,692,l),
(405,714,l),
(49,714,l),
(49,692,l)
);
}
);
width = 454;
},
{
background = {
shapes = (
{
closed = 1;
nodes = (
(269,608,l),
(392,608,l),
(392,714,l),
(29,714,l),
(29,608,l),
(153,608,l),
(153,325,l),
(269,325,l),
(269,325,l)
);
}
);
};
layerId = "A1461942-0433-4891-A171-8512F51D8C86";
shapes = (
{
closed = 1;
nodes = (
(282,357,l),
(282,704,l),
(166,704,l),
(166,357,l)
);
},
{
closed = 1;
nodes = (
(407,610,l),
(407,714,l),
(39,714,l),
(39,610,l)
);
}
);
width = 446;
}
);
note = uni142A;
unicode = 5162;
},
{
color = 3;
glyphname = "thFinalWoodScree-canadian";
lastChange = "2022-05-12 10:53:24 +0000";
layers = (
{
background = {
shapes = (
{
closed = 1;
nodes = (
(223,714,l),
(197,714,l),
(197,377,l),
(223,377,l),
(223,377,l)
);
},
{
closed = 1;
nodes = (
(371,485,l),
(49,485,l),
(49,460,l),
(371,460,l),
(371,460,l)
);
},
{
closed = 1;
nodes = (
(371,631,l),
(49,631,l),
(49,606,l),
(371,606,l),
(371,606,l)
);
}
);
};
layerId = m01;
shapes = (
{
closed = 1;
nodes = (
(240,357,l),
(240,714,l),
(216,714,l),
(216,357,l)
);
},
{
closed = 1;
nodes = (
(405,457,l),
(405,479,l),
(49,479,l),
(49,457,l)
);
},
{
closed = 1;
nodes = (
(405,592,l),
(405,614,l),
(49,614,l),
(49,592,l)
);
}
);
width = 454;
},
{
background = {
shapes = (
{
closed = 1;
nodes = (
(272,714,l),
(156,714,l),
(156,308,l),
(272,308,l),
(272,308,l)
);
},
{
closed = 1;
nodes = (
(397,479,l),
(29,479,l),
(29,374,l),
(397,374,l),
(397,374,l)
);
},
{
closed = 1;
nodes = (
(397,648,l),
(29,648,l),
(29,542,l),
(397,542,l),
(397,542,l)
);
}
);
};
layerId = "A1461942-0433-4891-A171-8512F51D8C86";
shapes = (
{
closed = 1;
nodes = (
(281,357,l),
(281,714,l),
(167,714,l),
(167,357,l)
);
},
{
closed = 1;
nodes = (
(407,407,l),
(407,509,l),
(39,509,l),
(39,407,l)
);
},
{
closed = 1;
nodes = (
(407,562,l),
(407,664,l),
(39,664,l),
(39,562,l)
);
}
);
width = 446;
}
);
note = uni167E;
unicode = 5758;
},
{
color = 3;
glyphname = "ringSmallFinal-canadian";
lastChange = "2022-05-23 14:33:12 +0000";
layers = (
{
anchors = (
{
name = _top;
pos = (120,714);
}
);
background = {
shapes = (
{
closed = 1;
nodes = (
(174,784,o),
(220,824,o),
(220,884,cs),
(220,944,o),
(176,984,o),
(120,984,cs),
(64,984,o),
(20,943,o),
(20,884,cs),
(20,825,o),
(66,784,o),
(120,784,cs)
);
},
{
closed = 1;
nodes = (
(72,806,o),
(43,840,o),
(43,884,cs),
(43,928,o),
(73,962,o),
(120,962,cs),
(167,962,o),
(197,928,o),
(197,884,cs),
(197,840,o),
(168,806,o),
(120,806,cs)
);
}
);
};
layerId = m01;
shapes = (
{
closed = 1;
nodes = (
(175,784,o),
(220,824,o),
(220,884,cs),
(220,944,o),
(175,984,o),
(120,984,cs),
(65,984,o),
(20,944,o),
(20,884,cs),
(20,824,o),
(65,784,o),
(120,784,cs)
);
},
{
closed = 1;
nodes = (
(72,806,o),
(43,839,o),
(43,884,cs),
(43,929,o),
(73,962,o),
(120,962,cs),
(167,962,o),
(197,929,o),
(197,884,cs),
(197,839,o),
(168,806,o),
(120,806,cs)
);
}
);
width = 240;
},
{
anchors = (
{
name = _top;
pos = (151,714);
}
);
background = {
shapes = (
{
closed = 1;
nodes = (
(201,784,o),
(241,824,o),
(241,874,cs),
(241,924,o),
(201,964,o),
(151,964,cs),
(101,964,o),
(61,924,o),
(61,874,cs),
(61,824,o),
(101,784,o),
(151,784,cs)
);
}
);
};
layerId = "A1461942-0433-4891-A171-8512F51D8C86";
shapes = (
{
closed = 1;
nodes = (
(219,784,o),
(282,835,o),
(282,907,cs),
(282,979,o),
(219,1030,o),
(149,1030,cs),
(79,1030,o),
(20,979,o),
(20,907,cs),
(20,835,o),
(79,784,o),
(149,784,cs)
);
},
{
closed = 1;
nodes = (
(123,864,o),
(109,884,o),
(109,907,cs),
(109,930,o),
(127,950,o),
(151,950,cs),
(175,950,o),
(193,930,o),
(193,907,cs),
(193,884,o),
(175,864,o),
(151,864,cs)
);
}
);
width = 302;
}
);
note = g725;
unicode = 6366;
},
{
color = 3;
glyphname = "raiseddotFinal-canadian";
lastChange = "2022-05-23 14:33:25 +0000";
layers = (
{
anchors = (
{
name = _top;
pos = (53,714);
}
);
background = {
anchors = (
{
name = _centre.can;
pos = (213,367);
}
);
shapes = (
{
closed = 1;
nodes = (
(232,334,o),
(246,348,o),
(246,367,cs),
(246,386,o),
(232,400,o),
(213,400,cs),
(194,400,o),
(179,386,o),
(179,367,cs),
(179,348,o),
(194,334,o),
(213,334,cs)
);
}
);
};
layerId = m01;
shapes = (
{
closed = 1;
nodes = (
(72,824,o),
(86,838,o),
(86,857,cs),
(86,876,o),
(72,890,o),
(53,890,cs),
(34,890,o),
(20,876,o),
(20,857,cs),
(20,838,o),
(34,824,o),
(53,824,cs)
);
}
);
width = 106;
},
{
anchors = (
{
name = _top;
pos = (110,714);
}
);
background = {
shapes = (
{
closed = 1;
nodes = (
(290,280,o),
(327,317,o),
(327,364,cs),
(327,411,o),
(290,448,o),
(243,448,cs),
(196,448,o),
(159,411,o),
(159,364,cs),
(159,317,o),
(196,280,o),
(243,280,cs)
);
}
);
};
layerId = "A1461942-0433-4891-A171-8512F51D8C86";
shapes = (
{
closed = 1;
nodes = (
(160,784,o),
(200,824,o),
(200,874,cs),
(200,924,o),
(160,964,o),
(110,964,cs),
(60,964,o),
(20,924,o),
(20,874,cs),
(20,824,o),
(60,784,o),
(110,784,cs)
);
}
);
width = 220;
}
);
note = g725;
unicode = 6367;
},
{
color = 1;
glyphname = "e-canadian";
lastChange = "2022-05-20 14:43:36 +0000";
layers = (
{
anchors = (
{
name = middle_center_can;
pos = (393,470);
},
{
name = middle_left_can;
pos = (65,357);
},
{
name = middle_right_can;
pos = (732,357);
},
{
name = top_center_can;
pos = (393,714);
},
{
name = top_left_can;
pos = (136,714);
},
{
name = top_right_can;
pos = (651,714);
}
);
background = {
shapes = (
{
closed = 1;
nodes = (
(730,701,l),
(730,714,l),
(51,714,l),
(51,701,l),
(379,-12,l),
(402,-12,l),
(402,-12,l)
);
},
{
closed = 1;
nodes = (
(696,689,l),
(390,16,l),
(85,689,l),
(85,689,l)
);
}
);
};
layerId = m01;
shapes = (
{
closed = 1;
nodes = (
(51,714,l),
(51,701,l),
(386,0,l),
(411,0,l),
(746,701,l),
(746,714,l)
);
},
{
closed = 1;
nodes = (
(403,19,l),
(81,700,l),
(81,689,l),
(717,689,l),
(717,700,l),
(395,19,l)
);
}
);
width = 797;
},
{
anchors = (
{
name = middle_center_can;
pos = (422,470);
},
{
name = middle_left_can;
pos = (1,357);
},
{
name = middle_right_can;
pos = (844,357);
},
{
name = top_center_can;
pos = (422,714);
},
{
name = top_left_can;
pos = (165,714);
},
{
name = top_right_can;
pos = (680,714);
}
);
background = {
shapes = (
{
closed = 1;
nodes = (
(794,669,l),
(794,714,l),
(30,714,l),
(30,669,l),
(384,-12,l),
(440,-12,l),
(440,-12,l)
);
},
{
closed = 1;
nodes = (
(551,558,l),
(412,279,l),
(273,558,l),
(273,558,l)
);
}
);
};
guides = (
{
angle = 61.4496;
pos = (586,598);
}
);
layerId = "A1461942-0433-4891-A171-8512F51D8C86";
shapes = (
{
closed = 1;
nodes = (
(30,714,l),
(30,669,l),
(394,0,l),
(450,0,l),
(814,669,l),
(814,714,l)
);
},
{
closed = 1;
nodes = (
(449,241,l),
(262,598,l),
(238,557,l),
(606,557,l),
(590,598,l),
(403,241,l)
);
}
);
width = 844;
}
);
note = uni1401;
unicode = 5121;
},
{
color = 1;
glyphname = "i-canadian";
lastChange = "2022-05-20 14:43:28 +0000";
layers = (
{
anchors = (
{
name = middle_center_can;
pos = (393,470);
},
{
name = middle_left_can;
pos = (65,357);
},
{
name = middle_right_can;
pos = (732,357);
},
{
name = top_center_can;
pos = (393,714);
},
{
name = top_left_can;
pos = (136,714);
},
{
name = top_right_can;
pos = (651,714);
}
);
background = {
shapes = (
{
closed = 1;
nodes = (
(742,13,l),
(411,726,l),
(386,726,l),
(55,13,l),
(55,0,l),
(741,0,l)
);
},
{
closed = 1;
nodes = (
(708,25,l),
(90,25,l),
(399,698,l)
);
}
);
};
layerId = m01;
shapes = (
{
closed = 1;
nodes = (
(746,0,l),
(746,13,l),
(411,714,l),
(386,714,l),
(51,13,l),
(51,0,l)
);
},
{
closed = 1;
nodes = (
(403,695,l),
(395,695,l),
(717,14,l),
(717,25,l),
(81,25,l),
(81,14,l)
);
}
);
width = 797;
},
{
anchors = (
{
name = middle_center_can;
pos = (422,237);
},
{
name = middle_left_can;
pos = (1,357);
},
{
name = middle_right_can;
pos = (843,357);
},
{
name = top_center_can;
pos = (422,714);
},
{
name = top_left_can;
pos = (165,714);
},
{
name = top_right_can;
pos = (680,714);
}
);
background = {
shapes = (
{
closed = 1;
nodes = (
(814,0,l),
(814,45,l),
(450,729,l),
(394,729,l),
(30,45,l),
(30,0,l)
);
},
{
closed = 1;
nodes = (
(391,482,l),
(578,116,l),
(606,157,l),
(238,157,l),
(258,116,l),
(445,482,l)
);
}
);
};
guides = (
{
angle = 118.5504;
pos = (578,116);
}
);
layerId = "A1461942-0433-4891-A171-8512F51D8C86";
shapes = (
{
closed = 1;
nodes = (
(814,0,l),
(814,45,l),
(450,714,l),
(394,714,l),
(30,45,l),
(30,0,l)
);
},
{
closed = 1;
nodes = (
(441,462,l),
(395,462,l),
(582,116,l),
(606,157,l),
(238,157,l),
(254,116,l)
);
}
);
width = 844;
}
);
metricLeft = "e-canadian";
metricRight = "e-canadian";
note = uni1403;
unicode = 5123;
},
{
color = 1;
glyphname = "o-canadian";
lastChange = "2022-05-20 14:34:38 +0000";
layers = (
{
anchors = (
{
name = middle_center_can;
pos = (296,357);
},
{
name = middle_left_can;
pos = (-45,357);
},
{
name = middle_right_can;
pos = (841,357);
},
{
name = top_center_can;
pos = (398,714);
},
{
name = top_left_can;
pos = (98,714);
},
{
name = top_right_can;
pos = (681,714);
}
);
background = {
shapes = (
{
closed = 1;
nodes = (
(98,-12,l),
(711,347,l),
(711,367,l),
(98,726,l),
(85,726,l),
(85,-12,l)
);
},
{
closed = 1;
nodes = (
(110,696,l),
(99,698,l),
(692,352,l),
(692,362,l),
(99,16,l),
(110,17,l)
);
}
);
};
layerId = m01;
shapes = (
{
closed = 1;
nodes = (
(98,0,l),
(711,347,l),
(711,367,l),
(98,714,l),
(85,714,l),
(85,0,l)
);
},
{
closed = 1;
nodes = (
(110,684,l),
(99,685,l),
(692,351,l),
(692,364,l),
(99,30,l),
(110,29,l)
);
}
);
width = 751;
},
{
anchors = (
{
name = middle_center_can;
pos = (290,357);
},
{
name = middle_left_can;
pos = (-96,357);
},
{
name = middle_right_can;
pos = (879,357);
},
{
name = top_center_can;
pos = (392,714);
},
{
name = top_left_can;
pos = (147,714);
},
{
name = top_right_can;
pos = (650,714);
}
);
background = {
shapes = (
{
closed = 1;
nodes = (
(1804,336,l),
(1804,381,l),
(1209,725,l),
(1164,725,l),
(1164,-10,l),
(1209,-10,l),
(1209,-10,l)
);
},
{
closed = 1;
nodes = (
(1555,358,l),
(1318,231,l),
(1318,485,l),
(1318,485,l)
);
},
{
closed = 1;
nodes = (
(90,-12,l),
(703,347,l),
(703,367,l),
(90,726,l),
(77,726,l),
(77,-11,l)
);
},
{
closed = 1;
nodes = (
(91,16,l),
(102,17,l),
(102,696,l),
(91,698,l),
(684,352,l),
(684,362,l)
);
},
{
closed = 1;
nodes = (
(109,0,l),
(719,329,l),
(719,385,l),
(109,714,l),
(64,714,l),
(64,0,l)
);
},
{
closed = 1;
nodes = (
(230,505,l),
(181,505,l),
(475,345,l),
(475,373,l),
(181,214,l),
(230,214,l)
);
}
);
};
guides = (
{
angle = 151.6601;
pos = (719,385);
},
{
angle = 28.3399;
pos = (475,373);
}
);
layerId = "A1461942-0433-4891-A171-8512F51D8C86";
shapes = (
{
closed = 1;
nodes = (
(109,0,l),
(719,329,l),
(719,385,l),
(109,714,l),
(64,714,l),
(64,0,l)
);
},
{
closed = 1;
nodes = (
(230,505,l),
(181,505,l),
(483,345,l),
(483,373,l),
(181,214,l),
(230,214,l)
);
}
);
width = 748;
}
);
metricLeft = "nunavuth-canadian";
note = uni1405;
unicode = 5125;
},
{
color = 1;
glyphname = "a-canadian";
lastChange = "2022-05-20 14:38:47 +0000";
layers = (
{
anchors = (
{
name = middle_center_can;
pos = (445,357);
},
{
name = middle_left_can;
pos = (-90,357);
},
{
name = middle_right_can;
pos = (796,357);
},
{
name = top_center_can;
pos = (353,714);
},
{
name = top_left_can;
pos = (53,714);
},
{
name = top_right_can;
pos = (654,714);
}
);
background = {
shapes = (
{
closed = 1;
nodes = (
(666,-12,l),
(666,726,l),
(653,726,l),
(40,367,l),
(40,347,l),
(653,-12,l)
);
},
{
closed = 1;
nodes = (
(652,16,l),
(59,362,l),
(59,352,l),
(652,698,l),
(641,696,l),
(641,15,l)
);
}
);
};
guides = (
{
angle = 209.5128;
pos = (59,350);
},
{
angle = -29.5128;
pos = (59,363);
}
);
layerId = m01;
shapes = (
{
closed = 1;
nodes = (
(666,0,l),
(666,714,l),
(653,714,l),
(40,367,l),
(40,347,l),
(653,0,l)
);
},
{
closed = 1;
nodes = (
(651,28,l),
(59,363,l),
(59,351,l),
(650,685,l),
(641,685,l),
(641,28,l)
);
}
);
width = 751;
},
{
anchors = (
{
name = middle_center_can;
pos = (458,357);
},
{
name = middle_left_can;
pos = (-131,357);
},
{
name = middle_right_can;
pos = (844,357);
},
{
name = top_center_can;
pos = (357,714);
},
{
name = top_left_can;
pos = (112,714);
},
{
name = top_right_can;
pos = (601,714);
}
);
background = {
shapes = (
{
closed = 1;
nodes = (
(1459,725,l),
(1414,725,l),
(819,381,l),
(819,336,l),
(1414,-10,l),
(1459,-10,l),
(1459,-10,l)
);
},
{
closed = 1;
nodes = (
(1305,485,l),
(1305,231,l),
(1068,358,l),
(1068,358,l)
);
},
{
closed = 1;
nodes = (
(684,0,l),
(684,714,l),
(639,714,l),
(29,385,l),
(29,329,l),
(639,0,l)
);
},
{
closed = 1;
nodes = (
(567,214,l),
(273,373,l),
(273,345,l),
(567,504,l),
(518,504,l),
(518,214,l)
);
}
);
};
guides = (
{
angle = 208.3399;
pos = (273,345);
},
{
angle = -28.3399;
pos = (273,373);
}
);
layerId = "A1461942-0433-4891-A171-8512F51D8C86";
shapes = (
{
closed = 1;
nodes = (
(684,0,l),
(684,714,l),
(639,714,l),
(29,385,l),
(29,329,l),
(639,0,l)
);
},
{
closed = 1;
nodes = (
(567,214,l),
(265,373,l),
(265,345,l),
(567,504,l),
(518,504,l),
(518,214,l)
);
}
);
width = 748;
}
);
metricLeft = "=|o-canadian";
metricRight = "nunavuth-canadian";
note = uni140A;
unicode = 5130;
},
{
color = 7;
glyphname = "waaNaskapi-canadian";
lastChange = "2022-05-20 15:05:02 +0000";
layers = (
{
background = {
shapes = (
{
ref = "a-canadian";
},
{
pos = (230,-73);
ref = g724;
},
{
pos = (-59,-229);
ref = g724;
}
);
};
layerId = m01;
shapes = (
{
ref = "a-canadian";
},
{
alignment = -1;
pos = (200,-208);
ref = dot_top;
},
{
alignment = -1;
pos = (400,-100);
ref = dot_top;
}
);
width = 751;
},
{
background = {
anchors = (
{
name = middle_center_can;
pos = (290,357);
},
{
name = middle_left_can;
pos = (-96,357);
},
{
name = middle_right_can;
pos = (879,357);
},
{
name = top_center_can;
pos = (392,714);
},
{
name = top_left_can;
pos = (147,714);
},
{
name = top_right_can;
pos = (650,714);
}
);
shapes = (
{
closed = 1;
nodes = (
(684,714,l),
(639,714,l),
(29,385,l),
(29,329,l),
(639,0,l),
(684,0,l)
);
},
{
closed = 1;
nodes = (
(567,214,l),
(265,373,l),
(265,345,l),
(567,505,l),
(518,505,l),
(518,214,l)
);
},
{
closed = 1;
nodes = (
(460,684,o),
(500,724,o),
(500,774,cs),
(500,824,o),
(460,864,o),
(410,864,cs),
(360,864,o),
(320,824,o),
(320,774,cs),
(320,724,o),
(360,684,o),
(410,684,cs)
);
},
{
closed = 1;
nodes = (
(260,576,o),
(300,616,o),
(300,666,cs),
(300,716,o),
(260,756,o),
(210,756,cs),
(160,756,o),
(120,716,o),
(120,666,cs),
(120,616,o),
(160,576,o),
(210,576,cs)
);
}
);
};
layerId = "A1461942-0433-4891-A171-8512F51D8C86";
shapes = (
{
ref = "a-canadian";
},
{
alignment = -1;
pos = (120,-208);
ref = dot_top;
},
{
alignment = -1;
pos = (320,-100);
ref = dot_top;
}
);
width = 748;
}
);
metricLeft = "=|o-canadian";
metricWidth = "a-canadian";
note = uni141B;
unicode = 5147;
},
{
color = 3;
glyphname = "ai-canadian";
lastChange = "2022-05-17 10:09:40 +0000";
layers = (
{
background = {
shapes = (
{
closed = 1;
nodes = (
(298,351,o),
(356,409,o),
(356,516,cs),
(356,714,l),
(333,714,l),
(333,515,ls),
(333,416,o),
(285,373,o),
(210,373,cs),
(136,373,o),
(87,418,o),
(87,514,cs),
(87,714,l),
(64,714,l),
(64,513,ls),
(64,409,o),
(124,351,o),
(210,351,cs)
);
},
{
closed = 1;
nodes = (
(567,351,o),
(625,409,o),
(625,516,cs),
(625,714,l),
(602,714,l),
(602,515,ls),
(602,416,o),
(554,373,o),
(479,373,cs),
(405,373,o),
(356,418,o),
(356,514,cs),
(356,714,l),
(333,714,l),
(333,513,ls),
(333,409,o),
(393,351,o),
(479,351,cs)
);
}
);
};
layerId = m01;
shapes = (
{
closed = 1;
nodes = (
(284,351,o),
(333,394,o),
(346,476,c),
(333,476,l),
(348,395,o),
(398,351,o),
(473,351,cs),
(561,351,o),
(617,409,o),
(617,516,cs),
(617,714,l),
(594,714,l),
(594,515,ls),
(594,416,o),
(548,373,o),
(473,373,cs),
(399,373,o),
(352,418,o),
(352,514,cs),
(352,714,l),
(329,714,l),
(329,515,ls),
(329,416,o),
(283,373,o),
(208,373,cs),
(134,373,o),
(87,418,o),
(87,514,cs),
(87,714,l),
(64,714,l),
(64,513,ls),
(64,409,o),
(122,351,o),
(208,351,cs)
);
}
);
width = 681;
},
{
background = {
shapes = (
{
closed = 1;
nodes = (
(320,351,o),
(384,419,o),
(384,531,cs),
(384,714,l),
(268,714,l),
(268,527,ls),
(268,476,o),
(248,455,o),
(211,455,cs),
(175,455,o),
(155,477,o),
(155,527,cs),
(155,714,l),
(39,714,l),
(39,531,ls),
(39,417,o),
(104,351,o),
(212,351,cs)
);
},
{
closed = 1;
nodes = (
(549,351,o),
(613,419,o),
(613,531,cs),
(613,714,l),
(497,714,l),
(497,527,ls),
(497,476,o),
(477,455,o),
(440,455,cs),
(404,455,o),
(384,477,o),
(384,527,cs),
(384,714,l),
(268,714,l),
(268,531,ls),
(268,417,o),
(333,351,o),
(441,351,cs)
);
}
);
};
layerId = "A1461942-0433-4891-A171-8512F51D8C86";
shapes = (
{
closed = 1;
nodes = (
(271,351,o),
(315,371,o),
(346,416,c),
(307,416,l),
(336,371,o),
(383,351,o),
(441,351,cs),
(549,351,o),
(613,419,o),
(613,531,cs),
(613,714,l),
(497,714,l),
(497,527,ls),
(497,476,o),
(477,455,o),
(440,455,cs),
(404,455,o),
(384,477,o),
(384,527,cs),
(384,714,l),
(268,714,l),
(268,527,ls),
(268,476,o),
(248,455,o),
(211,455,cs),
(175,455,o),
(155,477,o),
(155,527,cs),
(155,714,l),
(39,714,l),
(39,531,ls),
(39,417,o),
(104,351,o),
(212,351,cs)
);
}
);
width = 652;
}
);
note = uni141C;
unicode = 5148;
},
{
color = 3;
glyphname = "ycreew-canadian";
lastChange = "2022-05-17 10:09:48 +0000";
layers = (
{
background = {
shapes = (
{
closed = 1;
nodes = (
(447,526,o),
(487,572,o),
(487,622,cs),
(487,676,o),
(445,718,o),
(391,718,cs),
(340,718,o),
(295,678,o),
(295,622,cs),
(295,569,o),
(337,526,o),
(392,526,cs)
);
},
{
closed = 1;
nodes = (
(216,356,o),
(256,401,o),
(256,452,cs),
(256,506,o),
(214,548,o),
(161,548,cs),
(109,548,o),
(64,508,o),
(64,452,cs),
(64,399,o),
(107,356,o),
(160,356,cs)
);
},
{
closed = 1;
nodes = (
(119,378,o),
(87,411,o),
(87,452,cs),
(87,493,o),
(119,526,o),
(160,526,cs),
(201,526,o),
(233,493,o),
(233,452,cs),
(233,411,o),
(201,378,o),
(160,378,cs)
);
},
{
closed = 1;
nodes = (
(350,548,o),
(318,581,o),
(318,622,cs),
(318,663,o),
(350,696,o),
(391,696,cs),
(432,696,o),
(464,663,o),
(464,622,cs),
(464,581,o),
(432,548,o),
(391,548,cs)
);
}
);
};
layerId = m01;
shapes = (
{
closed = 1;
nodes = (
(381,528,o),
(424,570,o),
(424,624,cs),
(424,678,o),
(383,720,o),
(329,720,cs),
(275,720,o),
(232,678,o),
(232,624,cs),
(232,570,o),
(275,528,o),
(328,528,cs)
);
},
{
closed = 1;
nodes = (
(213,351,o),
(256,393,o),
(256,447,cs),
(256,501,o),
(215,543,o),
(161,543,cs),
(107,543,o),
(64,501,o),
(64,447,cs),
(64,393,o),
(107,351,o),
(160,351,cs)
);
},
{
closed = 1;
nodes = (
(117,372,o),
(86,406,o),
(86,447,cs),
(86,488,o),
(117,522,o),
(160,522,cs),
(203,522,o),
(234,488,o),
(234,447,cs),
(234,406,o),
(203,372,o),
(160,372,cs)
);
},
{
closed = 1;
nodes = (
(285,549,o),
(254,583,o),
(254,624,cs),
(254,665,o),
(285,699,o),
(328,699,cs),
(371,699,o),
(402,665,o),
(402,624,cs),
(402,583,o),
(371,549,o),
(328,549,cs)
);
}
);
width = 488;
},
{
background = {
shapes = (
{
closed = 1;
nodes = (
(1353,456,o),
(1409,513,o),
(1409,589,cs),
(1409,665,o),
(1351,720,o),
(1273,720,cs),
(1195,720,o),
(1137,665,o),
(1137,589,cs),
(1137,513,o),
(1194,456,o),
(1273,456,cs)
);
},
{
closed = 1;
nodes = (
(1055,351,o),
(1111,408,o),
(1111,484,cs),
(1111,560,o),
(1053,615,o),
(975,615,cs),
(897,615,o),
(839,560,o),
(839,484,cs),
(839,408,o),
(896,351,o),
(975,351,cs)
);
},
{
closed = 1;
nodes = (
(944,430,o),
(926,454,o),
(926,484,cs),
(926,513,o),
(945,537,o),
(975,537,cs),
(1004,537,o),
(1024,513,o),
(1024,484,cs),
(1024,454,o),
(1004,430,o),
(975,430,cs)
);
},
{
closed = 1;
nodes = (
(1242,535,o),
(1224,559,o),
(1224,589,cs),
(1224,618,o),
(1243,642,o),
(1273,642,cs),
(1302,642,o),
(1322,618,o),
(1322,589,cs),
(1322,559,o),
(1302,535,o),
(1273,535,cs)
);
},
{
closed = 1;
nodes = (
(376,528,o),
(419,570,o),
(419,624,cs),
(419,678,o),
(378,720,o),
(324,720,cs),
(270,720,o),
(227,678,o),
(227,624,cs),
(227,570,o),
(270,528,o),
(323,528,cs)
);
},
{
closed = 1;
nodes = (
(188,351,o),
(231,393,o),
(231,447,cs),
(231,501,o),
(190,543,o),
(136,543,cs),
(82,543,o),
(39,501,o),
(39,447,cs),
(39,393,o),
(82,351,o),
(135,351,cs)
);
},
{
closed = 1;
nodes = (
(92,372,o),
(61,406,o),
(61,447,cs),
(61,488,o),
(92,522,o),
(135,522,cs),
(178,522,o),
(209,488,o),
(209,447,cs),
(209,406,o),
(178,372,o),
(135,372,cs)
);
},
{
closed = 1;
nodes = (
(280,549,o),
(249,583,o),
(249,624,cs),
(249,665,o),
(280,699,o),
(323,699,cs),
(366,699,o),
(397,665,o),
(397,624,cs),
(397,583,o),
(366,549,o),
(323,549,cs)
);
}
);
};
layerId = "A1461942-0433-4891-A171-8512F51D8C86";
shapes = (
{
closed = 1;
nodes = (
(374,528,o),
(415,569,o),
(415,625,cs),
(415,680,o),
(373,720,o),
(316,720,cs),
(259,720,o),
(217,680,o),
(217,625,cs),
(217,569,o),
(258,528,o),
(316,528,cs)
);
},
{
closed = 1;
nodes = (
(196,351,o),
(237,392,o),
(237,448,cs),
(237,503,o),
(195,543,o),
(138,543,cs),
(81,543,o),
(39,503,o),
(39,448,cs),
(39,392,o),
(80,351,o),
(138,351,cs)
);
},
{
closed = 1;
nodes = (
(117,410,o),
(104,427,o),
(104,448,cs),
(104,468,o),
(117,484,o),
(138,484,cs),
(158,484,o),
(172,468,o),
(172,448,cs),
(172,427,o),
(158,410,o),
(138,410,cs)
);
},
{
closed = 1;
nodes = (
(294,587,o),
(282,604,o),
(282,625,cs),
(282,645,o),
(295,661,o),
(316,661,cs),
(336,661,o),
(350,645,o),
(350,625,cs),
(350,604,o),
(336,587,o),
(316,587,cs)
);
}
);
width = 454;
}
);
note = uni141D;
unicode = 5149;
},
{
color = 3;
glyphname = "glottalstop-canadian";
lastChange = "2022-05-17 10:10:20 +0000";
layers = (
{
background = {
shapes = (
{
closed = 1;
nodes = (
(436,357,l),
(436,366,l),
(269,714,l),
(255,714,l),
(88,366,l),
(88,357,l)
);
},
{
closed = 1;
nodes = (
(272,705,l),
(252,705,l),
(413,364,l),
(421,378,l),
(103,378,l),
(111,364,l)
);
}
);
};
layerId = m01;
shapes = (
{
closed = 1;
nodes = (
(412,357,l),
(412,366,l),
(245,714,l),
(231,714,l),
(64,366,l),
(64,357,l)
);
},
{
closed = 1;
nodes = (
(248,700,l),
(228,700,l),
(389,364,l),
(397,378,l),
(79,378,l),
(87,364,l)
);
}
);
width = 476;
},
{
background = {
shapes = (
{
closed = 1;
nodes = (
(534,357,l),
(534,380,l),
(352,714,l),
(324,714,l),
(142,380,l),
(142,357,l)
);
},
{
closed = 1;
nodes = (
(315,588,l),
(408,415,l),
(430,446,l),
(246,446,l),
(264,415,l),
(358,588,l)
);
}
);
};
layerId = "A1461942-0433-4891-A171-8512F51D8C86";
shapes = (
{
closed = 1;
nodes = (
(431,357,l),
(431,380,l),
(249,714,l),
(221,714,l),
(39,380,l),
(39,357,l)
);
},
{
closed = 1;
nodes = (
(255,588,l),
(212,588,l),
(305,415,l),
(327,446,l),
(143,446,l),
(161,415,l)
);
}
);
width = 470;
}
);
note = uni141E;
unicode = 5150;
},
{
color = 1;
glyphname = "pe-canadian";
lastChange = "2022-05-20 16:14:04 +0000";
layers = (
{
anchors = (
{
name = middle_center_can;
pos = (393,470);
},
{
name = middle_left_can;
pos = (65,357);
},
{
name = middle_right_can;
pos = (732,357);
},
{
name = top_center_can;
pos = (393,714);
},
{
name = top_left_can;
pos = (136,714);
},
{
name = top_right_can;
pos = (651,714);
}
);
background = {
shapes = (
{
closed = 1;
nodes = (
(1630,701,l),
(1630,714,l),
(1607,714,l),
(1290,16,l),
(974,714,l),
(951,714,l),
(951,701,l),
(1279,-12,l),
(1302,-12,l),
(1302,-12,l)
);
},
{
closed = 1;
nodes = (
(51,714,l),
(51,701,l),
(386,-12,l),
(411,-12,l),
(746,701,l),
(745,714,l)
);
},
{
closed = 1;
nodes = (
(403,7,l),
(81,700,l),
(81,689,l),
(717,689,l),
(717,700,l),
(395,7,l)
);
}
);
};
layerId = m01;
shapes = (
{
closed = 1;
nodes = (
(411,0,l),
(746,701,l),
(746,714,l),
(723,714,l),
(395,19,l),
(403,19,l),
(75,714,l),
(51,714,l),
(51,701,l),
(386,0,l)
);
}
);
width = 797;
},
{
anchors = (
{
name = middle_center_can;
pos = (422,470);
},
{
name = middle_left_can;
pos = (1,357);
},
{
name = middle_right_can;
pos = (844,357);
},
{
name = top_center_can;
pos = (422,714);
},
{
name = top_left_can;
pos = (165,714);
},
{
name = top_right_can;
pos = (680,714);
}
);
background = {
shapes = (
{
closed = 1;
nodes = (
(1888,669,l),
(1888,714,l),
(1719,714,l),
(1509,299,l),
(1299,714,l),
(1130,714,l),
(1130,669,l),
(1486,-12,l),
(1531,-12,l),
(1531,-12,l)
);
},
{
closed = 1;
nodes = (
(642,714,l),
(389,232,l),
(454,232,l),
(207,714,l),
(30,714,l),
(30,669,l),
(394,-15,l),
(450,-15,l),
(814,669,l),
(814,714,l)
);
}
);
};
layerId = "A1461942-0433-4891-A171-8512F51D8C86";
shapes = (
{
closed = 1;
nodes = (
(450,0,l),
(814,669,l),
(814,714,l),
(646,714,l),
(394,244,l),
(459,244,l),
(211,714,l),
(30,714,l),
(30,669,l),
(394,0,l)
);
}
);
width = 844;
}
);
metricLeft = "e-canadian";
metricRight = "e-canadian";
note = uni142F;
unicode = 5167;
},
{
color = 1;
glyphname = "pi-canadian";
lastChange = "2022-05-20 16:16:48 +0000";
layers = (
{
anchors = (
{
name = middle_center_can;
pos = (393,470);
},
{
name = middle_left_can;
pos = (65,357);
},
{
name = middle_right_can;
pos = (732,357);
},
{
name = top_center_can;
pos = (393,714);
},
{
name = top_left_can;
pos = (136,714);
},
{
name = top_right_can;
pos = (651,714);
}
);
background = {
shapes = (
{
closed = 1;
nodes = (
(390,698,l),
(707,0,l),
(730,0,l),
(730,13,l),
(402,726,l),
(379,726,l),
(51,13,l),
(51,0,l),
(74,0,l),
(74,0,l)
);
}
);
};
layerId = m01;
shapes = (
{
closed = 1;
nodes = (
(74,0,l),
(402,695,l),
(394,695,l),
(722,0,l),
(746,0,l),
(746,13,l),
(411,714,l),
(386,714,l),
(51,13,l),
(51,0,l)
);
}
);
width = 797;
},
{
anchors = (
{
name = middle_center_can;
pos = (422,237);
},
{
name = middle_left_can;
pos = (1,357);
},
{
name = middle_right_can;
pos = (843,357);
},
{
name = top_center_can;
pos = (422,714);
},
{
name = top_left_can;
pos = (165,714);
},
{
name = top_right_can;
pos = (680,714);
}
);
background = {
shapes = (
{
closed = 1;
nodes = (
(202,0,l),
(457,482,l),
(390,482,l),
(637,0,l),
(814,0,l),
(814,45,l),
(450,729,l),
(394,729,l),
(30,45,l),
(30,0,l)
);
}
);
};
layerId = "A1461942-0433-4891-A171-8512F51D8C86";
shapes = (
{
closed = 1;
nodes = (
(203,0,l),
(458,470,l),
(391,470,l),
(638,0,l),
(814,0,l),
(814,45,l),
(450,714,l),
(394,714,l),
(30,45,l),
(30,0,l)
);
}
);
width = 844;
}
);
metricLeft = "e-canadian";
metricRight = "e-canadian";
note = uni1431;
unicode = 5169;
},
{
color = 1;
glyphname = "po-canadian";
lastChange = "2022-05-20 16:19:45 +0000";
layers = (
{
anchors = (
{
name = middle_center_can;
pos = (266,357);
},
{
name = middle_left_can;
pos = (30,357);
},
{
name = middle_right_can;
pos = (806,357);
},
{
name = top_center_can;
pos = (368,714);
},
{
name = top_left_can;
pos = (73,714);
},
{
name = top_right_can;
pos = (646,714);
}
);
background = {
shapes = (
{
closed = 1;
nodes = (
(1154,348,l),
(1154,366,l),
(540,725,l),
(530,725,l),
(530,702,l),
(1120,357,l),
(530,12,l),
(530,-12,l),
(540,-12,l),
(540,-12,l)
);
},
{
closed = 1;
nodes = (
(63,-12,l),
(676,347,l),
(676,367,l),
(63,726,l),
(50,726,l),
(50,-12,l)
);
},
{
closed = 1;
nodes = (
(75,696,l),
(64,698,l),
(657,352,l),
(657,362,l),
(64,16,l),
(75,17,l)
);
}
);
};
layerId = m01;
shapes = (
{
closed = 1;
nodes = (
(73,0,l),
(676,347,l),
(676,367,l),
(73,714,l),
(60,714,l),
(60,693,l),
(657,351,l),
(657,363,l),
(60,21,l),
(60,0,l)
);
}
);
width = 716;
},
{
anchors = (
{
name = middle_center_can;
pos = (180,357);
},
{
name = middle_left_can;
pos = (-16,357);
},
{
name = middle_right_can;
pos = (859,357);
},
{
name = top_center_can;
pos = (372,714);
},
{
name = top_left_can;
pos = (127,714);
},
{
name = top_right_can;
pos = (630,714);
}
);
background = {
shapes = (
{
closed = 1;
nodes = (
(1264,336,l),
(1264,379,l),
(669,725,l),
(624,725,l),
(624,568,l),
(1014,357,l),
(624,148,l),
(624,-10,l),
(669,-10,l),
(669,-10,l)
);
},
{
closed = 1;
nodes = (
(89,-15,l),
(709,329,l),
(709,385,l),
(89,729,l),
(44,729,l),
(44,-15,l)
);
},
{
closed = 1;
nodes = (
(210,521,l),
(161,509,l),
(461,343,l),
(461,371,l),
(161,205,l),
(210,193,l)
);
}
);
};
layerId = "A1461942-0433-4891-A171-8512F51D8C86";
shapes = (
{
closed = 1;
nodes = (
(89,0,l),
(699,329,l),
(699,385,l),
(89,714,l),
(44,714,l),
(44,546,l),
(455,330,l),
(455,386,l),
(44,170,l),
(44,0,l)
);
}
);
width = 728;
}
);
metricRight = "o-canadian";
note = uni1433;
unicode = 5171;
},
{
color = 1;
glyphname = "pa-canadian";
lastChange = "2022-05-20 18:18:45 +0000";
layers = (
{
anchors = (
{
name = middle_center_can;
pos = (266,357);
},
{
name = middle_left_can;
pos = (-90,357);
},
{
name = middle_right_can;
pos = (686,357);
},
{
name = top_center_can;
pos = (348,714);
},
{
name = top_left_can;
pos = (53,714);
},
{
name = top_right_can;
pos = (643,714);
}
);
background = {
shapes = (
{
closed = 1;
nodes = (
(666,0,l),
(666,714,l),
(653,714,l),
(40,367,l),
(40,347,l),
(653,0,l)
);
},
{
closed = 1;
nodes = (
(651,28,l),
(59,363,l),
(59,351,l),
(650,685,l),
(641,685,l),
(641,28,l)
);
}
);
};
layerId = m01;
shapes = (
{
closed = 1;
nodes = (
(656,0,l),
(656,21,l),
(59,363,l),
(59,351,l),
(656,693,l),
(656,714,l),
(643,714,l),
(40,367,l),
(40,347,l),
(643,0,l)
);
}
);
width = 716;
},
{
anchors = (
{
name = middle_center_can;
pos = (458,357);
},
{
name = middle_left_can;
pos = (-131,357);
},
{
name = middle_right_can;
pos = (744,357);
},
{
name = top_center_can;
pos = (357,714);
},
{
name = top_left_can;
pos = (112,714);
},
{
name = top_right_can;
pos = (601,714);
}
);
background = {
shapes = (
{
closed = 1;
nodes = (
(684,-15,l),
(684,143,l),
(263,374,l),
(263,338,l),
(684,569,l),
(684,729,l),
(639,729,l),
(19,385,l),
(19,329,l),
(639,-15,l)
);
}
);
};
layerId = "A1461942-0433-4891-A171-8512F51D8C86";
shapes = (
{
closed = 1;
nodes = (
(684,0,l),
(684,168,l),
(273,384,l),
(273,328,l),
(684,544,l),
(684,714,l),
(639,714,l),
(29,385,l),
(29,329,l),
(639,0,l)
);
}
);
width = 728;
}
);
metricLeft = "a-canadian";
metricRight = "=|po-canadian";
note = uni1438;
unicode = 5176;
},
{
color = 3;
glyphname = "p-canadian";
lastChange = "2022-05-17 10:11:48 +0000";
layers = (
{
background = {
shapes = (
{
closed = 1;
nodes = (
(372,357,l),
(372,376,l),
(74,547,l),
(74,525,l),
(372,696,l),
(372,714,l),
(360,714,l),
(64,543,l),
(64,529,l),
(360,357,l)
);
}
);
};
layerId = m01;
shapes = (
{
closed = 1;
nodes = (
(372,357,l),
(372,376,l),
(84,542,l),
(84,530,l),
(372,695,l),
(372,714,l),
(360,714,l),
(64,543,l),
(64,529,l),
(360,357,l)
);
}
);
width = 436;
},
{
background = {
shapes = (
{
closed = 1;
nodes = (
(218,540,l),
(388,632,l),
(388,753,l),
(19,555,l),
(19,525,l),
(388,327,l),
(388,448,l),
(388,448,l)
);
}
);
};
layerId = "A1461942-0433-4891-A171-8512F51D8C86";
shapes = (
{
closed = 1;
nodes = (
(357,357,l),
(357,451,l),
(151,559,l),
(151,511,l),
(357,619,l),
(357,714,l),
(334,714,l),
(29,550,l),
(29,522,l),
(334,357,l)
);
}
);
width = 396;
}
);
note = uni1449;
unicode = 5193;
},
{
color = 3;
glyphname = "pWestCree-canadian";
lastChange = "2022-05-18 18:55:03 +0000";
layers = (
{
background = {
shapes = (
{
closed = 1;
nodes = (
(108,714,l),
(84,714,l),
(84,352,l),
(108,352,l),
(108,352,l)
);
}
);
};
layerId = m01;
shapes = (
{
closed = 1;
nodes = (
(88,357,l),
(88,714,l),
(64,714,l),
(64,357,l)
);
}
);
width = 152;
},
{
background = {
shapes = (
{
closed = 1;
nodes = (
(151,714,l),
(35,714,l),
(35,325,l),
(151,325,l),
(151,325,l)
);
}
);
};
layerId = "A1461942-0433-4891-A171-8512F51D8C86";
shapes = (
{
closed = 1;
nodes = (
(141,357,l),
(141,714,l),
(25,714,l),
(25,357,l)
);
}
);
width = 166;
}
);
note = uni144A;
unicode = 5194;
},
{
color = 3;
glyphname = "hCarrier-canadian";
lastChange = "2022-05-17 10:12:25 +0000";
layers = (
{
background = {
shapes = (
{
closed = 1;
nodes = (
(983,488,ls),
(983,559,o),
(945,600,o),
(884,600,cs),
(845,600,o),
(803,587,o),
(779,572,c),
(779,545,l),
(800,560,o),
(838,577,o),
(879,577,cs),
(930,577,o),
(959,547,o),
(959,480,cs),
(959,342,l),
(983,342,l),
(983,342,l)
);
},
{
closed = 1;
nodes = (
(788,714,l),
(764,714,l),
(764,342,l),
(788,342,l),
(788,342,l)
);
},
{
closed = 1;
nodes = (
(251,183,o),
(297,234,o),
(297,310,cs),
(297,386,o),
(250,436,o),
(181,436,cs),
(126,436,o),
(84,403,o),
(74,358,c),
(77,354,l),
(77,546,l),
(64,546,l),
(64,312,ls),
(64,233,o),
(109,183,o),
(180,183,cs)
);
},
{
closed = 1;
nodes = (
(117,196,o),
(77,239,o),
(77,309,cs),
(77,379,o),
(117,423,o),
(181,423,cs),
(243,423,o),
(284,379,o),
(284,310,cs),
(284,240,o),
(244,196,o),
(181,196,cs)
);
}
);
};
color = 6;
layerId = m01;
shapes = (
{
closed = 1;
nodes = (
(88,189,l),
(88,335,ls),
(88,392,o),
(127,426,o),
(184,426,cs),
(237,426,o),
(267,395,o),
(267,330,cs),
(267,189,l),
(291,189,l),
(291,335,ls),
(291,406,o),
(250,448,o),
(183,448,cs),
(127,448,o),
(81,413,o),
(77,359,c),
(88,359,l),
(88,546,l),
(64,546,l),
(64,189,l)
);
}
);
width = 345;
},
{
background = {
shapes = (
{
closed = 1;
nodes = (
(1183,503,ls),
(1183,590,o),
(1127,625,o),
(1054,625,cs),
(1014,625,o),
(967,613,o),
(927,589,c),
(927,490,l),
(959,514,o),
(987,519,o),
(1014,519,cs),
(1042,519,o),
(1067,505,o),
(1067,452,cs),
(1067,326,l),
(1183,326,l),
(1183,326,l)
);
},
{
closed = 1;
nodes = (
(955,714,l),
(839,714,l),
(839,326,l),
(955,326,l),
(955,326,l)
);
},
{
closed = 1;
nodes = (
(287,348,o),
(346,401,o),
(346,486,cs),
(346,567,o),
(292,621,o),
(220,621,cs),
(183,621,o),
(156,607,o),
(149,594,c),
(155,590,l),
(155,714,l),
(59,714,l),
(59,491,ls),
(59,404,o),
(113,348,o),
(203,348,cs)
);
},
{
closed = 1;
nodes = (
(173,429,o),
(154,450,o),
(154,484,cs),
(154,519,o),
(174,540,o),
(203,540,cs),
(232,540,o),
(251,519,o),
(251,484,cs),
(251,450,o),
(232,429,o),
(203,429,cs)
);
}
);
};
color = 6;
layerId = "A1461942-0433-4891-A171-8512F51D8C86";
shapes = (
{
closed = 1;
nodes = (
(155,189,l),
(155,290,ls),
(155,326,o),
(173,349,o),
(206,349,cs),
(237,349,o),
(252,327,o),
(252,288,cs),
(252,189,l),
(368,189,l),
(368,303,ls),
(368,407,o),
(300,453,o),
(230,453,cs),
(183,453,o),
(141,430,o),
(131,404,c),
(155,378,l),
(155,546,l),
(39,546,l),
(39,189,l)
);
}
);
width = 397;
}
);
note = uni144B;
unicode = 5195;
},
{
color = 3;
glyphname = "te-canadian";
lastChange = "2022-05-20 15:03:53 +0000";
layers = (
{
anchors = (
{
name = middle_center_can;
pos = (375,357);
},
{
name = middle_left_can;
pos = (-55,357);
},
{
name = middle_right_can;
pos = (805,357);
},
{
name = top_center_can;
pos = (375,714);
},
{
name = top_left_can;
pos = (88,714);
},
{
name = top_right_can;
pos = (662,714);
}
);
background = {
shapes = (
{
closed = 1;
nodes = (
(1383,-10,o),
(1476,117,o),
(1476,338,cs),
(1476,714,l),
(1450,714,l),
(1450,338,ls),
(1450,136,o),
(1372,15,o),
(1176,15,cs),
(1047,15,o),
(966,70,o),
(929,167,cs),
(910,215,o),
(901,272,o),
(901,339,cs),
(901,714,l),
(875,714,l),
(875,339,ls),
(875,195,o),
(916,89,o),
(1005,33,cs),
(1049,4,o),
(1106,-10,o),
(1175,-10,cs)
);
},
{
closed = 1;
nodes = (
(642,925,l),
(642,430,l),
(650,439,l),
(624,556,o),
(517,640,o),
(375,640,cs),
(196,640,o),
(75,509,o),
(75,314,cs),
(75,118,o),
(194,-11,o),
(375,-11,cs),
(559,-11,o),
(676,118,o),
(676,320,cs),
(676,925,l)
);
},
{
closed = 1;
nodes = (
(544,614,o),
(650,497,o),
(650,314,cs),
(650,129,o),
(546,15,o),
(375,15,cs),
(207,15,o),
(101,132,o),
(101,315,cs),
(101,499,o),
(209,614,o),
(375,614,cs)
);
}
);
};
layerId = m01;
shapes = (
{
closed = 1;
nodes = (
(559,-12,o),
(675,115,o),
(675,329,cs),
(675,714,l),
(649,714,l),
(649,325,ls),
(649,127,o),
(546,14,o),
(375,14,cs),
(207,14,o),
(101,127,o),
(101,324,cs),
(101,714,l),
(75,714,l),
(75,323,ls),
(75,115,o),
(194,-12,o),
(375,-12,cs)
);
}
);
width = 750;
},
{
anchors = (
{
name = middle_center_can;
pos = (412,357);
},
{
name = middle_left_can;
pos = (-102,357);
},
{
name = middle_right_can;
pos = (926,357);
},
{
name = top_center_can;
pos = (412,714);
},
{
name = top_left_can;
pos = (155,714);
},
{
name = top_right_can;
pos = (670,714);
}
);
background = {
shapes = (
{
closed = 1;
nodes = (
(1582,-12,o),
(1678,63,o),
(1719,199,cs),
(1740,266,o),
(1750,347,o),
(1750,442,cs),
(1750,714,l),
(1559,714,l),
(1559,379,ls),
(1559,217,o),
(1510,151,o),
(1404,151,cs),
(1300,151,o),
(1249,219,o),
(1249,379,cs),
(1249,714,l),
(1058,714,l),
(1058,420,ls),
(1058,120,o),
(1176,-12,o),
(1403,-12,cs)
);
},
{
closed = 1;
nodes = (
(532,893,l),
(532,584,l),
(547,594,l),
(535,628,o),
(468,662,o),
(383,662,cs),
(192,662,o),
(58,523,o),
(58,320,cs),
(58,114,o),
(196,-15,o),
(412,-15,cs),
(635,-15,o),
(770,123,o),
(770,341,cs),
(770,893,l)
);
},
{
closed = 1;
nodes = (
(511,498,o),
(577,436,o),
(577,324,cs),
(577,213,o),
(516,149,o),
(414,149,cs),
(313,149,o),
(251,213,o),
(251,324,cs),
(251,436,o),
(317,498,o),
(414,498,cs)
);
}
);
};
layerId = "A1461942-0433-4891-A171-8512F51D8C86";
shapes = (
{
closed = 1;
nodes = (
(633,-15,o),
(766,121,o),
(766,347,cs),
(766,714,l),
(573,714,l),
(573,341,ls),
(573,215,o),
(519,152,o),
(412,152,cs),
(308,152,o),
(251,219,o),
(251,341,cs),
(251,714,l),
(58,714,l),
(58,347,ls),
(58,117,o),
(188,-15,o),
(413,-15,cs)
);
}
);
width = 824;
}
);
metricRight = "=|";
note = uni144C;
unicode = 5196;
},
{
color = 3;
glyphname = "ti-canadian";
lastChange = "2022-05-20 14:19:32 +0000";
layers = (
{
anchors = (
{
name = middle_center_can;
pos = (375,357);
},
{
name = middle_left_can;
pos = (-55,357);
},
{
name = middle_right_can;
pos = (805,357);
},
{
name = top_center_can;
pos = (375,714);
},
{
name = top_left_can;
pos = (88,714);
},
{
name = top_right_can;
pos = (662,714);
}
);
background = {
shapes = (
{
closed = 1;
nodes = (
(101,377,ls),
(101,510,o),
(137,609,o),
(218,662,cs),
(259,688,o),
(311,701,o),
(376,701,cs),
(572,701,o),
(650,580,o),
(650,378,cs),
(650,0,l),
(676,0,l),
(676,378,ls),
(676,599,o),
(583,726,o),
(375,726,cs),
(236,726,o),
(149,668,o),
(107,564,cs),
(86,511,o),
(75,449,o),
(75,377,cs),
(75,0,l),
(101,0,l),
(101,0,l)
);
}
);
};
layerId = m01;
shapes = (
{
closed = 1;
nodes = (
(191,726,o),
(75,599,o),
(75,385,cs),
(75,0,l),
(101,0,l),
(101,389,ls),
(101,587,o),
(204,700,o),
(375,700,cs),
(543,700,o),
(649,587,o),
(649,390,cs),
(649,0,l),
(675,0,l),
(675,391,ls),
(675,599,o),
(556,726,o),
(375,726,cs)
);
}
);
width = 750;
},
{
anchors = (
{
name = middle_center_can;
pos = (412,357);
},
{
name = middle_left_can;
pos = (-102,357);
},
{
name = middle_right_can;
pos = (926,357);
},
{
name = top_center_can;
pos = (412,714);
},
{
name = top_left_can;
pos = (155,714);
},
{
name = top_right_can;
pos = (670,714);
}
);
background = {
shapes = (
{
closed = 1;
nodes = (
(249,335,ls),
(249,495,o),
(300,563,o),
(404,563,cs),
(509,563,o),
(559,497,o),
(559,335,cs),
(559,0,l),
(750,0,l),
(750,272,ls),
(750,461,o),
(713,599,o),
(613,672,cs),
(562,708,o),
(492,726,o),
(403,726,cs),
(176,726,o),
(58,594,o),
(58,294,cs),
(58,0,l),
(249,0,l),
(249,0,l)
);
}
);
};
layerId = "A1461942-0433-4891-A171-8512F51D8C86";
shapes = (
{
closed = 1;
nodes = (
(197,729,o),
(58,595,o),
(58,368,cs),
(58,0,l),
(251,0,l),
(251,373,ls),
(251,495,o),
(314,562,o),
(417,562,cs),
(518,562,o),
(573,495,o),
(573,373,cs),
(573,0,l),
(766,0,l),
(766,367,ls),
(766,595,o),
(637,729,o),
(422,729,cs)
);
}
);
width = 824;
}
);
metricLeft = "te-canadian";
metricRight = "te-canadian";
note = uni144E;
unicode = 5198;
},
{
color = 3;
glyphname = "to-canadian";
lastChange = "2022-05-20 19:21:24 +0000";
layers = (
{
anchors = (
{
name = middle_center_can;
pos = (302,357);
},
{
name = middle_left_can;
pos = (30,357);
},
{
name = middle_right_can;
pos = (699,357);
},
{
name = top_center_can;
pos = (285,714);
},
{
name = top_left_can;
pos = (73,714);
},
{
name = top_right_can;
pos = (556,714);
}
);
background = {
shapes = (
{
closed = 1;
nodes = (
(1061,0,o),
(1179,118,o),
(1179,358,cs),
(1179,598,o),
(1062,714,o),
(799,714,cs),
(660,714,l),
(660,689,l),
(789,689,ls),
(964,689,o),
(1068,641,o),
(1116,542,cs),
(1140,493,o),
(1152,431,o),
(1152,357,cs),
(1152,209,o),
(1107,110,o),
(1000,62,cs),
(947,37,o),
(876,25,o),
(789,25,cs),
(660,25,l),
(660,0,l),
(799,0,l),
(799,0,l)
);
},
{
closed = 1;
nodes = (
(569,576,o),
(442,714,o),
(228,714,cs),
(60,714,l),
(60,689,l),
(232,689,ls),
(430,689,o),
(543,564,o),
(543,358,cs),
(543,154,o),
(430,25,o),
(233,25,cs),
(60,25,l),
(60,0,l),
(234,0,ls),
(442,0,o),
(569,142,o),
(569,357,cs)
);
}
);
};
layerId = m01;
shapes = (
{
closed = 1;
nodes = (
(569,576,o),
(441,714,o),
(225,714,cs),
(60,714,l),
(60,689,l),
(229,689,ls),
(429,689,o),
(543,564,o),
(543,358,cs),
(543,152,o),
(429,25,o),
(230,25,cs),
(60,25,l),
(60,0,l),
(231,0,ls),
(441,0,o),
(569,140,o),
(569,358,cs)
);
}
);
width = 624;
},
{
anchors = (
{
name = middle_center_can;
pos = (248,357);
},
{
name = middle_left_can;
pos = (-16,357);
},
{
name = middle_right_can;
pos = (803,357);
},
{
name = top_center_can;
pos = (314,714);
},
{
name = top_left_can;
pos = (127,714);
},
{
name = top_right_can;
pos = (560,714);
}
);
background = {
shapes = (
{
closed = 1;
nodes = (
(393,0,o),
(528,44,o),
(597,149,cs),
(632,201,o),
(649,270,o),
(649,357,cs),
(649,532,o),
(577,632,o),
(444,679,cs),
(377,702,o),
(296,714,o),
(201,714,cs),
(43,714,l),
(43,558,l),
(199,558,ls),
(360,558,o),
(455,503,o),
(455,357,cs),
(455,260,o),
(413,202,o),
(337,176,cs),
(299,163,o),
(253,156,o),
(199,156,cs),
(43,156,l),
(43,0,l),
(201,0,l),
(201,0,l)
);
}
);
};
layerId = "A1461942-0433-4891-A171-8512F51D8C86";
shapes = (
{
closed = 1;
nodes = (
(643,581,o),
(506,714,o),
(268,714,cs),
(44,714,l),
(44,547,l),
(255,547,ls),
(380,547,o),
(452,481,o),
(452,358,cs),
(452,235,o),
(380,167,o),
(255,167,cs),
(44,167,l),
(44,0,l),
(268,0,ls),
(506,0,o),
(643,135,o),
(643,358,cs)
);
}
);
width = 682;
}
);
note = uni1450;
unicode = 5200;
},
{
color = 3;
glyphname = "ta-canadian";
lastChange = "2022-05-20 19:33:12 +0000";
layers = (
{
anchors = (
{
name = middle_center_can;
pos = (323,357);
},
{
name = middle_left_can;
pos = (-75,357);
},
{
name = middle_right_can;
pos = (594,357);
},
{
name = top_center_can;
pos = (339,714);
},
{
name = top_left_can;
pos = (68,714);
},
{
name = top_right_can;
pos = (551,714);
}
);
background = {
shapes = (
{
closed = 1;
nodes = (
(574,25,l),
(445,25,ls),
(270,25,o),
(166,73,o),
(118,172,cs),
(94,221,o),
(82,283,o),
(82,357,cs),
(82,505,o),
(127,604,o),
(234,653,cs),
(287,677,o),
(358,689,o),
(445,689,cs),
(574,689,l),
(574,714,l),
(435,714,ls),
(172,714,o),
(55,598,o),
(55,358,cs),
(55,118,o),
(173,0,o),
(435,0,cs),
(574,0,l),
(574,0,l)
);
}
);
};
layerId = m01;
shapes = (
{
closed = 1;
nodes = (
(55,140,o),
(183,0,o),
(393,0,cs),
(564,0,l),
(564,25,l),
(394,25,ls),
(195,25,o),
(81,152,o),
(81,358,cs),
(81,564,o),
(195,689,o),
(395,689,cs),
(564,689,l),
(564,714,l),
(399,714,ls),
(183,714,o),
(55,576,o),
(55,358,cs)
);
}
);
width = 624;
},
{
anchors = (
{
name = middle_center_can;
pos = (434,357);
},
{
name = middle_left_can;
pos = (-121,357);
},
{
name = middle_right_can;
pos = (698,357);
},
{
name = top_center_can;
pos = (369,714);
},
{
name = top_left_can;
pos = (122,714);
},
{
name = top_right_can;
pos = (555,714);
}
);
background = {
shapes = (
{
closed = 1;
nodes = (
(655,156,l),
(499,156,ls),
(392,156,o),
(314,180,o),
(274,240,cs),
(253,269,o),
(243,308,o),
(243,357,cs),
(243,500,o),
(335,558,o),
(499,558,cs),
(655,558,l),
(655,714,l),
(497,714,ls),
(308,714,o),
(172,670,o),
(102,566,cs),
(67,514,o),
(49,444,o),
(49,357,cs),
(49,184,o),
(120,82,o),
(254,35,cs),
(321,12,o),
(402,0,o),
(497,0,cs),
(655,0,l),
(655,0,l)
);
}
);
};
layerId = "A1461942-0433-4891-A171-8512F51D8C86";
shapes = (
{
closed = 1;
nodes = (
(39,133,o),
(176,0,o),
(414,0,cs),
(638,0,l),
(638,167,l),
(427,167,ls),
(302,167,o),
(230,233,o),
(230,356,cs),
(230,479,o),
(302,547,o),
(427,547,cs),
(638,547,l),
(638,714,l),
(414,714,ls),
(176,714,o),
(39,579,o),
(39,356,cs)
);
}
);
width = 682;
}
);
metricLeft = "=|theCarrier-canadian";
metricRight = "=|to-canadian";
note = uni1455;
unicode = 5205;
},
{
color = 3;
glyphname = "t-canadian";
lastChange = "2022-05-17 10:14:21 +0000";
layers = (
{
background = {
shapes = (
{
closed = 1;
nodes = (
(145,364,o),
(89,419,o),
(89,528,cs),
(89,638,o),
(145,692,o),
(279,692,c),
(279,714,l),
(134,714,o),
(64,656,o),
(64,528,cs),
(64,400,o),
(134,342,o),
(279,342,c),
(279,364,l),
(279,364,l)
);
}
);
};
layerId = m01;
shapes = (
{
closed = 1;
nodes = (
(319,357,l),
(319,379,l),
(238,379,ls),
(139,379,o),
(87,436,o),
(87,535,cs),
(87,634,o),
(139,692,o),
(238,692,cs),
(319,692,l),
(319,714,l),
(235,714,ls),
(128,714,o),
(64,644,o),
(64,535,cs),
(64,426,o),
(128,357,o),
(238,357,cs)
);
}
);
width = 373;
},
{
background = {
shapes = (
{
closed = 1;
nodes = (
(230,425,o),
(184.167,432.333,o),
(163.5,459,cs),
(153.167,472.333,o),
(148,491.667,o),
(148,517,cs),
(148,567.667,o),
(165.5,590.833,o),
(211.5,599.5,cs),
(234.5,603.833,o),
(266,606,o),
(306,606,c),
(306,714,l),
(176.667,714,o),
(95.5,692.167,o),
(57.5,635.5,cs),
(38.5,607.167,o),
(29,568,o),
(29,518,cs),
(29,370,o),
(112.667,317,o),
(306,317,c),
(306,425,l),
(306,425,l)
);
}
);
};
layerId = "A1461942-0433-4891-A171-8512F51D8C86";
shapes = (
{
closed = 1;
nodes = (
(339,357,l),
(339,460,l),
(235,460,ls),
(184,460,o),
(155,484,o),
(155,535,cs),
(155,585,o),
(184,611,o),
(235,611,cs),
(339,611,l),
(339,714,l),
(227,714,ls),
(108,714,o),
(39,646,o),
(39,535,cs),
(39,423,o),
(108,357,o),
(227,357,cs)
);
}
);
width = 373;
}
);
note = uni1466;
unicode = 5222;
},
{
color = 4;
glyphname = "ke-canadian";
lastChange = "2022-05-20 20:04:47 +0000";
layers = (
{
anchors = (
{
name = middle_center_can;
pos = (329,457);
},
{
name = middle_left_can;
pos = (-56,357);
},
{
name = middle_right_can;
pos = (660,357);
},
{
name = top_center_can;
pos = (297,714);
},
{
name = top_left_can;
pos = (77,714);
},
{
name = top_right_can;
pos = (517,714);
}
);
background = {
shapes = (
{
closed = 1;
nodes = (
(515,470,ls),
(515,633,o),
(432,726,o),
(292,726,cs),
(154,726,o),
(80,632,o),
(80,477,cs),
(80,311,o),
(165,213,o),
(303,213,cs),
(408,213,o),
(468,270,o),
(489,339,c),
(489,0,l),
(515,0,l),
(515,0,l)
);
},
{
closed = 1;
nodes = (
(181,238,o),
(107,323,o),
(107,476,cs),
(107,620,o),
(171,701,o),
(292,701,cs),
(418,701,o),
(489,618,o),
(489,470,cs),
(489,467,ls),
(489,317,o),
(418,238,o),
(302,238,cs)
);
},
{
closed = 1;
nodes = (
(-170,469,ls),
(-170,626,o),
(-261,726,o),
(-403,726,cs),
(-544,726,o),
(-636,626,o),
(-636,470,cs),
(-636,314,o),
(-544,214,o),
(-403,214,cs),
(-280,214,o),
(-204,293,o),
(-190,372,c),
(-196,384,l),
(-196,0,l),
(-170,0,l)
);
},
{
closed = 1;
nodes = (
(-527,239,o),
(-610,325,o),
(-610,470,cs),
(-610,615,o),
(-527,701,o),
(-403,701,cs),
(-279,701,o),
(-196,617,o),
(-196,471,cs),
(-196,325,o),
(-279,239,o),
(-403,239,cs)
);
}
);
};
layerId = m01;
shapes = (
{
closed = 1;
nodes = (
(530,469,ls),
(530,626,o),
(439,726,o),
(297,726,cs),
(156,726,o),
(64,625,o),
(64,472,cs),
(64,321,o),
(158,221,o),
(297,221,cs),
(407,221,o),
(490,286,o),
(510,377,c),
(504,384,l),
(504,0,l),
(530,0,l)
);
},
{
closed = 1;
nodes = (
(172,246,o),
(90,334,o),
(90,474,cs),
(90,612,o),
(170,701,o),
(297,701,cs),
(425,701,o),
(504,614,o),
(504,474,cs),
(504,335,o),
(424,246,o),
(297,246,cs)
);
}
);
width = 605;
},
{
anchors = (
{
name = middle_center_can;
pos = (325,457);
},
{
name = middle_left_can;
pos = (-111,357);
},
{
name = middle_right_can;
pos = (771,357);
},
{
name = top_center_can;
pos = (325,714);
},
{
name = top_left_can;
pos = (134,714);
},
{
name = top_right_can;
pos = (516,714);
}
);
background = {
shapes = (
{
closed = 1;
nodes = (
(420,0,l),
(611,0,l),
(611,443,ls),
(611,618,o),
(503,729,o),
(329,729,cs),
(157,729,o),
(39,620,o),
(39,452,cs),
(39,292,o),
(147,185,o),
(287,185,cs),
(365,185,o),
(429,222,o),
(440,261,c),
(427,395,l),
(402,362,o),
(358,347,o),
(325,347,cs),
(268,347,o),
(228,387,o),
(228,455,cs),
(228,527,o),
(267,567,o),
(324,567,cs),
(381,567,o),
(420,527,o),
(420,457,cs)
);
}
);
};
layerId = "A1461942-0433-4891-A171-8512F51D8C86";
shapes = (
{
closed = 1;
nodes = (
(611,443,ls),
(611,618,o),
(503,729,o),
(329,729,cs),
(157,729,o),
(39,620,o),
(39,452,cs),
(39,292,o),
(147,185,o),
(297,185,cs),
(368,185,o),
(422,213,o),
(432,240,c),
(420,248,l),
(420,0,l),
(611,0,l)
);
},
{
closed = 1;
nodes = (
(268,347,o),
(228,387,o),
(228,457,cs),
(228,527,o),
(265,567,o),
(325,567,cs),
(385,567,o),
(422,527,o),
(422,457,cs),
(422,387,o),
(382,347,o),
(325,347,cs)
);
}
);
width = 669;
}
);
metricRight = "te-canadian";
note = uni146B;
unicode = 5227;
},
{
color = 4;
glyphname = "ki-canadian";
lastChange = "2022-05-20 20:04:59 +0000";
layers = (
{
anchors = (
{
name = middle_center_can;
pos = (340,457);
},
{
name = middle_left_can;
pos = (-55,357);
},
{
name = middle_right_can;
pos = (661,357);
},
{
name = top_center_can;
pos = (308,714);
},
{
name = top_left_can;
pos = (88,714);
},
{
name = top_right_can;
pos = (528,714);
}
);
background = {
shapes = (
{
closed = 1;
nodes = (
(801,339,l),
(824,270,o),
(882,213,o),
(987,213,cs),
(1127,213,o),
(1210,313,o),
(1210,477,cs),
(1210,632,o),
(1136,726,o),
(998,726,cs),
(858,726,o),
(775,633,o),
(775,470,cs),
(775,0,l),
(801,0,l),
(801,0,l)
);
},
{
closed = 1;
nodes = (
(872,238,o),
(801,317,o),
(801,467,cs),
(801,470,ls),
(801,614,o),
(872,701,o),
(998,701,cs),
(1119,701,o),
(1183,620,o),
(1183,476,cs),
(1183,323,o),
(1111,238,o),
(988,238,cs)
);
},
{
closed = 1;
nodes = (
(101,0,l),
(101,384,l),
(95,372,l),
(115,280,o),
(198,214,o),
(308,214,cs),
(449,214,o),
(541,315,o),
(541,470,cs),
(541,625,o),
(449,726,o),
(308,726,cs),
(166,726,o),
(75,626,o),
(75,469,cs),
(75,0,l)
);
},
{
closed = 1;
nodes = (
(181,239,o),
(101,329,o),
(101,471,cs),
(101,613,o),
(180,701,o),
(308,701,cs),
(435,701,o),
(515,612,o),
(515,470,cs),
(515,328,o),
(435,239,o),
(308,239,cs)
);
}
);
};
layerId = m01;
shapes = (
{
closed = 1;
nodes = (
(101,0,l),
(101,384,l),
(95,377,l),
(116,286,o),
(198,221,o),
(308,221,cs),
(447,221,o),
(541,321,o),
(541,474,cs),
(541,625,o),
(449,726,o),
(308,726,cs),
(166,726,o),
(75,626,o),
(75,469,cs),
(75,0,l)
);
},
{
closed = 1;
nodes = (
(181,246,o),
(101,335,o),
(101,474,cs),
(101,614,o),
(180,701,o),
(308,701,cs),
(435,701,o),
(515,612,o),
(515,474,cs),
(515,334,o),
(433,246,o),
(308,246,cs)
);
}
);
width = 605;
},
{
anchors = (
{
name = middle_center_can;
pos = (344,457);
},
{
name = middle_left_can;
pos = (-102,357);
},
{
name = middle_right_can;
pos = (780,357);
},
{
name = top_center_can;
pos = (344,714);
},
{
name = top_left_can;
pos = (154,714);
},
{
name = top_right_can;
pos = (536,714);
}
);
background = {
shapes = (
{
closed = 1;
nodes = (
(1049,217,l),
(1069,208,o),
(1103,200,o),
(1148,200,cs),
(1267,200,o),
(1347,252,o),
(1388,332,cs),
(1408,372,o),
(1418,416,o),
(1418,463,cs),
(1418,582,o),
(1352,726,o),
(1135,726,cs),
(927,726,o),
(858,593,o),
(858,457,cs),
(858,0,l),
(1049,0,l),
(1049,0,l)
);
},
{
closed = 1;
nodes = (
(1090,361,o),
(1067,383,o),
(1057,409,cs),
(1052,422,o),
(1049,433,o),
(1049,443,cs),
(1049,474,ls),
(1049,528,o),
(1076,565,o),
(1136,565,cs),
(1197,565,o),
(1224,526,o),
(1224,465,cs),
(1224,404,o),
(1198,361,o),
(1135,361,cs)
);
},
{
closed = 1;
nodes = (
(249,0,l),
(249,248,l),
(237,240,l),
(247,213,o),
(301,185,o),
(372,185,cs),
(522,185,o),
(630,294,o),
(630,458,cs),
(630,624,o),
(514,729,o),
(348,729,cs),
(174,729,o),
(58,618,o),
(58,443,cs),
(58,0,l)
);
},
{
closed = 1;
nodes = (
(288,349,o),
(249,388,o),
(249,457,cs),
(249,526,o),
(285,565,o),
(344,565,cs),
(403,565,o),
(439,526,o),
(439,457,cs),
(439,388,o),
(400,349,o),
(344,349,cs)
);
}
);
};
layerId = "A1461942-0433-4891-A171-8512F51D8C86";
shapes = (
{
closed = 1;
nodes = (
(249,0,l),
(249,248,l),
(237,240,l),
(247,213,o),
(301,185,o),
(372,185,cs),
(522,185,o),
(630,294,o),
(630,458,cs),
(630,624,o),
(514,729,o),
(348,729,cs),
(174,729,o),
(58,618,o),
(58,443,cs),
(58,0,l)
);
},
{
closed = 1;
nodes = (
(287,347,o),
(247,387,o),
(247,457,cs),
(247,527,o),
(284,567,o),
(344,567,cs),
(404,567,o),
(441,527,o),
(441,457,cs),
(441,387,o),
(401,347,o),
(344,347,cs)
);
}
);
width = 669;
}
);
metricLeft = "te-canadian";
metricRight = "=|ke-canadian";
note = uni146D;
unicode = 5229;
},
{
color = 4;
glyphname = "ko-canadian";
lastChange = "2022-05-20 20:04:59 +0000";
layers = (
{
anchors = (
{
name = middle_center_can;
pos = (329,457);
},
{
name = middle_left_can;
pos = (-56,357);
},
{
name = middle_right_can;
pos = (660,357);
},
{
name = top_center_can;
pos = (297,714);
},
{
name = top_left_can;
pos = (77,714);
},
{
name = top_right_can;
pos = (517,714);
}
);
background = {
shapes = (
{
closed = 1;
nodes = (
(1116,-12,o),
(1199,81,o),
(1199,244,cs),
(1199,714,l),
(1173,714,l),
(1173,375,l),
(1152,446,o),
(1092,501,o),
(987,501,cs),
(849,501,o),
(764,403,o),
(764,237,cs),
(764,82,o),
(838,-12,o),
(976,-12,cs)
);
},
{
closed = 1;
nodes = (
(855,13,o),
(791,94,o),
(791,238,cs),
(791,391,o),
(865,476,o),
(986,476,cs),
(1102,476,o),
(1173,397,o),
(1173,247,cs),
(1173,244,ls),
(1173,96,o),
(1102,13,o),
(976,13,cs)
);
},
{
closed = 1;
nodes = (
(504,714,l),
(504,330,l),
(510,342,l),
(490,434,o),
(407,500,o),
(297,500,cs),
(158,500,o),
(64,399,o),
(64,246,cs),
(64,90,o),
(156,-12,o),
(297,-12,cs),
(439,-12,o),
(530,88,o),
(530,245,cs),
(530,714,l)
);
},
{
closed = 1;
nodes = (
(424,475,o),
(504,385,o),
(504,243,cs),
(504,101,o),
(425,13,o),
(297,13,cs),
(170,13,o),
(90,103,o),
(90,244,cs),
(90,386,o),
(172,475,o),
(297,475,cs)
);
}
);
};
layerId = m01;
shapes = (
{
closed = 1;
nodes = (
(504,714,l),
(504,330,l),
(510,337,l),
(490,428,o),
(407,493,o),
(297,493,cs),
(158,493,o),
(64,391,o),
(64,240,cs),
(64,88,o),
(156,-12,o),
(297,-12,cs),
(439,-12,o),
(530,88,o),
(530,245,cs),
(530,714,l)
);
},
{
closed = 1;
nodes = (
(424,468,o),
(504,379,o),
(504,240,cs),
(504,100,o),
(425,13,o),
(297,13,cs),
(170,13,o),
(90,102,o),
(90,241,cs),
(90,380,o),
(172,468,o),
(297,468,cs)
);
}
);
width = 605;
},
{
anchors = (
{
name = middle_center_can;
pos = (325,254);
},
{
name = middle_left_can;
pos = (-111,357);
},
{
name = middle_right_can;
pos = (771,357);
},
{
name = top_center_can;
pos = (325,714);
},
{
name = top_left_can;
pos = (134,714);
},
{
name = top_right_can;
pos = (516,714);
}
);
background = {
shapes = (
{
closed = 1;
nodes = (
(1230,-12,o),
(1299,121,o),
(1299,257,cs),
(1299,714,l),
(1108,714,l),
(1108,497,l),
(1088,506,o),
(1056,514,o),
(1009,514,cs),
(890,514,o),
(810,462,o),
(770,383,cs),
(749,343,o),
(739,299,o),
(739,251,cs),
(739,132,o),
(805,-12,o),
(1022,-12,cs)
);
},
{
closed = 1;
nodes = (
(960,149,o),
(933,188,o),
(933,249,cs),
(933,310,o),
(959,353,o),
(1022,353,cs),
(1067,353,o),
(1091,331,o),
(1101,306,cs),
(1106,293,o),
(1108,282,o),
(1108,271,cs),
(1108,240,ls),
(1108,186,o),
(1082,149,o),
(1021,149,cs)
);
},
{
closed = 1;
nodes = (
(420,714,l),
(420,466,l),
(432,474,l),
(422,501,o),
(368,529,o),
(300,529,cs),
(147,529,o),
(39,417,o),
(39,254,cs),
(39,89,o),
(150,-15,o),
(323,-15,cs),
(502,-15,o),
(611,96,o),
(611,271,cs),
(611,714,l)
);
},
{
closed = 1;
nodes = (
(381,365,o),
(420,326,o),
(420,257,cs),
(420,188,o),
(384,149,o),
(325,149,cs),
(266,149,o),
(230,188,o),
(230,257,cs),
(230,326,o),
(269,365,o),
(325,365,cs)
);
}
);
};
layerId = "A1461942-0433-4891-A171-8512F51D8C86";
shapes = (
{
closed = 1;
nodes = (
(420,714,l),
(420,466,l),
(432,474,l),
(422,501,o),
(368,529,o),
(300,529,cs),
(147,529,o),
(39,417,o),
(39,254,cs),
(39,89,o),
(150,-15,o),
(323,-15,cs),
(502,-15,o),
(611,96,o),
(611,271,cs),
(611,714,l)
);
},
{
closed = 1;
nodes = (
(382,367,o),
(422,327,o),
(422,257,cs),
(422,187,o),
(385,147,o),
(325,147,cs),
(265,147,o),
(228,187,o),
(228,257,cs),
(228,327,o),
(268,367,o),
(325,367,cs)
);
}
);
width = 669;
}
);
metricLeft = "ke-canadian";
metricRight = "te-canadian";
note = uni146F;
unicode = 5231;
},
{
color = 4;
glyphname = "ka-canadian";
lastChange = "2022-05-20 20:04:59 +0000";
layers = (
{
anchors = (
{
name = middle_center_can;
pos = (340,457);
},
{
name = middle_left_can;
pos = (-55,357);
},
{
name = middle_right_can;
pos = (661,357);
},
{
name = top_center_can;
pos = (308,714);
},
{
name = top_left_can;
pos = (88,714);
},
{
name = top_right_can;
pos = (528,714);
}
);
background = {
shapes = (
{
closed = 1;
nodes = (
(1136,-12,o),
(1210,82,o),
(1210,237,cs),
(1210,401,o),
(1127,501,o),
(987,501,cs),
(882,501,o),
(824,446,o),
(801,375,c),
(801,714,l),
(775,714,l),
(775,244,ls),
(775,81,o),
(858,-12,o),
(998,-12,cs)
);
},
{
closed = 1;
nodes = (
(872,13,o),
(801,100,o),
(801,244,cs),
(801,247,ls),
(801,397,o),
(872,476,o),
(988,476,cs),
(1111,476,o),
(1183,391,o),
(1183,238,cs),
(1183,94,o),
(1119,13,o),
(998,13,cs)
);
},
{
closed = 1;
nodes = (
(449,-12,o),
(541,90,o),
(541,244,cs),
(541,399,o),
(447,500,o),
(308,500,cs),
(198,500,o),
(115,434,o),
(95,342,c),
(101,330,l),
(101,714,l),
(75,714,l),
(75,245,ls),
(75,88,o),
(165,-12,o),
(307,-12,cs)
);
},
{
closed = 1;
nodes = (
(180,13,o),
(101,101,o),
(101,243,cs),
(101,385,o),
(181,475,o),
(308,475,cs),
(433,475,o),
(515,386,o),
(515,244,cs),
(515,103,o),
(435,13,o),
(308,13,cs)
);
}
);
};
layerId = m01;
shapes = (
{
closed = 1;
nodes = (
(449,-12,o),
(541,89,o),
(541,241,cs),
(541,393,o),
(447,493,o),
(308,493,cs),
(198,493,o),
(115,428,o),
(95,337,c),
(101,330,l),
(101,714,l),
(75,714,l),
(75,245,ls),
(75,88,o),
(165,-12,o),
(307,-12,cs)
);
},
{
closed = 1;
nodes = (
(180,13,o),
(101,100,o),
(101,240,cs),
(101,379,o),
(181,468,o),
(308,468,cs),
(433,468,o),
(515,380,o),
(515,241,cs),
(515,102,o),
(435,13,o),
(308,13,cs)
);
}
);
width = 605;
},
{
anchors = (
{
name = middle_center_can;
pos = (344,259);
},
{
name = middle_left_can;
pos = (-102,357);
},
{
name = middle_right_can;
pos = (780,357);
},
{
name = top_center_can;
pos = (344,714);
},
{
name = top_left_can;
pos = (154,714);
},
{
name = top_right_can;
pos = (536,714);
}
);
background = {
shapes = (
{
closed = 1;
nodes = (
(1452,-12,o),
(1518,132,o),
(1518,251,cs),
(1518,347,o),
(1477,430,o),
(1397,478,cs),
(1357,502,o),
(1307,514,o),
(1248,514,cs),
(1203,514,o),
(1169,506,o),
(1149,497,c),
(1149,714,l),
(958,714,l),
(958,257,ls),
(958,121,o),
(1027,-12,o),
(1235,-12,cs)
);
},
{
closed = 1;
nodes = (
(1179,149,o),
(1149,181,o),
(1149,240,cs),
(1149,271,ls),
(1149,292,o),
(1158,320,o),
(1183,339,cs),
(1195,348,o),
(1212,353,o),
(1235,353,cs),
(1298,353,o),
(1324,310,o),
(1324,249,cs),
(1324,188,o),
(1297,149,o),
(1236,149,cs)
);
},
{
closed = 1;
nodes = (
(511,-15,o),
(630,90,o),
(630,259,cs),
(630,420,o),
(522,529,o),
(379,529,cs),
(306,529,o),
(252,501,o),
(237,474,c),
(249,466,l),
(249,714,l),
(58,714,l),
(58,271,ls),
(58,96,o),
(166,-15,o),
(344,-15,cs)
);
},
{
closed = 1;
nodes = (
(285,149,o),
(249,188,o),
(249,257,cs),
(249,326,o),
(288,365,o),
(344,365,cs),
(400,365,o),
(439,326,o),
(439,257,cs),
(439,188,o),
(403,149,o),
(344,149,cs)
);
}
);
};
layerId = "A1461942-0433-4891-A171-8512F51D8C86";
shapes = (
{
closed = 1;
nodes = (
(511,-15,o),
(630,90,o),
(630,259,cs),
(630,420,o),
(522,529,o),
(379,529,cs),
(306,529,o),
(252,501,o),
(237,474,c),
(249,466,l),
(249,714,l),
(58,714,l),
(58,271,ls),
(58,96,o),
(166,-15,o),
(344,-15,cs)
);
},
{
closed = 1;
nodes = (
(284,147,o),
(247,187,o),
(247,257,cs),
(247,327,o),
(287,367,o),
(344,367,cs),
(401,367,o),
(441,327,o),
(441,257,cs),
(441,187,o),
(404,147,o),
(344,147,cs)
);
}
);
width = 669;
}
);
metricLeft = "te-canadian";
metricRight = "=|ke-canadian";
note = uni1472;
unicode = 5234;
},
{
color = 3;
glyphname = "k-canadian";
lastChange = "2022-05-17 10:28:13 +0000";
layers = (
{
background = {
shapes = (
{
closed = 1;
nodes = (
(265,351,o),
(319,407,o),
(319,488,cs),
(319,568,o),
(265,622,o),
(192,622,cs),
(133,622,o),
(87,582,o),
(78,528,c),
(88,516,l),
(88,714,l),
(64,714,l),
(64,487,ls),
(64,403,o),
(117,351,o),
(191,351,cs)
);
},
{
closed = 1;
nodes = (
(125,372,o),
(86,415,o),
(86,487,cs),
(86,556,o),
(130,601,o),
(191,601,cs),
(254,601,o),
(297,556,o),
(297,488,cs),
(297,418,o),
(255,372,o),
(192,372,cs)
);
}
);
};
layerId = m01;
shapes = (
{
closed = 1;
nodes = (
(265,351,o),
(319,407,o),
(319,488,cs),
(319,568,o),
(265,622,o),
(192,622,cs),
(133,622,o),
(87,582,o),
(78,528,c),
(88,516,l),
(88,714,l),
(64,714,l),
(64,487,ls),
(64,403,o),
(117,351,o),
(191,351,cs)
);
},
{
closed = 1;
nodes = (
(126,373,o),
(87,416,o),
(87,487,cs),
(87,555,o),
(131,600,o),
(191,600,cs),
(253,600,o),
(296,555,o),
(296,488,cs),
(296,419,o),
(254,373,o),
(192,373,cs)
);
}
);
width = 373;
},
{
background = {
shapes = (
{
closed = 1;
nodes = (
(275,351,o),
(334,403,o),
(334,487,cs),
(334,568,o),
(280,622,o),
(209,622,cs),
(172,622,o),
(146,608,o),
(138,594,c),
(144,591,l),
(144,714,l),
(49,714,l),
(49,493,ls),
(49,406,o),
(103,351,o),
(191,351,cs)
);
},
{
closed = 1;
nodes = (
(162,432,o),
(143,452,o),
(143,486,cs),
(143,521,o),
(163,541,o),
(191,541,cs),
(220,541,o),
(240,521,o),
(240,486,cs),
(240,452,o),
(221,432,o),
(191,432,cs)
);
}
);
};
layerId = "A1461942-0433-4891-A171-8512F51D8C86";
shapes = (
{
closed = 1;
nodes = (
(277,351,o),
(344,403,o),
(344,487,cs),
(344,568,o),
(288,622,o),
(217,622,cs),
(178,622,o),
(150,604,o),
(141,588,c),
(153,588,l),
(153,714,l),
(39,714,l),
(39,496,ls),
(39,410,o),
(100,351,o),
(197,351,cs)
);
},
{
closed = 1;
nodes = (
(166,437,o),
(147,455,o),
(147,486,cs),
(147,518,o),
(167,536,o),
(193,536,cs),
(220,536,o),
(240,518,o),
(240,486,cs),
(240,455,o),
(220,437,o),
(193,437,cs)
);
}
);
width = 373;
}
);
note = uni1483;
unicode = 5251;
},
{
color = 3;
glyphname = "kw-canadian";
lastChange = "2022-05-17 10:28:20 +0000";
layers = (
{
background = {
shapes = (
{
closed = 1;
nodes = (
(256,351,o),
(309,403,o),
(309,487,cs),
(309,714,l),
(285,714,l),
(285,516,l),
(295,528,l),
(286,582,o),
(240,622,o),
(181,622,cs),
(108,622,o),
(54,568,o),
(54,488,cs),
(54,407,o),
(108,351,o),
(182,351,cs)
);
},
{
closed = 1;
nodes = (
(118,372,o),
(76,418,o),
(76,488,cs),
(76,556,o),
(119,601,o),
(182,601,cs),
(243,601,o),
(287,556,o),
(287,487,cs),
(287,415,o),
(248,372,o),
(181,372,cs)
);
}
);
};
layerId = m01;
shapes = (
{
closed = 1;
nodes = (
(256,351,o),
(309,403,o),
(309,487,cs),
(309,714,l),
(285,714,l),
(285,516,l),
(295,528,l),
(286,582,o),
(240,622,o),
(181,622,cs),
(108,622,o),
(54,568,o),
(54,488,cs),
(54,407,o),
(108,351,o),
(182,351,cs)
);
},
{
closed = 1;
nodes = (
(119,373,o),
(77,419,o),
(77,488,cs),
(77,555,o),
(120,600,o),
(182,600,cs),
(242,600,o),
(286,555,o),
(286,487,cs),
(286,416,o),
(247,373,o),
(181,373,cs)
);
}
);
width = 373;
},
{
background = {
shapes = (
{
closed = 1;
nodes = (
(248,305,o),
(293,338,o),
(313,383,cs),
(322,406,o),
(327,429,o),
(327,453,cs),
(327,714,l),
(217,714,l),
(217,598,l),
(203,602,o),
(187,604,o),
(168,604,cs),
(88,604,o),
(44,572,o),
(24,526,cs),
(14,503,o),
(9,478,o),
(9,453,cs),
(9,405,o),
(28,356,o),
(74,327,cs),
(97,312,o),
(128,305,o),
(168,305,cs)
);
},
{
closed = 1;
nodes = (
(134,396,o),
(114,418,o),
(114,451,cs),
(114,490,o),
(133,511,o),
(166,511,cs),
(199,511,o),
(218,490,o),
(218,451,cs),
(218,418,o),
(199,396,o),
(166,396,cs)
);
}
);
};
layerId = "A1461942-0433-4891-A171-8512F51D8C86";
shapes = (
{
closed = 1;
nodes = (
(273,351,o),
(334,410,o),
(334,496,cs),
(334,714,l),
(220,714,l),
(220,585,l),
(242,585,l),
(233,603,o),
(205,622,o),
(166,622,cs),
(85,622,o),
(29,568,o),
(29,487,cs),
(29,403,o),
(96,351,o),
(176,351,cs)
);
},
{
closed = 1;
nodes = (
(153,437,o),
(133,455,o),
(133,486,cs),
(133,518,o),
(153,536,o),
(180,536,cs),
(206,536,o),
(226,518,o),
(226,486,cs),
(226,455,o),
(207,437,o),
(180,437,cs)
);
}
);
width = 373;
}
);
note = uni1484;
unicode = 5252;
},
{
color = 3;
glyphname = "ce-canadian";
lastChange = "2022-05-20 20:22:30 +0000";
layers = (
{
anchors = (
{
name = middle_center_can;
pos = (329,457);
},
{
name = middle_left_can;
pos = (-66,357);
},
{
name = middle_right_can;
pos = (658,357);
},
{
name = top_center_can;
pos = (297,714);
},
{
name = top_left_can;
pos = (77,714);
},
{
name = top_right_can;
pos = (515,714);
}
);
background = {
shapes = (
{
closed = 1;
nodes = (
(1343,462,ls),
(1343,651,o),
(1262,724,o),
(1108,724,cs),
(954,724,o),
(864,652,o),
(864,460,cs),
(864,410,l),
(890,410,l),
(890,458,ls),
(890,636,o),
(969,699,o),
(1108,699,cs),
(1250,699,o),
(1317,634,o),
(1317,470,cs),
(1317,0,l),
(1343,0,l),
(1343,0,l)
);
},
{
closed = 1;
nodes = (
(530,472,ls),
(530,625,o),
(438,726,o),
(297,726,cs),
(156,726,o),
(64,625,o),
(64,472,cs),
(64,410,l),
(90,410,l),
(90,472,ls),
(90,612,o),
(170,701,o),
(297,701,cs),
(424,701,o),
(504,612,o),
(504,472,cs),
(504,0,l),
(530,0,l)
);
}
);
};
layerId = m01;
shapes = (
{
closed = 1;
nodes = (
(528,0,l),
(528,469,ls),
(528,628,o),
(439,726,o),
(298,726,cs),
(153,726,o),
(64,628,o),
(64,469,cs),
(64,410,l),
(90,410,l),
(90,469,ls),
(90,615,o),
(167,701,o),
(298,701,cs),
(425,701,o),
(502,615,o),
(502,472,cs),
(502,0,l)
);
}
);
width = 603;
},
{
anchors = (
{
name = middle_center_can;
pos = (320,357);
},
{
name = middle_left_can;
pos = (-121,357);
},
{
name = middle_right_can;
pos = (763,357);
},
{
name = top_center_can;
pos = (326,714);
},
{
name = top_left_can;
pos = (135,714);
},
{
name = top_right_can;
pos = (507,714);
}
);
background = {
shapes = (
{
closed = 1;
nodes = (
(1396,413,ls),
(1396,561,o),
(1369,651,o),
(1290,694,cs),
(1250,715,o),
(1193,726,o),
(1120,726,cs),
(975,726,o),
(895,685,o),
(862,593,cs),
(845,547,o),
(837,487,o),
(837,413,cs),
(837,394,l),
(1036,394,l),
(1036,450,ls),
(1036,531,o),
(1059,565,o),
(1120,565,cs),
(1182,565,o),
(1203,531,o),
(1203,450,cs),
(1203,0,l),
(1396,0,l),
(1396,0,l)
);
},
{
closed = 1;
nodes = (
(603,0,l),
(603,440,ls),
(603,626,o),
(498,726,o),
(326,726,cs),
(148,726,o),
(37,618,o),
(37,448,cs),
(37,387,l),
(228,387,l),
(228,448,ls),
(228,522,o),
(260,562,o),
(321,562,cs),
(380,562,o),
(412,523,o),
(412,452,cs),
(412,0,l)
);
}
);
};
layerId = "A1461942-0433-4891-A171-8512F51D8C86";
shapes = (
{
closed = 1;
nodes = (
(603,0,l),
(603,443,ls),
(603,629,o),
(498,729,o),
(326,729,cs),
(148,729,o),
(39,621,o),
(39,441,cs),
(39,390,l),
(230,390,l),
(230,451,ls),
(230,525,o),
(262,563,o),
(321,563,cs),
(378,563,o),
(410,526,o),
(410,450,cs),
(410,0,l)
);
}
);
width = 661;
}
);
metricRight = "te-canadian";
note = uni1489;
unicode = 5257;
},
{
color = 3;
glyphname = "ci-canadian";
lastChange = "2022-05-20 20:15:06 +0000";
layers = (
{
anchors = (
{
name = middle_center_can;
pos = (340,457);
},
{
name = middle_left_can;
pos = (-55,357);
},
{
name = middle_right_can;
pos = (669,357);
},
{
name = top_center_can;
pos = (308,714);
},
{
name = top_left_can;
pos = (88,714);
},
{
name = top_right_can;
pos = (528,714);
}
);
background = {
shapes = (
{
closed = 1;
nodes = (
(801,470,ls),
(801,634,o),
(868,699,o),
(1010,699,cs),
(1149,699,o),
(1228,636,o),
(1228,458,cs),
(1228,410,l),
(1254,410,l),
(1254,460,ls),
(1254,591,o),
(1213,666,o),
(1141,699,cs),
(1104,716,o),
(1061,724,o),
(1010,724,cs),
(856,724,o),
(775,651,o),
(775,462,cs),
(775,0,l),
(801,0,l),
(801,0,l)
);
},
{
closed = 1;
nodes = (
(101,0,l),
(101,472,ls),
(101,615,o),
(178,701,o),
(305,701,cs),
(436,701,o),
(513,615,o),
(513,469,cs),
(513,410,l),
(539,410,l),
(539,469,ls),
(539,628,o),
(450,726,o),
(305,726,cs),
(164,726,o),
(75,628,o),
(75,469,cs),
(75,0,l)
);
}
);
};
layerId = m01;
shapes = (
{
closed = 1;
nodes = (
(101,0,l),
(101,472,ls),
(101,615,o),
(178,701,o),
(309,701,cs),
(439,701,o),
(513,615,o),
(513,469,cs),
(513,410,l),
(539,410,l),
(539,469,ls),
(539,627,o),
(452,726,o),
(309,726,cs),
(164,726,o),
(75,628,o),
(75,469,cs),
(75,0,l)
);
}
);
width = 603;
},
{
anchors = (
{
name = middle_center_can;
pos = (320,357);
},
{
name = middle_left_can;
pos = (-102,357);
},
{
name = middle_right_can;
pos = (782,357);
},
{
name = top_center_can;
pos = (348,714);
},
{
name = top_left_can;
pos = (155,714);
},
{
name = top_right_can;
pos = (527,714);
}
);
layerId = "A1461942-0433-4891-A171-8512F51D8C86";
shapes = (
{
closed = 1;
nodes = (
(251,0,l),
(251,450,ls),
(251,525,o),
(286,563,o),
(344,563,cs),
(400,563,o),
(431,527,o),
(431,454,cs),
(431,390,l),
(622,390,l),
(622,441,ls),
(622,621,o),
(522,729,o),
(348,729,cs),
(166,729,o),
(58,622,o),
(58,441,cs),
(58,0,l)
);
}
);
width = 661;
}
);
metricLeft = "te-canadian";
metricRight = "=|ce-canadian";
note = uni148B;
unicode = 5259;
},
{
color = 3;
glyphname = "co-canadian";
lastChange = "2022-05-20 20:21:52 +0000";
layers = (
{
anchors = (
{
name = middle_center_can;
pos = (329,457);
},
{
name = middle_left_can;
pos = (-66,357);
},
{
name = middle_right_can;
pos = (658,357);
},
{
name = top_center_can;
pos = (296,714);
},
{
name = top_left_can;
pos = (77,714);
},
{
name = top_right_can;
pos = (515,714);
}
);
background = {
shapes = (
{
closed = 1;
nodes = (
(463,-10,o),
(543,63,o),
(543,252,cs),
(543,714,l),
(517,714,l),
(517,244,ls),
(517,80,o),
(450,15,o),
(308,15,cs),
(169,15,o),
(90,78,o),
(90,256,cs),
(90,304,l),
(64,304,l),
(64,254,ls),
(64,62,o),
(154,-10,o),
(308,-10,cs)
);
}
);
};
layerId = m01;
shapes = (
{
closed = 1;
nodes = (
(439,-12,o),
(528,81,o),
(528,247,cs),
(528,714,l),
(502,714,l),
(502,244,ls),
(502,95,o),
(425,13,o),
(298,13,cs),
(164,13,o),
(90,97,o),
(90,247,cs),
(90,304,l),
(64,304,l),
(64,243,ls),
(64,86,o),
(150,-12,o),
(298,-12,cs)
);
}
);
width = 603;
},
{
anchors = (
{
name = middle_center_can;
pos = (320,357);
},
{
name = middle_left_can;
pos = (-121,357);
},
{
name = middle_right_can;
pos = (763,357);
},
{
name = top_center_can;
pos = (326,714);
},
{
name = top_left_can;
pos = (135,714);
},
{
name = top_right_can;
pos = (507,714);
}
);
background = {
shapes = (
{
closed = 1;
nodes = (
(469,-12,o),
(543,29,o),
(575,121,cs),
(590,167,o),
(598,227,o),
(598,301,cs),
(598,714,l),
(405,714,l),
(405,264,ls),
(405,184,o),
(385,149,o),
(322,149,cs),
(262,149,o),
(238,183,o),
(238,264,cs),
(238,320,l),
(39,320,l),
(39,301,ls),
(39,153,o),
(68,63,o),
(151,20,cs),
(192,-1,o),
(249,-12,o),
(322,-12,cs)
);
}
);
};
layerId = "A1461942-0433-4891-A171-8512F51D8C86";
shapes = (
{
closed = 1;
nodes = (
(496,-15,o),
(603,85,o),
(603,271,cs),
(603,714,l),
(410,714,l),
(410,260,ls),
(410,186,o),
(379,151,o),
(321,151,cs),
(260,151,o),
(230,189,o),
(230,273,cs),
(230,324,l),
(39,324,l),
(39,273,ls),
(39,94,o),
(139,-15,o),
(325,-15,cs)
);
}
);
width = 661;
}
);
metricLeft = "ce-canadian";
metricRight = "te-canadian";
note = uni148D;
unicode = 5261;
},
{
color = 3;
glyphname = "ca-canadian";
lastChange = "2022-05-20 20:16:16 +0000";
layers = (
{
anchors = (
{
name = middle_center_can;
pos = (340,457);
},
{
name = middle_left_can;
pos = (-55,357);
},
{
name = middle_right_can;
pos = (669,357);
},
{
name = top_center_can;
pos = (308,714);
},
{
name = top_left_can;
pos = (88,714);
},
{
name = top_right_can;
pos = (528,714);
}
);
background = {
shapes = (
{
closed = 1;
nodes = (
(411,-10,o),
(485,21,o),
(525,98,cs),
(544,137,o),
(554,189,o),
(554,254,cs),
(554,304,l),
(528,304,l),
(528,256,ls),
(528,78,o),
(449,15,o),
(310,15,cs),
(168,15,o),
(101,80,o),
(101,244,cs),
(101,714,l),
(75,714,l),
(75,252,ls),
(75,63,o),
(155,-10,o),
(310,-10,cs)
);
}
);
};
layerId = m01;
shapes = (
{
closed = 1;
nodes = (
(454,-12,o),
(539,83,o),
(539,245,cs),
(539,304,l),
(513,304,l),
(513,247,ls),
(513,95,o),
(440,13,o),
(309,13,cs),
(175,13,o),
(101,97,o),
(101,242,cs),
(101,714,l),
(75,714,l),
(75,245,ls),
(75,81,o),
(164,-12,o),
(309,-12,cs)
);
}
);
width = 603;
},
{
anchors = (
{
name = middle_center_can;
pos = (320,357);
},
{
name = middle_left_can;
pos = (-102,357);
},
{
name = middle_right_can;
pos = (782,357);
},
{
name = top_center_can;
pos = (348,714);
},
{
name = top_left_can;
pos = (155,714);
},
{
name = top_right_can;
pos = (527,714);
}
);
background = {
shapes = (
{
closed = 1;
nodes = (
(511,-15,o),
(630,90,o),
(630,259,cs),
(630,420,o),
(522,529,o),
(379,529,cs),
(306,529,o),
(252,501,o),
(237,474,c),
(249,466,l),
(249,714,l),
(58,714,l),
(58,271,ls),
(58,96,o),
(166,-15,o),
(344,-15,cs)
);
},
{
closed = 1;
nodes = (
(284,147,o),
(247,187,o),
(247,257,cs),
(247,327,o),
(287,367,o),
(344,367,cs),
(401,367,o),
(441,327,o),
(441,257,cs),
(441,187,o),
(404,147,o),
(344,147,cs)
);
}
);
};
layerId = "A1461942-0433-4891-A171-8512F51D8C86";
shapes = (
{
closed = 1;
nodes = (
(518,-15,o),
(622,93,o),
(622,273,cs),
(622,324,l),
(431,324,l),
(431,268,ls),
(431,187,o),
(400,151,o),
(343,151,cs),
(283,151,o),
(251,190,o),
(251,271,cs),
(251,714,l),
(58,714,l),
(58,271,ls),
(58,88,o),
(158,-15,o),
(343,-15,cs)
);
}
);
width = 661;
}
);
metricLeft = "te-canadian";
metricRight = "=|ce-canadian";
note = uni1490;
unicode = 5264;
},
{
color = 3;
glyphname = "c-canadian";
lastChange = "2022-05-17 10:30:43 +0000";
layers = (
{
background = {
shapes = (
{
closed = 1;
nodes = (
(265,351,o),
(319,407,o),
(319,488,cs),
(319,568,o),
(265,622,o),
(192,622,cs),
(133,622,o),
(87,582,o),
(78,528,c),
(88,516,l),
(88,714,l),
(64,714,l),
(64,487,ls),
(64,403,o),
(117,351,o),
(191,351,cs)
);
},
{
closed = 1;
nodes = (
(125,372,o),
(86,415,o),
(86,487,cs),
(86,556,o),
(130,601,o),
(191,601,cs),
(254,601,o),
(297,556,o),
(297,488,cs),
(297,418,o),
(255,372,o),
(192,372,cs)
);
}
);
};
layerId = m01;
shapes = (
{
closed = 1;
nodes = (
(264,351,o),
(319,397,o),
(319,483,cs),
(319,500,l),
(296,500,l),
(296,479,ls),
(296,409,o),
(254,373,o),
(191,373,cs),
(127,373,o),
(88,410,o),
(88,489,cs),
(88,714,l),
(64,714,l),
(64,491,ls),
(64,399,o),
(115,351,o),
(192,351,cs)
);
}
);
width = 373;
},
{
background = {
shapes = (
{
closed = 1;
nodes = (
(300,305,o),
(356,365.667,o),
(356,467,cs),
(356,519,l),
(243,519,l),
(243,483,ls),
(243,441.667,o),
(230.667,413,o),
(196,413,cs),
(161.333,413,o),
(148,441.667,o),
(148,483,cs),
(148,714,l),
(39,714,l),
(39,483,ls),
(39,365.667,o),
(92,305,o),
(196,305,cs)
);
}
);
};
layerId = "A1461942-0433-4891-A171-8512F51D8C86";
shapes = (
{
closed = 1;
nodes = (
(289,351,o),
(348,405,o),
(348,491,cs),
(348,510,l),
(240,510,l),
(240,490,ls),
(240,456,o),
(224,437,o),
(196,437,cs),
(169,437,o),
(155,457,o),
(155,487,cs),
(155,714,l),
(39,714,l),
(39,506,ls),
(39,404,o),
(92,351,o),
(197,351,cs)
);
}
);
width = 377;
}
);
note = uni14A1;
unicode = 5281;
},
{
color = 3;
glyphname = "thSayisi-canadian";
lastChange = "2022-05-17 10:31:16 +0000";
layers = (
{
background = {
shapes = (
{
closed = 1;
nodes = (
(246,351,o),
(290,399,o),
(290,479,cs),
(290,714,l),
(266,714,l),
(266,484,ls),
(266,410,o),
(235,372,o),
(173,372,cs),
(108,372,o),
(77,409,o),
(77,479,cs),
(77,500,l),
(54,500,l),
(54,480,ls),
(54,395,o),
(97,351,o),
(171,351,cs)
);
}
);
};
layerId = m01;
shapes = (
{
closed = 1;
nodes = (
(258,351,o),
(309,399,o),
(309,491,cs),
(309,714,l),
(285,714,l),
(285,489,ls),
(285,410,o),
(246,373,o),
(182,373,cs),
(119,373,o),
(77,409,o),
(77,479,cs),
(77,500,l),
(54,500,l),
(54,483,ls),
(54,397,o),
(109,351,o),
(181,351,cs)
);
}
);
width = 373;
},
{
background = {
shapes = (
{
closed = 1;
nodes = (
(283,305,o),
(336,366,o),
(336,483,cs),
(336,714,l),
(227,714,l),
(227,483,ls),
(227,442,o),
(214,413,o),
(179,413,cs),
(144,413,o),
(132,442,o),
(132,483,cs),
(132,519,l),
(19,519,l),
(19,467,ls),
(19,366,o),
(75,305,o),
(179,305,cs)
);
}
);
};
layerId = "A1461942-0433-4891-A171-8512F51D8C86";
shapes = (
{
closed = 1;
nodes = (
(284,351,o),
(338,404,o),
(338,506,cs),
(338,714,l),
(222,714,l),
(222,490,ls),
(222,457,o),
(208,437,o),
(181,437,cs),
(152,437,o),
(137,456,o),
(137,490,cs),
(137,510,l),
(29,510,l),
(29,491,ls),
(29,405,o),
(87,351,o),
(181,351,cs)
);
}
);
width = 377;
}
);
note = uni14A2;
unicode = 5282;
},
{
color = 4;
glyphname = "me-canadian";
lastChange = "2022-05-20 20:27:45 +0000";
layers = (
{
anchors = (
{
name = middle_center_can;
pos = (236,357);
},
{
name = middle_left_can;
pos = (44,357);
},
{
name = middle_right_can;
pos = (584,357);
},
{
name = top_center_can;
pos = (249,714);
},
{
name = top_left_can;
pos = (57,714);
},
{
name = top_right_can;
pos = (441,714);
}
);
background = {
shapes = (
{
closed = 1;
nodes = (
(454,714,l),
(22,714,l),
(22,689,l),
(428,689,l),
(428,0,l),
(454,0,l),
(454,0,l)
);
}
);
};
layerId = m01;
shapes = (
{
closed = 1;
nodes = (
(454,0,l),
(454,714,l),
(44,714,l),
(44,689,l),
(428,689,l),
(428,0,l)
);
}
);
width = 539;
},
{
anchors = (
{
name = middle_center_can;
pos = (206,357);
},
{
name = middle_left_can;
pos = (39,357);
},
{
name = middle_right_can;
pos = (725,357);
},
{
name = top_center_can;
pos = (307,714);
},
{
name = top_left_can;
pos = (135,714);
},
{
name = top_right_can;
pos = (469,714);
}
);
background = {
shapes = (
{
closed = 1;
nodes = (
(565,714,l),
(34,714,l),
(34,558,l),
(372,558,l),
(372,0,l),
(565,0,l),
(565,0,l)
);
}
);
};
layerId = "A1461942-0433-4891-A171-8512F51D8C86";
shapes = (
{
closed = 1;
nodes = (
(565,0,l),
(565,714,l),
(39,714,l),
(39,547,l),
(372,547,l),
(372,0,l)
);
}
);
width = 629;
}
);
metricRight = "nunavuth-canadian";
note = uni14A3;
unicode = 5283;
},
{
color = 4;
glyphname = "mi-canadian";
lastChange = "2022-05-20 20:30:04 +0000";
layers = (
{
anchors = (
{
name = middle_center_can;
pos = (303,357);
},
{
name = middle_left_can;
pos = (-45,357);
},
{
name = middle_right_can;
pos = (495,357);
},
{
name = top_center_can;
pos = (290,714);
},
{
name = top_left_can;
pos = (98,714);
},
{
name = top_right_can;
pos = (482,714);
}
);
background = {
shapes = (
{
closed = 1;
nodes = (
(111,689,l),
(517,689,l),
(517,714,l),
(85,714,l),
(85,0,l),
(111,0,l),
(111,0,l)
);
}
);
};
layerId = m01;
shapes = (
{
closed = 1;
nodes = (
(111,0,l),
(111,689,l),
(495,689,l),
(495,714,l),
(85,714,l),
(85,0,l)
);
}
);
width = 539;
},
{
anchors = (
{
name = middle_center_can;
pos = (424,357);
},
{
name = middle_left_can;
pos = (-96,357);
},
{
name = middle_right_can;
pos = (590,357);
},
{
name = top_center_can;
pos = (327,714);
},
{
name = top_left_can;
pos = (161,714);
},
{
name = top_right_can;
pos = (494,714);
}
);
background = {
shapes = (
{
closed = 1;
nodes = (
(277,558,l),
(615,558,l),
(615,714,l),
(84,714,l),
(84,0,l),
(277,0,l),
(277,0,l)
);
}
);
};
layerId = "A1461942-0433-4891-A171-8512F51D8C86";
shapes = (
{
closed = 1;
nodes = (
(257,0,l),
(257,547,l),
(590,547,l),
(590,714,l),
(64,714,l),
(64,0,l)
);
}
);
width = 629;
}
);
metricLeft = "nunavuth-canadian";
metricRight = "=|me-canadian";
note = uni14A5;
unicode = 5285;
},
{
color = 4;
glyphname = "mo-canadian";
lastChange = "2022-05-20 20:30:56 +0000";
layers = (
{
anchors = (
{
name = middle_center_can;
pos = (236,357);
},
{
name = middle_left_can;
pos = (44,357);
},
{
name = middle_right_can;
pos = (584,357);
},
{
name = top_center_can;
pos = (249,714);
},
{
name = top_left_can;
pos = (57,714);
},
{
name = top_right_can;
pos = (441,714);
}
);
background = {
shapes = (
{
closed = 1;
nodes = (
(476,714,l),
(450,714,l),
(450,25,l),
(44,25,l),
(44,0,l),
(476,0,l),
(476,0,l)
);
}
);
};
layerId = m01;
shapes = (
{
closed = 1;
nodes = (
(454,0,l),
(454,714,l),
(428,714,l),
(428,25,l),
(44,25,l),
(44,0,l)
);
}
);
width = 539;
},
{
anchors = (
{
name = middle_center_can;
pos = (206,357);
},
{
name = middle_left_can;
pos = (39,357);
},
{
name = middle_right_can;
pos = (725,357);
},
{
name = top_center_can;
pos = (307,714);
},
{
name = top_left_can;
pos = (135,714);
},
{
name = top_right_can;
pos = (469,714);
}
);
background = {
shapes = (
{
closed = 1;
nodes = (
(590,714,l),
(397,714,l),
(397,156,l),
(59,156,l),
(59,0,l),
(590,0,l),
(590,0,l)
);
}
);
};
layerId = "A1461942-0433-4891-A171-8512F51D8C86";
shapes = (
{
closed = 1;
nodes = (
(565,0,l),
(565,714,l),
(372,714,l),
(372,167,l),
(39,167,l),
(39,0,l)
);
}
);
width = 629;
}
);
metricLeft = "me-canadian";
metricRight = "nunavuth-canadian";
note = uni14A7;
unicode = 5287;
},
{
color = 4;
glyphname = "ma-canadian";
lastChange = "2022-05-20 20:36:31 +0000";
layers = (
{
anchors = (
{
name = middle_center_can;
pos = (303,357);
},
{
name = middle_left_can;
pos = (-45,357);
},
{
name = middle_right_can;
pos = (495,357);
},
{
name = top_center_can;
pos = (290,714);
},
{
name = top_left_can;
pos = (98,714);
},
{
name = top_right_can;
pos = (482,714);
}
);
background = {
shapes = (
{
closed = 1;
nodes = (
(517,25,l),
(111,25,l),
(111,714,l),
(85,714,l),
(85,0,l),
(517,0,l),
(517,0,l)
);
}
);
};
layerId = m01;
shapes = (
{
closed = 1;
nodes = (
(495,0,l),
(495,25,l),
(111,25,l),
(111,714,l),
(85,714,l),
(85,0,l)
);
}
);
width = 539;
},
{
anchors = (
{
name = middle_center_can;
pos = (424,357);
},
{
name = middle_left_can;
pos = (-96,357);
},
{
name = middle_right_can;
pos = (590,357);
},
{
name = top_center_can;
pos = (327,714);
},
{
name = top_left_can;
pos = (161,714);
},
{
name = top_right_can;
pos = (493,714);
}
);
background = {
shapes = (
{
closed = 1;
nodes = (
(615,156,l),
(277,156,l),
(277,714,l),
(84,714,l),
(84,0,l),
(615,0,l),
(615,0,l)
);
}
);
};
layerId = "A1461942-0433-4891-A171-8512F51D8C86";
shapes = (
{
closed = 1;
nodes = (
(590,0,l),
(590,167,l),
(257,167,l),
(257,714,l),
(64,714,l),
(64,0,l)
);
}
);
width = 629;
}
);
metricLeft = "nunavuth-canadian";
metricRight = "=|me-canadian";
note = uni14AA;
unicode = 5290;
},
{
color = 3;
glyphname = "m-canadian";
lastChange = "2022-05-17 10:33:17 +0000";
layers = (
{
background = {
shapes = (
{
closed = 1;
nodes = (
(311,364,l),
(88,364,l),
(88,714,l),
(64,714,l),
(64,342,l),
(311,342,l),
(311,342,l)
);
}
);
};
layerId = m01;
shapes = (
{
closed = 1;
nodes = (
(291,379,l),
(88,379,l),
(88,714,l),
(64,714,l),
(64,357,l),
(291,357,l)
);
}
);
width = 345;
},
{
background = {
shapes = (
{
closed = 1;
nodes = (
(335,425,l),
(157,425,l),
(157,714,l),
(39,714,l),
(39,317,l),
(335,317,l),
(335,317,l)
);
}
);
};
layerId = "A1461942-0433-4891-A171-8512F51D8C86";
shapes = (
{
closed = 1;
nodes = (
(321,463,l),
(155,463,l),
(155,714,l),
(39,714,l),
(39,357,l),
(321,357,l)
);
}
);
width = 350;
}
);
note = uni14BB;
unicode = 5307;
},
{
color = 3;
glyphname = "mWestCree-canadian";
lastChange = "2022-05-17 10:33:33 +0000";
layers = (
{
background = {
shapes = (
{
closed = 1;
nodes = (
(335,404,l),
(244,404,ls),
(127,404,o),
(88,457,o),
(88,548,cs),
(88,639,o),
(127,692,o),
(244,692,cs),
(335,692,l),
(335,714,l),
(243,714,ls),
(123,714,o),
(64,659,o),
(64,548,cs),
(64,437,o),
(123,382,o),
(243,382,cs),
(335,382,l),
(335,382,l)
);
}
);
};
layerId = m01;
shapes = (
{
closed = 1;
nodes = (
(319,357,l),
(319,379,l),
(238,379,ls),
(139,379,o),
(87,436,o),
(87,535,cs),
(87,634,o),
(139,692,o),
(238,692,cs),
(319,692,l),
(319,714,l),
(235,714,ls),
(128,714,o),
(64,644,o),
(64,535,cs),
(64,426,o),
(128,357,o),
(238,357,cs)
);
}
);
width = 373;
},
{
background = {
shapes = (
{
closed = 1;
nodes = (
(359,425,l),
(274,425,ls),
(183.016,425,o),
(147,450.979,o),
(147,517,cs),
(147,579.389,o),
(179.604,606,o),
(258,606,cs),
(359,606,l),
(359,714,l),
(265,714,ls),
(103.667,714,o),
(29,655.333,o),
(29,518,cs),
(29,379.333,o),
(105,317,o),
(277,317,cs),
(359,317,l),
(359,317,l)
);
}
);
};
layerId = "A1461942-0433-4891-A171-8512F51D8C86";
shapes = (
{
closed = 1;
nodes = (
(339,357,l),
(339,460,l),
(235,460,ls),
(184,460,o),
(155,484,o),
(155,535,cs),
(155,585,o),
(184,611,o),
(235,611,cs),
(339,611,l),
(339,714,l),
(227,714,ls),
(108,714,o),
(39,646,o),
(39,535,cs),
(39,423,o),
(108,357,o),
(227,357,cs)
);
}
);
width = 373;
}
);
note = uni14BC;
unicode = 5308;
},
{
color = 3;
glyphname = "mh-canadian";
lastChange = "2022-05-17 10:33:43 +0000";
layers = (
{
background = {
shapes = (
{
closed = 1;
nodes = (
(288,714,l),
(264,714,l),
(264,364,l),
(54,364,l),
(54,342,l),
(288,342,l),
(288,342,l)
);
}
);
};
layerId = m01;
shapes = (
{
closed = 1;
nodes = (
(281,357,l),
(281,714,l),
(257,714,l),
(257,379,l),
(54,379,l),
(54,357,l)
);
}
);
width = 345;
},
{
background = {
shapes = (
{
closed = 1;
nodes = (
(315,714,l),
(197,714,l),
(197,425,l),
(19,425,l),
(19,317,l),
(315,317,l),
(315,317,l)
);
}
);
};
layerId = "A1461942-0433-4891-A171-8512F51D8C86";
shapes = (
{
closed = 1;
nodes = (
(311,357,l),
(311,714,l),
(195,714,l),
(195,463,l),
(29,463,l),
(29,357,l)
);
}
);
width = 350;
}
);
note = uni14BD;
unicode = 5309;
},
{
color = 3;
glyphname = "mAthapascan-canadian";
lastChange = "2022-05-17 10:35:11 +0000";
layers = (
{
background = {
shapes = (
{
closed = 1;
nodes = (
(290,376,l),
(77,376,l),
(77,370,l),
(266,536,o),
(285,563,o),
(285,626,cs),
(285,676,o),
(249,726,o),
(171,726,cs),
(95,726,o),
(52,676,o),
(52,599,c),
(65,599,l),
(65,669,o),
(103,714,o),
(171,714,cs),
(243,714,o),
(272,670,o),
(272,627,cs),
(272,567,o),
(256,543,o),
(63,374,c),
(63,363,l),
(290,363,l)
);
}
);
};
layerId = m01;
shapes = (
{
closed = 1;
nodes = (
(319,357,l),
(319,379,l),
(106,379,l),
(106,364,l),
(273,509,o),
(293,557,o),
(293,619,cs),
(293,679,o),
(247,720,o),
(179,720,cs),
(105,720,o),
(60,672,o),
(60,593,c),
(83,593,l),
(83,662,o),
(118,698,o),
(181,698,cs),
(237,698,o),
(270,669,o),
(270,618,cs),
(270,561,o),
(258,525,o),
(77,366,c),
(77,357,l)
);
}
);
width = 374;
},
{
background = {
shapes = (
{
closed = 1;
nodes = (
(326,436,l),
(164,436,l),
(164,413,l),
(282,501,o),
(319,544,o),
(319,605,cs),
(319,675,o),
(265,720,o),
(184,720,cs),
(94,720,o),
(36,665,o),
(34,587,c),
(129,587,l),
(129,619,o),
(149,639,o),
(180,639,cs),
(209,639,o),
(225,625,o),
(225,600,cs),
(225,564,o),
(207,540,o),
(47,423,c),
(47,357,l),
(326,357,l)
);
}
);
};
layerId = "A1461942-0433-4891-A171-8512F51D8C86";
shapes = (
{
closed = 1;
nodes = (
(326,357,l),
(326,446,l),
(170,446,l),
(170,413,l),
(290,501,o),
(319,544,o),
(319,603,cs),
(319,678,o),
(265,720,o),
(182,720,cs),
(94,720,o),
(36,665,o),
(34,587,c),
(139,587,l),
(139,614,o),
(155,634,o),
(178,634,cs),
(202,634,o),
(215,620,o),
(215,598,cs),
(215,564,o),
(203,540,o),
(47,425,c),
(47,357,l)
);
}
);
width = 360;
}
);
note = uni14BE;
unicode = 5310;
},
{
color = 3;
glyphname = "mSayisi-canadian";
lastChange = "2022-05-17 10:35:30 +0000";
layers = (
{
background = {
shapes = (
{
closed = 1;
nodes = (
(551,25,l),
(125,25,l),
(125,14,l),
(503,346,o),
(541,400,o),
(541,526,cs),
(541,626,o),
(469,726,o),
(312,726,cs),
(161,726,o),
(75,625,o),
(75,472,c),
(101,472,l),
(101,612,o),
(176,701,o),
(312,701,cs),
(456,701,o),
(515,614,o),
(515,527,cs),
(515,408,o),
(482,360,o),
(97,21,c),
(97,0,l),
(551,0,l)
);
}
);
};
layerId = m01;
shapes = (
{
closed = 1;
nodes = (
(551,25,l),
(125,25,l),
(125,14,l),
(503,346,o),
(541,408,o),
(541,531,cs),
(541,631,o),
(469,726,o),
(312,726,cs),
(161,726,o),
(75,625,o),
(75,472,c),
(101,472,l),
(101,612,o),
(176,701,o),
(312,701,cs),
(456,701,o),
(515,619,o),
(515,532,cs),
(515,416,o),
(482,360,o),
(97,21,c),
(97,0,l),
(551,0,l)
);
}
);
width = 621;
},
{
background = {
shapes = (
{
closed = 1;
nodes = (
(1421,443,ls),
(1421,618,o),
(1313,729,o),
(1139,729,cs),
(967,729,o),
(849,620,o),
(849,452,cs),
(849,292,o),
(957,185,o),
(1107,185,cs),
(1178,185,o),
(1232,213,o),
(1242,240,c),
(1230,248,l),
(1230,0,l),
(1421,0,l)
);
},
{
closed = 1;
nodes = (
(1078,347,o),
(1038,387,o),
(1038,457,cs),
(1038,527,o),
(1075,567,o),
(1135,567,cs),
(1195,567,o),
(1232,527,o),
(1232,457,cs),
(1232,387,o),
(1192,347,o),
(1135,347,cs)
);
},
{
closed = 1;
nodes = (
(636,159,l),
(291,159,l),
(291,113,l),
(540,236,o),
(621,365,o),
(621,495,cs),
(621,638,o),
(512,729,o),
(350,729,cs),
(170,729,o),
(55,620,o),
(49,466,c),
(238,466,l),
(241,527,o),
(278,567,o),
(343,567,cs),
(401,567,o),
(432,538,o),
(432,480,cs),
(432,385,o),
(337,295,o),
(76,132,c),
(76,0,l),
(636,0,l)
);
}
);
};
layerId = "A1461942-0433-4891-A171-8512F51D8C86";
shapes = (
{
closed = 1;
nodes = (
(636,159,l),
(311,159,l),
(311,113,l),
(547,290,o),
(621,375,o),
(621,498,cs),
(621,638,o),
(512,729,o),
(350,729,cs),
(170,729,o),
(53,619,o),
(49,462,c),
(240,462,l),
(240,527,o),
(280,567,o),
(343,567,cs),
(401,567,o),
(432,538,o),
(432,488,cs),
(432,415,o),
(396,368,o),
(76,132,c),
(76,0,l),
(636,0,l)
);
}
);
width = 680;
}
);
note = uni14BF;
unicode = 5311;
},
{
color = 4;
glyphname = "ne-canadian";
lastChange = "2022-05-23 08:54:19 +0000";
layers = (
{
anchors = (
{
name = middle_center_can;
pos = (560,254);
},
{
name = middle_left_can;
pos = (-70,357);
},
{
name = middle_right_can;
pos = (931,357);
},
{
name = top_center_can;
pos = (554,499);
},
{
name = top_left_can;
pos = (73,499);
},
{
name = top_right_can;
pos = (788,499);
}
);
background = {
shapes = (
{
closed = 1;
nodes = (
(1795,-12,o),
(1903,97,o),
(1903,234,cs),
(1903,373,o),
(1793,481,o),
(1656,481,cs),
(1134,481,l),
(1134,456,l),
(1556,456,l),
(1471,421,o),
(1411,333,o),
(1411,234,cs),
(1411,97,o),
(1519,-12,o),
(1656,-12,cs)
);
},
{
closed = 1;
nodes = (
(1534,13,o),
(1438,110,o),
(1438,234,cs),
(1438,358,o),
(1532,456,o),
(1656,456,cs),
(1781,456,o),
(1876,359,o),
(1876,234,cs),
(1876,110,o),
(1780,13,o),
(1656,13,cs)
);
},
{
closed = 1;
nodes = (
(315,239,ls),
(315,86,o),
(410,-12,o),
(558,-12,cs),
(705,-12,o),
(801,86,o),
(801,234,cs),
(801,381,o),
(703,481,o),
(558,481,cs),
(443,481,o),
(357,418,o),
(336,329,c),
(341,330,l),
(341,714,l),
(315,714,l)
);
},
{
closed = 1;
nodes = (
(689,456,o),
(775,370,o),
(775,235,cs),
(775,100,o),
(691,13,o),
(558,13,cs),
(424,13,o),
(341,98,o),
(341,234,cs),
(341,369,o),
(425,456,o),
(558,456,cs)
);
}
);
};
layerId = m01;
shapes = (
{
closed = 1;
nodes = (
(706,-12,o),
(801,86,o),
(801,235,cs),
(801,381,o),
(707,481,o),
(554,481,cs),
(60,481,l),
(60,456,l),
(477,456,l),
(478,466,l),
(372,436,o),
(319,344,o),
(319,235,cs),
(319,86,o),
(415,-12,o),
(560,-12,cs)
);
},
{
closed = 1;
nodes = (
(427,13,o),
(345,99,o),
(345,235,cs),
(345,371,o),
(427,456,o),
(557,456,cs),
(693,456,o),
(775,370,o),
(775,235,cs),
(775,100,o),
(693,13,o),
(560,13,cs)
);
}
);
width = 865;
},
{
anchors = (
{
name = middle_center_can;
pos = (571,254);
},
{
name = middle_left_can;
pos = (-120,357);
},
{
name = middle_right_can;
pos = (1023,357);
},
{
name = top_center_can;
pos = (552,534);
},
{
name = top_left_can;
pos = (136,534);
},
{
name = top_right_can;
pos = (769,534);
}
);
background = {
shapes = (
{
closed = 1;
nodes = (
(1897,-12,o),
(1963,132,o),
(1963,251,cs),
(1963,370,o),
(1897,514,o),
(1680,514,cs),
(1120,514,l),
(1120,358,l),
(1416,358,l),
(1403,325,o),
(1397,287,o),
(1397,251,cs),
(1397,132,o),
(1463,-12,o),
(1680,-12,cs)
);
},
{
closed = 1;
nodes = (
(1621,149,o),
(1591,190,o),
(1591,251,cs),
(1591,313,o),
(1621,353,o),
(1680,353,cs),
(1741,353,o),
(1769,313,o),
(1769,251,cs),
(1769,190,o),
(1741,149,o),
(1680,149,cs)
);
},
{
closed = 1;
nodes = (
(742,-15,o),
(863,95,o),
(863,250,cs),
(863,417,o),
(746,514,o),
(552,514,cs),
(40,514,l),
(40,350,l),
(361,350,l),
(324,384,l),
(295,345,o),
(281,289,o),
(281,239,cs),
(281,87,o),
(394,-15,o),
(571,-15,cs)
);
},
{
closed = 1;
nodes = (
(504,149,o),
(472,198,o),
(472,249,cs),
(472,300,o),
(504,350,o),
(571,350,cs),
(638,350,o),
(672,300,o),
(672,249,cs),
(672,198,o),
(638,149,o),
(571,149,cs)
);
}
);
};
layerId = "A1461942-0433-4891-A171-8512F51D8C86";
shapes = (
{
closed = 1;
nodes = (
(742,-15,o),
(863,95,o),
(863,250,cs),
(863,417,o),
(746,514,o),
(552,514,cs),
(40,514,l),
(40,347,l),
(361,347,l),
(324,384,l),
(295,345,o),
(281,289,o),
(281,239,cs),
(281,87,o),
(394,-15,o),
(571,-15,cs)
);
},
{
closed = 1;
nodes = (
(503,147,o),
(470,197,o),
(470,249,cs),
(470,301,o),
(503,352,o),
(571,352,cs),
(639,352,o),
(674,301,o),
(674,249,cs),
(674,197,o),
(639,147,o),
(571,147,cs)
);
}
);
width = 902;
}
);
metricRight = "=|ke-canadian";
note = uni14C0;
unicode = 5312;
},
{
color = 4;
glyphname = "ni-canadian";
lastChange = "2022-05-23 08:54:10 +0000";
layers = (
{
anchors = (
{
name = middle_center_can;
pos = (305,254);
},
{
name = middle_left_can;
pos = (-66,357);
},
{
name = middle_right_can;
pos = (935,357);
},
{
name = top_center_can;
pos = (310,499);
},
{
name = top_left_can;
pos = (77,499);
},
{
name = top_right_can;
pos = (792,499);
}
);
background = {
shapes = (
{
closed = 1;
nodes = (
(448,-12,o),
(556,97,o),
(556,234,cs),
(556,343,o),
(485,440,o),
(382,465,c),
(366,456,l),
(833,456,l),
(833,481,l),
(311,481,ls),
(174,481,o),
(64,373,o),
(64,234,cs),
(64,97,o),
(172,-12,o),
(311,-12,cs)
);
},
{
closed = 1;
nodes = (
(187,13,o),
(91,110,o),
(91,234,cs),
(91,358,o),
(187,456,o),
(311,456,cs),
(435,456,o),
(529,358,o),
(529,234,cs),
(529,110,o),
(434,13,o),
(311,13,cs)
);
}
);
};
layerId = m01;
shapes = (
{
closed = 1;
nodes = (
(450,-12,o),
(546,86,o),
(546,235,cs),
(546,344,o),
(491,436,o),
(385,466,c),
(388,456,l),
(805,456,l),
(805,481,l),
(310,481,ls),
(156,481,o),
(64,381,o),
(64,235,cs),
(64,86,o),
(159,-12,o),
(305,-12,cs)
);
},
{
closed = 1;
nodes = (
(172,13,o),
(90,100,o),
(90,235,cs),
(90,370,o),
(172,456,o),
(308,456,cs),
(438,456,o),
(520,371,o),
(520,235,cs),
(520,99,o),
(438,13,o),
(305,13,cs)
);
}
);
width = 865;
},
{
anchors = (
{
name = middle_center_can;
pos = (331,254);
},
{
name = middle_left_can;
pos = (-121,357);
},
{
name = middle_right_can;
pos = (1022,357);
},
{
name = top_center_can;
pos = (355,534);
},
{
name = top_left_can;
pos = (134,534);
},
{
name = top_right_can;
pos = (766,534);
}
);
background = {
shapes = (
{
closed = 1;
nodes = (
(1439,-12,o),
(1505,132,o),
(1505,251,cs),
(1505,287,o),
(1499,325,o),
(1486,358,c),
(1782,358,l),
(1782,514,l),
(1222,514,ls),
(1005,514,o),
(939,370,o),
(939,251,cs),
(939,132,o),
(1005,-12,o),
(1222,-12,cs)
);
},
{
closed = 1;
nodes = (
(1161,149,o),
(1133,190,o),
(1133,251,cs),
(1133,313,o),
(1161,353,o),
(1222,353,cs),
(1281,353,o),
(1311,313,o),
(1311,251,cs),
(1311,190,o),
(1281,149,o),
(1222,149,cs)
);
},
{
closed = 1;
nodes = (
(508,-15,o),
(621,87,o),
(621,239,cs),
(621,289,o),
(607,345,o),
(578,384,c),
(541,350,l),
(862,350,l),
(862,514,l),
(350,514,ls),
(156,514,o),
(39,417,o),
(39,250,cs),
(39,132,o),
(119,-15,o),
(331,-15,cs)
);
},
{
closed = 1;
nodes = (
(264,149,o),
(230,198,o),
(230,249,cs),
(230,300,o),
(264,350,o),
(331,350,cs),
(398,350,o),
(430,300,o),
(430,249,cs),
(430,198,o),
(398,149,o),
(331,149,cs)
);
}
);
};
layerId = "A1461942-0433-4891-A171-8512F51D8C86";
shapes = (
{
closed = 1;
nodes = (
(508,-15,o),
(621,87,o),
(621,243,cs),
(621,293,o),
(607,349,o),
(578,388,c),
(541,347,l),
(862,347,l),
(862,514,l),
(355,514,ls),
(153,514,o),
(39,399,o),
(39,245,cs),
(39,94,o),
(157,-15,o),
(331,-15,cs)
);
},
{
closed = 1;
nodes = (
(263,147,o),
(228,197,o),
(228,249,cs),
(228,301,o),
(263,352,o),
(331,352,cs),
(399,352,o),
(432,301,o),
(432,249,cs),
(432,197,o),
(399,147,o),
(331,147,cs)
);
}
);
width = 902;
}
);
metricLeft = "ke-canadian";
metricRight = "=|ne-canadian";
note = uni14C2;
unicode = 5314;
},
{
color = 4;
glyphname = "no-canadian";
lastChange = "2022-05-23 09:04:08 +0000";
layers = (
{
anchors = (
{
name = middle_center_can;
pos = (560,254);
},
{
name = middle_left_can;
pos = (80,357);
},
{
name = middle_right_can;
pos = (931,357);
},
{
name = top_center_can;
pos = (554,499);
},
{
name = top_left_can;
pos = (73,499);
},
{
name = top_right_can;
pos = (788,499);
}
);
background = {
shapes = (
{
closed = 1;
nodes = (
(719,0,o),
(829,108,o),
(829,247,cs),
(829,384,o),
(721,493,o),
(582,493,cs),
(445,493,o),
(337,384,o),
(337,247,cs),
(337,148,o),
(397,60,o),
(482,25,c),
(60,25,l),
(60,0,l),
(582,0,l),
(582,0,l)
);
},
{
closed = 1;
nodes = (
(458,25,o),
(364,123,o),
(364,247,cs),
(364,371,o),
(460,468,o),
(582,468,cs),
(706,468,o),
(802,371,o),
(802,247,cs),
(802,122,o),
(707,25,o),
(582,25,cs)
);
}
);
};
layerId = m01;
shapes = (
{
closed = 1;
nodes = (
(556,0,ls),
(708,0,o),
(801,100,o),
(801,246,cs),
(801,395,o),
(706,493,o),
(560,493,cs),
(415,493,o),
(319,395,o),
(319,246,cs),
(319,137,o),
(372,45,o),
(476,15,c),
(477,25,l),
(60,25,l),
(60,0,l)
);
},
{
closed = 1;
nodes = (
(427,25,o),
(345,110,o),
(345,246,cs),
(345,382,o),
(427,468,o),
(560,468,cs),
(693,468,o),
(775,381,o),
(775,246,cs),
(775,111,o),
(693,25,o),
(557,25,cs)
);
}
);
width = 865;
},
{
anchors = (
{
name = middle_center_can;
pos = (571,254);
},
{
name = middle_left_can;
pos = (121,357);
},
{
name = middle_right_can;
pos = (1023,357);
},
{
name = top_center_can;
pos = (571,534);
},
{
name = top_left_can;
pos = (136,534);
},
{
name = top_right_can;
pos = (769,534);
}
);
background = {
shapes = (
{
closed = 1;
nodes = (
(817,0,o),
(883,144,o),
(883,263,cs),
(883,382,o),
(817,526,o),
(600,526,cs),
(383,526,o),
(317,382,o),
(317,263,cs),
(317,227,o),
(323,191,o),
(336,156,c),
(40,156,l),
(40,0,l),
(600,0,l),
(600,0,l)
);
},
{
closed = 1;
nodes = (
(541,161,o),
(511,202,o),
(511,263,cs),
(511,325,o),
(541,365,o),
(600,365,cs),
(661,365,o),
(689,325,o),
(689,263,cs),
(689,202,o),
(661,161,o),
(600,161,cs)
);
}
);
};
layerId = "A1461942-0433-4891-A171-8512F51D8C86";
shapes = (
{
closed = 1;
nodes = (
(562,0,ls),
(749,0,o),
(863,103,o),
(863,264,cs),
(863,419,o),
(747,529,o),
(571,529,cs),
(395,529,o),
(281,422,o),
(281,272,cs),
(281,224,o),
(295,169,o),
(326,130,c),
(361,167,l),
(40,167,l),
(40,0,l)
);
},
{
closed = 1;
nodes = (
(503,162,o),
(470,213,o),
(470,265,cs),
(470,317,o),
(503,367,o),
(571,367,cs),
(639,367,o),
(674,317,o),
(674,265,cs),
(674,213,o),
(639,162,o),
(571,162,cs)
);
}
);
width = 902;
}
);
metricLeft = "ne-canadian";
metricRight = "=|ke-canadian";
note = uni14C4;
unicode = 5316;
},
{
color = 4;
glyphname = "na-canadian";
lastChange = "2022-05-23 09:03:46 +0000";
layers = (
{
anchors = (
{
name = middle_center_can;
pos = (305,254);
},
{
name = middle_left_can;
pos = (-66,357);
},
{
name = middle_right_can;
pos = (785,357);
},
{
name = top_center_can;
pos = (310,499);
},
{
name = top_left_can;
pos = (77,499);
},
{
name = top_right_can;
pos = (792,499);
}
);
background = {
shapes = (
{
closed = 1;
nodes = (
(833,25,l),
(411,25,l),
(501,63,o),
(556,151,o),
(556,247,cs),
(556,384,o),
(448,493,o),
(311,493,cs),
(172,493,o),
(64,384,o),
(64,247,cs),
(64,108,o),
(174,0,o),
(311,0,cs),
(833,0,l),
(833,0,l)
);
},
{
closed = 1;
nodes = (
(187,25,o),
(91,123,o),
(91,247,cs),
(91,371,o),
(187,468,o),
(311,468,cs),
(434,468,o),
(529,371,o),
(529,247,cs),
(529,123,o),
(435,25,o),
(311,25,cs)
);
}
);
};
layerId = m01;
shapes = (
{
closed = 1;
nodes = (
(805,0,l),
(805,25,l),
(388,25,l),
(387,15,l),
(491,45,o),
(546,137,o),
(546,246,cs),
(546,395,o),
(450,493,o),
(305,493,cs),
(159,493,o),
(64,395,o),
(64,245,cs),
(64,100,o),
(156,0,o),
(308,0,cs)
);
},
{
closed = 1;
nodes = (
(172,25,o),
(90,111,o),
(90,246,cs),
(90,381,o),
(172,468,o),
(305,468,cs),
(438,468,o),
(520,382,o),
(520,246,cs),
(520,110,o),
(438,25,o),
(308,25,cs)
);
}
);
width = 865;
},
{
anchors = (
{
name = middle_center_can;
pos = (331,254);
},
{
name = middle_left_can;
pos = (-121,357);
},
{
name = middle_right_can;
pos = (781,357);
},
{
name = top_center_can;
pos = (331,534);
},
{
name = top_left_can;
pos = (134,534);
},
{
name = top_right_can;
pos = (766,534);
}
);
background = {
shapes = (
{
closed = 1;
nodes = (
(882,156,l),
(586,156,l),
(600,190,o),
(605,227,o),
(605,263,cs),
(605,382,o),
(539,526,o),
(322,526,cs),
(105,526,o),
(39,382,o),
(39,263,cs),
(39,144,o),
(105,0,o),
(322,0,cs),
(882,0,l),
(882,0,l)
);
},
{
closed = 1;
nodes = (
(261,161,o),
(233,202,o),
(233,263,cs),
(233,325,o),
(261,365,o),
(322,365,cs),
(381,365,o),
(411,325,o),
(411,263,cs),
(411,202,o),
(381,161,o),
(322,161,cs)
);
}
);
};
layerId = "A1461942-0433-4891-A171-8512F51D8C86";
shapes = (
{
closed = 1;
nodes = (
(862,0,l),
(862,168,l),
(541,168,l),
(576,126,l),
(607,165,o),
(621,221,o),
(621,271,cs),
(621,427,o),
(508,529,o),
(331,529,cs),
(157,529,o),
(39,419,o),
(39,263,cs),
(39,111,o),
(150,0,o),
(345,0,cs)
);
},
{
closed = 1;
nodes = (
(263,162,o),
(228,213,o),
(228,265,cs),
(228,317,o),
(263,367,o),
(331,367,cs),
(399,367,o),
(432,317,o),
(432,265,cs),
(432,213,o),
(399,162,o),
(331,162,cs)
);
}
);
width = 902;
}
);
metricLeft = "ke-canadian";
metricRight = "=|ne-canadian";
note = uni14C7;
unicode = 5319;
},
{
color = 3;
glyphname = "n-canadian";
lastChange = "2022-05-17 10:52:40 +0000";
layers = (
{
background = {
shapes = (
{
closed = 1;
nodes = (
(423,449,l),
(423,471,l),
(238,471,l),
(238,461,l),
(287,475,o),
(319,529,o),
(319,586,cs),
(319,666,o),
(265,720,o),
(191,720,cs),
(118,720,o),
(64,666,o),
(64,586,cs),
(64,505,o),
(118,449,o),
(197,449,cs)
);
},
{
closed = 1;
nodes = (
(128,470,o),
(86,516,o),
(86,586,cs),
(86,654,o),
(129,699,o),
(192,699,cs),
(253,699,o),
(297,654,o),
(297,585,cs),
(297,516,o),
(255,470,o),
(191,470,cs)
);
}
);
};
layerId = m01;
shapes = (
{
closed = 1;
nodes = (
(473,449,l),
(473,471,l),
(238,471,l),
(238,461,l),
(287,475,o),
(319,529,o),
(319,586,cs),
(319,666,o),
(265,720,o),
(191,720,cs),
(118,720,o),
(64,666,o),
(64,586,cs),
(64,505,o),
(118,449,o),
(197,449,cs)
);
},
{
closed = 1;
nodes = (
(129,471,o),
(87,517,o),
(87,586,cs),
(87,653,o),
(130,698,o),
(192,698,cs),
(252,698,o),
(296,653,o),
(296,585,cs),
(296,517,o),
(254,471,o),
(191,471,cs)
);
}
);
width = 537;
},
{
background = {
shapes = (
{
closed = 1;
nodes = (
(106,628,o),
(39,582,o),
(39,498,cs),
(39,417,o),
(95,357,o),
(176,357,cs),
(215,357,o),
(243,376,o),
(252,394,c),
(230,394,l),
(230,265,l),
(344,265,l),
(344,483,ls),
(344,569,o),
(283,628,o),
(186,628,cs)
);
},
{
closed = 1;
nodes = (
(217,542,o),
(236,524,o),
(236,493,cs),
(236,461,o),
(216,443,o),
(190,443,cs),
(163,443,o),
(143,461,o),
(143,493,cs),
(143,524,o),
(163,542,o),
(190,542,cs)
);
}
);
};
layerId = "A1461942-0433-4891-A171-8512F51D8C86";
shapes = (
{
closed = 1;
nodes = (
(474,449,l),
(474,552,l),
(300,552,l),
(300,513,l),
(320,524,o),
(340,552,o),
(340,591,cs),
(340,669,o),
(282,720,o),
(190,720,cs),
(100,720,o),
(39,666,o),
(39,584,cs),
(39,504,o),
(95,449,o),
(196,449,cs)
);
},
{
closed = 1;
nodes = (
(163,535,o),
(143,553,o),
(143,584,cs),
(143,616,o),
(163,634,o),
(190,634,cs),
(216,634,o),
(236,616,o),
(236,584,cs),
(236,553,o),
(217,535,o),
(190,535,cs)
);
}
);
width = 508;
}
);
note = uni14D0;
unicode = 5328;
},
{
color = 3;
glyphname = "ngCarrier-canadian";
lastChange = "2022-05-17 10:55:00 +0000";
layers = (
{
background = {
shapes = (
{
closed = 1;
nodes = (
(293,334,o),
(347,389,o),
(347,471,cs),
(347,714,l),
(323,714,l),
(323,471,ls),
(323,400,o),
(285,356,o),
(213,356,cs),
(142,356,o),
(98,400,o),
(98,471,cs),
(98,714,l),
(74,714,l),
(74,471,ls),
(74,389,o),
(135,334,o),
(213,334,cs)
);
}
);
};
color = 6;
layerId = m01;
shapes = (
{
closed = 1;
nodes = (
(306,183,o),
(364,244,o),
(364,351,cs),
(364,546,l),
(340,546,l),
(340,350,ls),
(340,251,o),
(293,205,o),
(214,205,cs),
(136,205,o),
(88,253,o),
(88,349,cs),
(88,546,l),
(64,546,l),
(64,348,ls),
(64,244,o),
(124,183,o),
(214,183,cs)
);
}
);
width = 428;
},
{
background = {
shapes = (
{
closed = 1;
nodes = (
(366.019,312,o),
(436,382.953,o),
(436,567,cs),
(436,714,l),
(318,714,l),
(318,562,ls),
(318,475.675,o),
(301.067,420,o),
(235,420,cs),
(166.498,420,o),
(147,470.289,o),
(147,562,cs),
(147,714,l),
(29,714,l),
(29,567,ls),
(29,443,o),
(55,370.333,o),
(115,337,cs),
(145,320.333,o),
(184.333,312,o),
(233,312,cs)
);
}
);
};
color = 6;
layerId = "A1461942-0433-4891-A171-8512F51D8C86";
shapes = (
{
closed = 1;
nodes = (
(326,183,o),
(392,251,o),
(392,363,cs),
(392,546,l),
(276,546,l),
(276,362,ls),
(276,310,o),
(254,287,o),
(215,287,cs),
(177,287,o),
(155,311,o),
(155,362,cs),
(155,546,l),
(39,546,l),
(39,363,ls),
(39,249,o),
(106,183,o),
(216,183,cs)
);
}
);
width = 431;
}
);
note = uni14D1;
unicode = 5329;
},
{
color = 3;
glyphname = "nh-canadian";
lastChange = "2022-05-17 10:55:07 +0000";
layers = (
{
background = {
shapes = (
{
closed = 1;
nodes = (
(340,449,ls),
(419,449,o),
(473,505,o),
(473,586,cs),
(473,666,o),
(419,720,o),
(346,720,cs),
(272,720,o),
(218,666,o),
(218,586,cs),
(218,529,o),
(250,475,o),
(299,461,c),
(299,471,l),
(114,471,l),
(114,449,l)
);
},
{
closed = 1;
nodes = (
(282,470,o),
(240,516,o),
(240,585,cs),
(240,654,o),
(284,699,o),
(345,699,cs),
(408,699,o),
(451,654,o),
(451,586,cs),
(451,516,o),
(409,470,o),
(346,470,cs)
);
}
);
};
layerId = m01;
shapes = (
{
closed = 1;
nodes = (
(340,449,ls),
(419,449,o),
(473,505,o),
(473,586,cs),
(473,666,o),
(419,720,o),
(346,720,cs),
(272,720,o),
(218,666,o),
(218,586,cs),
(218,529,o),
(250,475,o),
(299,461,c),
(299,471,l),
(64,471,l),
(64,449,l)
);
},
{
closed = 1;
nodes = (
(283,471,o),
(241,517,o),
(241,585,cs),
(241,653,o),
(285,698,o),
(345,698,cs),
(407,698,o),
(450,653,o),
(450,586,cs),
(450,517,o),
(408,471,o),
(346,471,cs)
);
}
);
width = 537;
},
{
background = {
shapes = (
{
closed = 1;
nodes = (
(523,367,o),
(576,405,o),
(601,460,cs),
(614,487,o),
(620,516,o),
(620,545,cs),
(620,602,o),
(595,659,o),
(542,694,cs),
(515,711,o),
(481,720,o),
(438,720,cs),
(353,720,o),
(299,681,o),
(274,629,cs),
(261,602,o),
(255,575,o),
(255,546,cs),
(255,519,o),
(260,499,o),
(271,475,c),
(64,475,l),
(64,367,l),
(438,367,l),
(438,367,l)
);
},
{
closed = 1;
nodes = (
(398,473,o),
(374,501,o),
(374,543,cs),
(374,586,o),
(400,614,o),
(439,614,cs),
(481,614,o),
(502,583,o),
(502,543,cs),
(502,503,o),
(481,473,o),
(439,473,cs)
);
}
);
};
layerId = "A1461942-0433-4891-A171-8512F51D8C86";
shapes = (
{
closed = 1;
nodes = (
(312,449,ls),
(413,449,o),
(469,504,o),
(469,584,cs),
(469,666,o),
(408,720,o),
(318,720,cs),
(226,720,o),
(168,669,o),
(168,591,cs),
(168,552,o),
(188,524,o),
(208,513,c),
(208,552,l),
(34,552,l),
(34,449,l)
);
},
{
closed = 1;
nodes = (
(291,535,o),
(272,553,o),
(272,584,cs),
(272,616,o),
(292,634,o),
(318,634,cs),
(345,634,o),
(365,616,o),
(365,584,cs),
(365,553,o),
(345,535,o),
(318,535,cs)
);
}
);
width = 508;
}
);
note = uni14D2;
unicode = 5330;
},
{
color = 3;
glyphname = "le-canadian";
lastChange = "2022-05-23 08:55:32 +0000";
layers = (
{
anchors = (
{
name = middle_center_can;
pos = (560,254);
},
{
name = middle_left_can;
pos = (-70,357);
},
{
name = middle_right_can;
pos = (931,357);
},
{
name = top_center_can;
pos = (554,499);
},
{
name = top_left_can;
pos = (73,499);
},
{
name = top_right_can;
pos = (788,499);
}
);
background = {
shapes = (
{
closed = 1;
nodes = (
(1782,0,o),
(1891,110,o),
(1891,249,cs),
(1891,388,o),
(1784,500,o),
(1644,500,cs),
(1160,500,l),
(1160,475,l),
(1644,475,ls),
(1769,475,o),
(1864,374,o),
(1864,249,cs),
(1864,124,o),
(1768,25,o),
(1644,25,cs),
(1586,25,l),
(1586,0,l),
(1644,0,l),
(1644,0,l)
);
},
{
closed = 1;
nodes = (
(706,0,o),
(801,98,o),
(801,247,cs),
(801,393,o),
(707,493,o),
(554,493,cs),
(60,493,l),
(60,468,l),
(477,468,l),
(478,478,l),
(372,448,o),
(319,356,o),
(319,247,cs),
(319,98,o),
(415,0,o),
(560,0,cs)
);
},
{
closed = 1;
nodes = (
(427,25,o),
(345,111,o),
(345,247,cs),
(345,383,o),
(427,468,o),
(557,468,cs),
(693,468,o),
(775,382,o),
(775,247,cs),
(775,112,o),
(693,25,o),
(560,25,cs)
);
}
);
};
layerId = m01;
shapes = (
{
closed = 1;
nodes = (
(554,0,ls),
(707,0,o),
(801,98,o),
(801,240,cs),
(801,384,o),
(713,481,o),
(548,481,cs),
(60,481,l),
(60,456,l),
(551,456,ls),
(697,456,o),
(775,372,o),
(775,240,cs),
(775,110,o),
(694,25,o),
(552,25,cs),
(495,25,l),
(495,0,l)
);
}
);
width = 865;
},
{
anchors = (
{
name = middle_center_can;
pos = (571,254);
},
{
name = middle_left_can;
pos = (-120,357);
},
{
name = middle_right_can;
pos = (1023,357);
},
{
name = top_center_can;
pos = (552,534);
},
{
name = top_left_can;
pos = (136,534);
},
{
name = top_right_can;
pos = (769,534);
}
);
background = {
shapes = (
{
closed = 1;
nodes = (
(1976,15,o),
(2075,116,o),
(2075,281,cs),
(2075,389,o),
(2033,464,o),
(1949,504,cs),
(1907,523,o),
(1854,533,o),
(1791,533,cs),
(1240,533,l),
(1240,375,l),
(1796,375,ls),
(1875,375,o),
(1914,344,o),
(1914,277,cs),
(1914,211,o),
(1875,171,o),
(1818,171,cs),
(1666,171,l),
(1666,15,l),
(1814,15,l),
(1814,15,l)
);
},
{
closed = 1;
nodes = (
(742,0,o),
(863,110,o),
(863,265,cs),
(863,432,o),
(746,529,o),
(552,529,cs),
(40,529,l),
(40,365,l),
(361,365,l),
(324,399,l),
(295,360,o),
(281,304,o),
(281,254,cs),
(281,102,o),
(394,0,o),
(571,0,cs)
);
},
{
closed = 1;
nodes = (
(504,164,o),
(472,213,o),
(472,264,cs),
(472,315,o),
(504,365,o),
(571,365,cs),
(638,365,o),
(672,315,o),
(672,264,cs),
(672,213,o),
(638,164,o),
(571,164,cs)
);
}
);
};
layerId = "A1461942-0433-4891-A171-8512F51D8C86";
shapes = (
{
closed = 1;
nodes = (
(562,0,ls),
(744,0,o),
(863,97,o),
(863,257,cs),
(863,417,o),
(756,514,o),
(563,514,cs),
(40,514,l),
(40,347,l),
(563,347,ls),
(630,347,o),
(672,315,o),
(672,257,cs),
(672,199,o),
(626,167,o),
(557,167,cs),
(481,167,l),
(481,0,l)
);
}
);
width = 902;
}
);
metricLeft = "ne-canadian";
metricRight = "=|ke-canadian";
note = uni14D3;
unicode = 5331;
},
{
color = 3;
glyphname = "li-canadian";
lastChange = "2022-05-23 08:55:55 +0000";
layers = (
{
anchors = (
{
name = middle_center_can;
pos = (305,254);
},
{
name = middle_left_can;
pos = (-66,357);
},
{
name = middle_right_can;
pos = (935,357);
},
{
name = top_center_can;
pos = (310,499);
},
{
name = top_left_can;
pos = (77,499);
},
{
name = top_right_can;
pos = (792,499);
}
);
background = {
shapes = (
{
closed = 1;
nodes = (
(1369,25,l),
(1311,25,ls),
(1187,25,o),
(1091,124,o),
(1091,249,cs),
(1091,374,o),
(1187,475,o),
(1311,475,cs),
(1795,475,l),
(1795,500,l),
(1311,500,ls),
(1172,500,o),
(1064,384,o),
(1064,249,cs),
(1064,112,o),
(1172,0,o),
(1311,0,cs),
(1369,0,l),
(1369,0,l)
);
},
{
closed = 1;
nodes = (
(450,-12,o),
(546,86,o),
(546,235,cs),
(546,344,o),
(491,436,o),
(385,466,c),
(388,456,l),
(805,456,l),
(805,481,l),
(310,481,ls),
(156,481,o),
(64,381,o),
(64,235,cs),
(64,86,o),
(159,-12,o),
(305,-12,cs)
);
},
{
closed = 1;
nodes = (
(172,13,o),
(90,100,o),
(90,235,cs),
(90,370,o),
(172,456,o),
(308,456,cs),
(438,456,o),
(520,371,o),
(520,235,cs),
(520,99,o),
(438,13,o),
(305,13,cs)
);
}
);
};
layerId = m01;
shapes = (
{
closed = 1;
nodes = (
(370,0,l),
(370,25,l),
(316,25,ls),
(168,25,o),
(90,110,o),
(90,238,cs),
(90,360,o),
(157,456,o),
(316,456,cs),
(805,456,l),
(805,481,l),
(316,481,ls),
(143,481,o),
(64,373,o),
(64,238,cs),
(64,98,o),
(156,0,o),
(311,0,cs)
);
}
);
width = 865;
},
{
anchors = (
{
name = middle_center_can;
pos = (331,254);
},
{
name = middle_left_can;
pos = (-121,357);
},
{
name = middle_right_can;
pos = (1022,357);
},
{
name = top_center_can;
pos = (355,534);
},
{
name = top_left_can;
pos = (134,534);
},
{
name = top_right_can;
pos = (766,534);
}
);
background = {
shapes = (
{
closed = 1;
nodes = (
(1459,156,l),
(1317,156,ls),
(1253,156,o),
(1210,189,o),
(1210,259,cs),
(1210,331,o),
(1254,361,o),
(1320,361,cs),
(1884,361,l),
(1884,517,l),
(1322,517,ls),
(1133,517,o),
(1049,392,o),
(1049,258,cs),
(1049,129,o),
(1128,0,o),
(1322,0,cs),
(1459,0,l),
(1459,0,l)
);
},
{
closed = 1;
nodes = (
(508,-15,o),
(621,87,o),
(621,243,cs),
(621,293,o),
(607,349,o),
(578,388,c),
(541,347,l),
(862,347,l),
(862,514,l),
(355,514,ls),
(153,514,o),
(39,399,o),
(39,245,cs),
(39,94,o),
(157,-15,o),
(331,-15,cs)
);
},
{
closed = 1;
nodes = (
(264,149,o),
(230,198,o),
(230,249,cs),
(230,300,o),
(264,350,o),
(331,350,cs),
(398,350,o),
(430,300,o),
(430,249,cs),
(430,198,o),
(398,149,o),
(331,149,cs)
);
}
);
};
layerId = "A1461942-0433-4891-A171-8512F51D8C86";
shapes = (
{
closed = 1;
nodes = (
(421,0,l),
(421,167,l),
(342,167,ls),
(271,167,o),
(230,199,o),
(230,257,cs),
(230,313,o),
(268,347,o),
(340,347,cs),
(862,347,l),
(862,514,l),
(339,514,ls),
(156,514,o),
(39,416,o),
(39,254,cs),
(39,96,o),
(157,0,o),
(340,0,cs)
);
}
);
width = 902;
}
);
metricLeft = "ke-canadian";
metricRight = "=|ne-canadian";
note = uni14D5;
unicode = 5333;
},
{
color = 3;
glyphname = "lo-canadian";
lastChange = "2022-05-23 09:01:59 +0000";
layers = (
{
anchors = (
{
name = middle_center_can;
pos = (560,254);
},
{
name = middle_left_can;
pos = (80,357);
},
{
name = middle_right_can;
pos = (931,357);
},
{
name = top_center_can;
pos = (554,499);
},
{
name = top_left_can;
pos = (73,499);
},
{
name = top_right_can;
pos = (788,499);
}
);
background = {
shapes = (
{
closed = 1;
nodes = (
(1583,0,o),
(1691,116,o),
(1691,251,cs),
(1691,388,o),
(1583,500,o),
(1444,500,cs),
(1386,500,l),
(1386,475,l),
(1444,475,ls),
(1568,475,o),
(1664,376,o),
(1664,251,cs),
(1664,126,o),
(1569,25,o),
(1444,25,cs),
(960,25,l),
(960,0,l),
(1444,0,l),
(1444,0,l)
);
},
{
closed = 1;
nodes = (
(556,0,ls),
(708,0,o),
(801,100,o),
(801,246,cs),
(801,395,o),
(706,493,o),
(560,493,cs),
(415,493,o),
(319,395,o),
(319,246,cs),
(319,137,o),
(372,45,o),
(476,15,c),
(477,25,l),
(60,25,l),
(60,0,l)
);
},
{
closed = 1;
nodes = (
(427,25,o),
(345,110,o),
(345,246,cs),
(345,382,o),
(427,468,o),
(560,468,cs),
(693,468,o),
(775,381,o),
(775,246,cs),
(775,111,o),
(693,25,o),
(557,25,cs)
);
}
);
};
layerId = m01;
shapes = (
{
closed = 1;
nodes = (
(545,0,ls),
(711,0,o),
(801,97,o),
(801,241,cs),
(801,383,o),
(709,481,o),
(551,481,cs),
(495,481,l),
(495,456,l),
(550,456,ls),
(696,456,o),
(775,371,o),
(775,241,cs),
(775,109,o),
(696,25,o),
(547,25,cs),
(60,25,l),
(60,0,l)
);
}
);
width = 865;
},
{
anchors = (
{
name = middle_center_can;
pos = (571,254);
},
{
name = middle_left_can;
pos = (121,357);
},
{
name = middle_right_can;
pos = (1023,357);
},
{
name = top_center_can;
pos = (571,534);
},
{
name = top_left_can;
pos = (136,534);
},
{
name = top_right_can;
pos = (769,534);
}
);
background = {
shapes = (
{
closed = 1;
nodes = (
(1791,0,o),
(1875,125,o),
(1875,259,cs),
(1875,388,o),
(1796,517,o),
(1602,517,cs),
(1465,517,l),
(1465,361,l),
(1607,361,ls),
(1671,361,o),
(1714,328,o),
(1714,258,cs),
(1714,187,o),
(1670,156,o),
(1604,156,cs),
(1040,156,l),
(1040,0,l),
(1602,0,l),
(1602,0,l)
);
},
{
closed = 1;
nodes = (
(562,0,ls),
(749,0,o),
(863,103,o),
(863,264,cs),
(863,419,o),
(747,529,o),
(571,529,cs),
(395,529,o),
(281,422,o),
(281,272,cs),
(281,224,o),
(295,169,o),
(326,130,c),
(361,167,l),
(40,167,l),
(40,0,l)
);
},
{
closed = 1;
nodes = (
(504,164,o),
(472,214,o),
(472,265,cs),
(472,316,o),
(504,365,o),
(571,365,cs),
(638,365,o),
(672,316,o),
(672,265,cs),
(672,214,o),
(638,164,o),
(571,164,cs)
);
}
);
};
layerId = "A1461942-0433-4891-A171-8512F51D8C86";
shapes = (
{
closed = 1;
nodes = (
(560,0,ls),
(751,0,o),
(863,97,o),
(863,258,cs),
(863,421,o),
(743,514,o),
(570,514,cs),
(481,514,l),
(481,347,l),
(560,347,ls),
(634,347,o),
(672,316,o),
(672,258,cs),
(672,200,o),
(634,167,o),
(564,167,cs),
(40,167,l),
(40,0,l)
);
}
);
width = 902;
}
);
metricLeft = "ne-canadian";
metricRight = "=|ke-canadian";
note = uni14D7;
unicode = 5335;
},
{
color = 3;
glyphname = "la-canadian";
lastChange = "2022-05-23 09:02:12 +0000";
layers = (
{
anchors = (
{
name = middle_center_can;
pos = (305,254);
},
{
name = middle_left_can;
pos = (-66,357);
},
{
name = middle_right_can;
pos = (785,357);
},
{
name = top_center_can;
pos = (310,499);
},
{
name = top_left_can;
pos = (77,499);
},
{
name = top_right_can;
pos = (792,499);
}
);
background = {
shapes = (
{
closed = 1;
nodes = (
(795,25,l),
(311,25,ls),
(187,25,o),
(91,126,o),
(91,251,cs),
(91,376,o),
(187,475,o),
(311,475,cs),
(369,475,l),
(369,500,l),
(311,500,ls),
(172,500,o),
(64,388,o),
(64,251,cs),
(64,116,o),
(172,0,o),
(311,0,cs),
(795,0,l),
(795,0,l)
);
}
);
};
layerId = m01;
shapes = (
{
closed = 1;
nodes = (
(805,0,l),
(805,25,l),
(323,25,ls),
(173,25,o),
(90,107,o),
(90,242,cs),
(90,372,o),
(166,456,o),
(313,456,cs),
(370,456,l),
(370,481,l),
(316,481,ls),
(151,481,o),
(64,384,o),
(64,242,cs),
(64,94,o),
(157,0,o),
(322,0,cs)
);
}
);
width = 865;
},
{
anchors = (
{
name = middle_center_can;
pos = (331,254);
},
{
name = middle_left_can;
pos = (-121,357);
},
{
name = middle_right_can;
pos = (781,357);
},
{
name = top_center_can;
pos = (331,534);
},
{
name = top_left_can;
pos = (134,534);
},
{
name = top_right_can;
pos = (766,534);
}
);
background = {
shapes = (
{
closed = 1;
nodes = (
(1874,156,l),
(1310,156,ls),
(1244,156,o),
(1200,187,o),
(1200,258,cs),
(1200,326,o),
(1239,361,o),
(1307,361,cs),
(1449,361,l),
(1449,517,l),
(1312,517,ls),
(1118,517,o),
(1039,388,o),
(1039,259,cs),
(1039,125,o),
(1123,0,o),
(1312,0,cs),
(1874,0,l),
(1874,0,l)
);
},
{
closed = 1;
nodes = (
(862,0,l),
(862,168,l),
(541,168,l),
(576,126,l),
(607,165,o),
(621,221,o),
(621,271,cs),
(621,427,o),
(508,529,o),
(331,529,cs),
(157,529,o),
(39,419,o),
(39,263,cs),
(39,111,o),
(150,0,o),
(345,0,cs)
);
},
{
closed = 1;
nodes = (
(264,164,o),
(230,214,o),
(230,265,cs),
(230,316,o),
(264,365,o),
(331,365,cs),
(398,365,o),
(430,316,o),
(430,265,cs),
(430,214,o),
(398,164,o),
(331,164,cs)
);
}
);
};
layerId = "A1461942-0433-4891-A171-8512F51D8C86";
shapes = (
{
closed = 1;
nodes = (
(862,0,l),
(862,167,l),
(340,167,ls),
(264,167,o),
(230,201,o),
(230,256,cs),
(230,315,o),
(270,347,o),
(337,347,cs),
(421,347,l),
(421,514,l),
(335,514,ls),
(155,514,o),
(39,412,o),
(39,255,cs),
(39,96,o),
(152,0,o),
(338,0,cs)
);
}
);
width = 902;
}
);
metricLeft = "ke-canadian";
metricRight = "=|ne-canadian";
note = uni14DA;
unicode = 5338;
},
{
color = 3;
glyphname = "l-canadian";
lastChange = "2022-05-17 11:44:09 +0000";
layers = (
{
background = {
shapes = (
{
closed = 1;
nodes = (
(498,423,l),
(220,423,ls),
(146,423,o),
(88,482,o),
(88,557,cs),
(88,632,o),
(146,691,o),
(221,691,cs),
(245,691,l),
(245,714,l),
(220,714,ls),
(132,714,o),
(64,646,o),
(64,557,cs),
(64,469,o),
(132,401,o),
(220,401,cs),
(498,401,l),
(498,401,l)
);
}
);
};
layerId = m01;
shapes = (
{
closed = 1;
nodes = (
(468,357,l),
(468,379,l),
(248,379,ls),
(139,379,o),
(87,437,o),
(87,536,cs),
(87,635,o),
(139,692,o),
(248,692,cs),
(268,692,l),
(268,714,l),
(248,714,ls),
(128,714,o),
(64,645,o),
(64,536,cs),
(64,427,o),
(128,357,o),
(245,357,cs)
);
}
);
width = 532;
},
{
background = {
shapes = (
{
closed = 1;
nodes = (
(516,469,l),
(211,469,ls),
(171.055,469,o),
(148,494.365,o),
(148,537,cs),
(148,579.936,o),
(171.519,608,o),
(211,608,cs),
(255,608,l),
(255,714,l),
(212,714,ls),
(126.667,714,o),
(73.333,675.333,o),
(48,622,cs),
(35.333,595.333,o),
(29,567.667,o),
(29,539,cs),
(29,480.333,o),
(53.5,421.667,o),
(107.5,387,cs),
(134.5,369.667,o),
(169.333,361,o),
(212,361,cs),
(516,361,l),
(516,361,l)
);
}
);
};
layerId = "A1461942-0433-4891-A171-8512F51D8C86";
shapes = (
{
closed = 1;
nodes = (
(457,357,l),
(457,460,l),
(245,460,ls),
(184,460,o),
(155,486,o),
(155,536,cs),
(155,587,o),
(184,611,o),
(245,611,cs),
(257,611,l),
(257,714,l),
(237,714,ls),
(108,714,o),
(39,648,o),
(39,536,cs),
(39,425,o),
(108,357,o),
(237,357,cs)
);
}
);
width = 491;
}
);
note = uni14EA;
unicode = 5354;
},
{
color = 3;
glyphname = "lWestCree-canadian";
lastChange = "2022-05-17 11:44:38 +0000";
layers = (
{
background = {
shapes = (
{
closed = 1;
nodes = (
(334,369,l),
(334,387,l),
(76,475,l),
(76,455,l),
(334,538,l),
(334,556,l),
(76,640,l),
(76,621,l),
(334,709,l),
(334,726,l),
(325,726,l),
(64,637,l),
(64,623,l),
(323,540,l),
(323,554,l),
(64,472,l),
(64,458,l),
(325,369,l)
);
}
);
};
layerId = m01;
shapes = (
{
closed = 1;
nodes = (
(334,369,l),
(334,386,l),
(86,471,l),
(86,460,l),
(334,539,l),
(334,555,l),
(86,635,l),
(86,624,l),
(334,709,l),
(334,726,l),
(325,726,l),
(64,637,l),
(64,622,l),
(313,542,l),
(313,552,l),
(64,473,l),
(64,458,l),
(325,369,l)
);
}
);
width = 398;
},
{
background = {
shapes = (
{
closed = 1;
nodes = (
(314,372,l),
(314,435,l),
(146,502,l),
(146,467,l),
(314,533,l),
(314,568,l),
(146,636,l),
(146,598,l),
(314,665,l),
(314,729,l),
(293,729,l),
(39,632,l),
(39,605,l),
(217,539,l),
(217,562,l),
(39,496,l),
(39,469,l),
(293,372,l)
);
}
);
};
layerId = "A1461942-0433-4891-A171-8512F51D8C86";
shapes = (
{
closed = 1;
nodes = (
(314,372,l),
(314,445,l),
(146,512,l),
(146,462,l),
(314,528,l),
(314,573,l),
(146,641,l),
(146,588,l),
(314,655,l),
(314,729,l),
(293,729,l),
(39,632,l),
(39,600,l),
(217,534,l),
(217,567,l),
(39,501,l),
(39,469,l),
(293,372,l)
);
}
);
width = 353;
}
);
note = uni14EB;
unicode = 5355;
},
{
color = 3;
glyphname = "mediall-canadian";
lastChange = "2022-05-17 11:45:40 +0000";
layers = (
{
background = {
shapes = (
{
closed = 1;
nodes = (
(1556,13,l),
(1114,179,l),
(1556,344,l),
(1556,370,l),
(1114,535,l),
(1556,701,l),
(1556,726,l),
(1549,726,l),
(1075,547,l),
(1075,523,l),
(1522,357,l),
(1075,191,l),
(1075,167,l),
(1549,-12,l),
(1556,-12,l),
(1556,-12,l)
);
},
{
closed = 1;
nodes = (
(671,347,l),
(671,367,l),
(58,726,l),
(45,726,l),
(45,705,l),
(652,351,l),
(652,362,l),
(45,8,l),
(45,-12,l),
(58,-12,l)
);
}
);
};
guides = (
{
angle = 200.3923;
pos = (671,705);
}
);
layerId = m01;
shapes = (
{
closed = 1;
nodes = (
(634,-12,l),
(634,8,l),
(93,191,l),
(93,175,l),
(634,346,l),
(634,366,l),
(93,539,l),
(93,525,l),
(634,707,l),
(634,726,l),
(621,726,l),
(75,542,l),
(75,522,l),
(616,349,l),
(616,363,l),
(75,192,l),
(75,172,l),
(621,-12,l)
);
}
);
width = 709;
},
{
background = {
shapes = (
{
closed = 1;
nodes = (
(1913,127,l),
(1630,225,l),
(1914,323,l),
(1914,390,l),
(1630,488,l),
(1913,586,l),
(1913,725,l),
(1868,725,l),
(1359,553,l),
(1359,455,l),
(1635,357,l),
(1359,258,l),
(1359,160,l),
(1868,-12,l),
(1913,-12,l),
(1913,-12,l)
);
},
{
closed = 1;
nodes = (
(653,-15,l),
(653,143,l),
(232,374,l),
(232,338,l),
(653,569,l),
(653,729,l),
(608,729,l),
(-12,385,l),
(-12,329,l),
(608,-15,l)
);
}
);
};
guides = (
{
angle = -19.7397;
pos = (334,377);
},
{
angle = 199.7397;
pos = (334,337);
}
);
layerId = "A1461942-0433-4891-A171-8512F51D8C86";
shapes = (
{
closed = 1;
nodes = (
(633,-15,l),
(633,117,l),
(283,256,l),
(283,182,l),
(633,321,l),
(633,393,l),
(283,536,l),
(283,456,l),
(633,596,l),
(633,729,l),
(588,729,l),
(59,527,l),
(59,471,l),
(429,332,l),
(429,382,l),
(59,243,l),
(59,187,l),
(588,-15,l)
);
}
);
width = 692;
}
);
note = uni14EC;
unicode = 5356;
},
{
color = 4;
glyphname = "se-canadian";
lastChange = "2022-05-23 09:18:54 +0000";
layers = (
{
anchors = (
{
name = middle_left_can;
pos = (5,357);
},
{
name = middle_right_can;
pos = (600,357);
},
{
name = top_left_can;
pos = (98,714);
},
{
name = top_right_can;
pos = (457,714);
}
);
background = {
shapes = (
{
closed = 1;
nodes = (
(470,305,l),
(434,305,ls),
(229,305,o),
(111,426,o),
(111,631,cs),
(111,714,l),
(85,714,l),
(85,627,ls),
(85,415,o),
(217,280,o),
(431,280,cs),
(459,280,l),
(444,295,l),
(444,0,l),
(470,0,l)
);
}
);
};
layerId = m01;
shapes = (
{
closed = 1;
nodes = (
(470,305,l),
(434,305,ls),
(229,305,o),
(111,426,o),
(111,631,cs),
(111,714,l),
(85,714,l),
(85,627,ls),
(85,415,o),
(217,280,o),
(431,280,cs),
(459,280,l),
(444,295,l),
(444,0,l),
(470,0,l)
);
}
);
width = 555;
},
{
anchors = (
{
name = middle_left_can;
pos = (-56,357);
},
{
name = middle_right_can;
pos = (725,357);
},
{
name = top_left_can;
pos = (160,714);
},
{
name = top_right_can;
pos = (470,714);
}
);
background = {
shapes = (
{
closed = 1;
nodes = (
(565,388,l),
(517,388,ls),
(338,388,o),
(255,458,o),
(255,646,cs),
(255,714,l),
(64,714,l),
(64,636,ls),
(64,365,o),
(220,221,o),
(476,221,cs),
(519,221,l),
(374,287,l),
(374,0,l),
(565,0,l)
);
}
);
};
layerId = "A1461942-0433-4891-A171-8512F51D8C86";
shapes = (
{
closed = 1;
nodes = (
(565,377,l),
(517,377,ls),
(338,377,o),
(255,447,o),
(255,635,cs),
(255,714,l),
(64,714,l),
(64,623,ls),
(64,353,o),
(220,210,o),
(476,210,cs),
(519,210,l),
(374,266,l),
(374,0,l),
(565,0,l)
);
}
);
width = 629;
}
);
note = uni14ED;
unicode = 5357;
},
{
color = 3;
glyphname = "si-canadian";
lastChange = "2022-05-23 09:19:06 +0000";
layers = (
{
anchors = (
{
name = middle_left_can;
pos = (-45,357);
},
{
name = middle_right_can;
pos = (550,357);
},
{
name = top_left_can;
pos = (98,714);
},
{
name = top_right_can;
pos = (457,714);
}
);
background = {
shapes = (
{
closed = 1;
nodes = (
(121,258,l),
(131,258,ls),
(275,258,o),
(385,304,o),
(445,406,cs),
(474,457,o),
(489,523,o),
(489,604,cs),
(489,714,l),
(463,714,l),
(463,612,ls),
(463,386,o),
(340,283,o),
(123,283,cs),
(95,283,l),
(95,0,l),
(121,0,l),
(121,0,l)
);
}
);
};
layerId = m01;
shapes = (
{
closed = 1;
nodes = (
(111,0,l),
(111,295,l),
(96,280,l),
(124,280,ls),
(338,280,o),
(470,415,o),
(470,627,cs),
(470,714,l),
(444,714,l),
(444,631,ls),
(444,426,o),
(326,305,o),
(121,305,cs),
(85,305,l),
(85,0,l)
);
}
);
width = 555;
},
{
anchors = (
{
name = middle_left_can;
pos = (-96,357);
},
{
name = middle_right_can;
pos = (685,357);
},
{
name = top_left_can;
pos = (160,714);
},
{
name = top_right_can;
pos = (470,714);
}
);
background = {
shapes = (
{
closed = 1;
nodes = (
(266,256,l),
(276,256,ls),
(484,256,o),
(608,392,o),
(608,629,cs),
(608,714,l),
(416,714,l),
(416,647,ls),
(416,514,o),
(379,448,o),
(302,422,cs),
(263,409,o),
(213,402,o),
(152,402,cs),
(74,402,l),
(74,0,l),
(266,0,l),
(266,0,l)
);
}
);
};
layerId = "A1461942-0433-4891-A171-8512F51D8C86";
shapes = (
{
closed = 1;
nodes = (
(255,0,l),
(255,287,l),
(110,221,l),
(153,221,ls),
(409,221,o),
(565,365,o),
(565,636,cs),
(565,714,l),
(374,714,l),
(374,646,ls),
(374,458,o),
(291,388,o),
(112,388,cs),
(64,388,l),
(64,0,l)
);
}
);
width = 629;
}
);
metricLeft = "=|se-canadian";
metricRight = "=|se-canadian";
note = uni14EF;
unicode = 5359;
},
{
color = 3;
glyphname = "so-canadian";
lastChange = "2022-05-23 09:26:03 +0000";
layers = (
{
anchors = (
{
name = middle_left_can;
pos = (10,357);
},
{
name = middle_right_can;
pos = (600,357);
},
{
name = top_left_can;
pos = (98,714);
},
{
name = top_right_can;
pos = (457,714);
}
);
background = {
shapes = (
{
closed = 1;
nodes = (
(111,102,ls),
(111,327,o),
(234,431,o),
(451,431,cs),
(479,431,l),
(479,714,l),
(453,714,l),
(453,456,l),
(443,456,ls),
(300,456,o),
(189,411,o),
(130,309,cs),
(100,258,o),
(85,191,o),
(85,110,cs),
(85,0,l),
(111,0,l),
(111,0,l)
);
}
);
};
layerId = m01;
shapes = (
{
closed = 1;
nodes = (
(111,0,l),
(111,83,ls),
(111,288,o),
(229,409,o),
(434,409,cs),
(470,409,l),
(470,714,l),
(444,714,l),
(444,419,l),
(459,434,l),
(431,434,ls),
(217,434,o),
(85,299,o),
(85,87,cs),
(85,0,l)
);
}
);
width = 555;
},
{
anchors = (
{
name = middle_left_can;
pos = (-56,357);
},
{
name = middle_right_can;
pos = (725,357);
},
{
name = top_left_can;
pos = (160,714);
},
{
name = top_right_can;
pos = (470,714);
}
);
background = {
shapes = (
{
closed = 1;
nodes = (
(256,67,ls),
(256,202,o),
(293,267,o),
(371,293,cs),
(410,306,o),
(459,312,o),
(520,312,cs),
(598,312,l),
(598,714,l),
(406,714,l),
(406,458,l),
(396,458,ls),
(190,458,o),
(64,323,o),
(64,85,cs),
(64,0,l),
(256,0,l),
(256,0,l)
);
}
);
};
layerId = "A1461942-0433-4891-A171-8512F51D8C86";
shapes = (
{
closed = 1;
nodes = (
(255,0,l),
(255,68,ls),
(255,256,o),
(338,326,o),
(517,326,cs),
(565,326,l),
(565,714,l),
(374,714,l),
(374,427,l),
(519,493,l),
(476,493,ls),
(220,493,o),
(64,349,o),
(64,78,cs),
(64,0,l)
);
}
);
width = 629;
}
);
metricLeft = "se-canadian";
metricRight = "se-canadian";
note = uni14F1;
unicode = 5361;
},
{
color = 3;
glyphname = "sa-canadian";
lastChange = "2022-05-23 09:24:05 +0000";
layers = (
{
anchors = (
{
name = middle_left_can;
pos = (-45,357);
},
{
name = middle_right_can;
pos = (545,357);
},
{
name = top_left_can;
pos = (98,714);
},
{
name = top_right_can;
pos = (457,714);
}
);
background = {
shapes = (
{
closed = 1;
nodes = (
(479,110,ls),
(479,273,o),
(417,373,o),
(310,421,cs),
(256,444,o),
(193,456,o),
(121,456,cs),
(111,456,l),
(111,714,l),
(85,714,l),
(85,431,l),
(113,431,ls),
(330,431,o),
(453,328,o),
(453,102,cs),
(453,0,l),
(479,0,l),
(479,0,l)
);
}
);
};
layerId = m01;
shapes = (
{
closed = 1;
nodes = (
(470,0,l),
(470,87,ls),
(470,299,o),
(338,434,o),
(124,434,cs),
(96,434,l),
(111,419,l),
(111,714,l),
(85,714,l),
(85,409,l),
(121,409,ls),
(326,409,o),
(444,288,o),
(444,83,cs),
(444,0,l)
);
}
);
width = 555;
},
{
anchors = (
{
name = middle_left_can;
pos = (-96,357);
},
{
name = middle_right_can;
pos = (685,357);
},
{
name = top_left_can;
pos = (160,714);
},
{
name = top_right_can;
pos = (470,714);
}
);
background = {
shapes = (
{
closed = 1;
nodes = (
(598,85,ls),
(598,322,o),
(474,458,o),
(266,458,cs),
(256,458,l),
(256,714,l),
(64,714,l),
(64,312,l),
(142,312,ls),
(265,312,o),
(341,291,o),
(378,221,cs),
(397,186,o),
(406,134,o),
(406,67,cs),
(406,0,l),
(598,0,l),
(598,0,l)
);
}
);
};
layerId = "A1461942-0433-4891-A171-8512F51D8C86";
shapes = (
{
closed = 1;
nodes = (
(565,0,l),
(565,78,ls),
(565,349,o),
(409,493,o),
(153,493,cs),
(110,493,l),
(255,427,l),
(255,714,l),
(64,714,l),
(64,326,l),
(112,326,ls),
(291,326,o),
(374,256,o),
(374,68,cs),
(374,0,l)
);
}
);
width = 629;
}
);
metricLeft = "=|se-canadian";
metricRight = "=|se-canadian";
note = uni14F4;
unicode = 5364;
},
{
color = 3;
glyphname = "s-canadian";
lastChange = "2022-05-17 11:47:25 +0000";
layers = (
{
background = {
shapes = (
{
closed = 1;
nodes = (
(277,387,ls),
(277,523,o),
(215,586,o),
(64,586,cs),
(58,586,l),
(58,714,l),
(34,714,l),
(34,564,l),
(62,564,ls),
(204,564,o),
(253,507,o),
(253,382,cs),
(253,342,l),
(277,342,l),
(277,342,l)
);
}
);
};
layerId = m01;
shapes = (
{
closed = 1;
nodes = (
(288,357,l),
(288,401,ls),
(288,507,o),
(230,586,o),
(110,586,cs),
(81,586,l),
(88,567,l),
(88,714,l),
(64,714,l),
(64,562,l),
(102,562,ls),
(215,562,o),
(264,501,o),
(264,399,cs),
(264,357,l)
);
}
);
width = 352;
},
{
background = {
shapes = (
{
closed = 1;
nodes = (
(349,405,ls),
(349,539.667,o),
(292.667,599,o),
(162,599,cs),
(147,599,l),
(147,714,l),
(29,714,l),
(29,491,l),
(87,491,ls),
(161.667,491,o),
(201.667,479.333,o),
(219,446,cs),
(227.667,429.333,o),
(232,406,o),
(232,376,cs),
(232,317,l),
(349,317,l),
(349,317,l)
);
}
);
};
layerId = "A1461942-0433-4891-A171-8512F51D8C86";
shapes = (
{
closed = 1;
nodes = (
(330,357,l),
(330,406,ls),
(330,538,o),
(252,614,o),
(134,614,cs),
(82,614,l),
(155,571,l),
(155,714,l),
(39,714,l),
(39,520,l),
(93,520,ls),
(173,520,o),
(214,485,o),
(214,401,cs),
(214,357,l)
);
}
);
width = 369;
}
);
note = uni1505;
unicode = 5381;
},
{
color = 3;
glyphname = "sAthapascan-canadian";
lastChange = "2022-05-17 11:47:45 +0000";
layers = (
{
background = {
shapes = (
{
closed = 1;
nodes = (
(853,351,o),
(899,389,o),
(899,444,cs),
(899,484,o),
(876,509,o),
(834,527,cs),
(754,562,ls),
(716,579,o),
(702,595,o),
(702,627,cs),
(702,670,o),
(735,700,o),
(789,700,cs),
(847,700,o),
(880,670,o),
(878,617,c),
(898,617,l),
(900,679,o),
(857,720,o),
(789,720,cs),
(726,720,o),
(680,682,o),
(680,627,cs),
(680,587,o),
(703,562,o),
(745,544,cs),
(825,509,ls),
(863,492,o),
(877,476,o),
(877,444,cs),
(877,400,o),
(844,370,o),
(790,370,cs),
(732,370,o),
(699,401,o),
(701,454,c),
(681,454,l),
(679,392,o),
(722,351,o),
(790,351,cs)
);
},
{
closed = 1;
nodes = (
(427,449,l),
(427,471,l),
(242,471,l),
(242,461,l),
(291,475,o),
(323,529,o),
(323,586,cs),
(323,666,o),
(269,720,o),
(195,720,cs),
(122,720,o),
(68,666,o),
(68,586,cs),
(68,505,o),
(122,449,o),
(201,449,cs)
);
},
{
closed = 1;
nodes = (
(132,470,o),
(90,516,o),
(90,586,cs),
(90,654,o),
(133,699,o),
(196,699,cs),
(257,699,o),
(301,654,o),
(301,585,cs),
(301,516,o),
(259,470,o),
(195,470,cs)
);
}
);
};
color = 6;
layerId = m01;
shapes = (
{
closed = 1;
nodes = (
(268,183,o),
(316,221,o),
(316,275,cs),
(316,316,o),
(294,343,o),
(243,361,cs),
(154,392,ls),
(111,407,o),
(93,427,o),
(93,458,cs),
(93,502,o),
(130,532,o),
(194,532,cs),
(258,532,o),
(294,502,o),
(296,449,c),
(318,449,l),
(316,511,o),
(269,552,o),
(193,552,cs),
(121,552,o),
(71,513,o),
(71,459,cs),
(71,419,o),
(96,390,o),
(144,373,cs),
(233,342,ls),
(277,327,o),
(295,308,o),
(295,276,cs),
(295,231,o),
(255,202,o),
(191,202,cs),
(125,202,o),
(89,231,o),
(86,290,c),
(64,290,l),
(67,222,o),
(111,183,o),
(191,183,cs)
);
}
);
width = 382;
},
{
background = {
shapes = (
{
closed = 1;
nodes = (
(430,351,l),
(430,454,l),
(306,454,l),
(306,415,l),
(326,426,o),
(346,454,o),
(346,493,cs),
(346,571,o),
(288,622,o),
(196,622,cs),
(106,622,o),
(45,568,o),
(45,486,cs),
(45,406,o),
(101,351,o),
(202,351,cs)
);
},
{
closed = 1;
nodes = (
(169,437,o),
(149,455,o),
(149,486,cs),
(149,518,o),
(169,536,o),
(196,536,cs),
(222,536,o),
(242,518,o),
(242,486,cs),
(242,455,o),
(223,437,o),
(196,437,cs)
);
}
);
};
color = 6;
layerId = "A1461942-0433-4891-A171-8512F51D8C86";
shapes = (
{
closed = 1;
nodes = (
(288,183,o),
(347,232,o),
(347,294,cs),
(347,341,o),
(323,376,o),
(265,392,cs),
(173,418,ls),
(155,423,o),
(151,432,o),
(151,441,cs),
(151,454,o),
(163,466,o),
(192,466,cs),
(222,466,o),
(239,454,o),
(239,427,c),
(347,427,l),
(345,508,o),
(286,552,o),
(194,552,cs),
(105,552,o),
(45,507,o),
(45,440,cs),
(45,393,o),
(74,356,o),
(127,341,cs),
(219,315,ls),
(237,310,o),
(241,303,o),
(241,294,cs),
(241,280,o),
(227,269,o),
(201,269,cs),
(166,269,o),
(149,281,o),
(147,308,c),
(39,308,l),
(42,227,o),
(101,183,o),
(198,183,cs)
);
}
);
width = 386;
}
);
note = uni1506;
unicode = 5382;
},
{
color = 3;
glyphname = "sw-canadian";
lastChange = "2022-05-17 11:49:09 +0000";
layers = (
{
background = {
shapes = (
{
closed = 1;
nodes = (
(88,382,ls),
(88,507,o),
(138,564,o),
(279,564,cs),
(307,564,l),
(307,714,l),
(283,714,l),
(283,586,l),
(277,586,ls),
(128,586,o),
(64,523,o),
(64,387,cs),
(64,342,l),
(88,342,l),
(88,342,l)
);
}
);
};
layerId = m01;
shapes = (
{
closed = 1;
nodes = (
(88,357,l),
(88,399,ls),
(88,501,o),
(137,562,o),
(250,562,cs),
(288,562,l),
(288,714,l),
(264,714,l),
(264,567,l),
(271,586,l),
(242,586,ls),
(122,586,o),
(64,507,o),
(64,401,cs),
(64,357,l)
);
}
);
width = 352;
},
{
background = {
shapes = (
{
closed = 1;
nodes = (
(146,376,ls),
(146,436,o),
(161.333,467.667,o),
(204,481,cs),
(225.333,487.667,o),
(254.333,491,o),
(291,491,cs),
(349,491,l),
(349,714,l),
(231,714,l),
(231,599,l),
(216,599,ls),
(86.667,599,o),
(29,539.667,o),
(29,405,cs),
(29,317,l),
(146,317,l),
(146,317,l)
);
}
);
};
layerId = "A1461942-0433-4891-A171-8512F51D8C86";
shapes = (
{
closed = 1;
nodes = (
(155,357,l),
(155,401,ls),
(155,485,o),
(196,520,o),
(276,520,cs),
(330,520,l),
(330,714,l),
(214,714,l),
(214,571,l),
(267,614,l),
(235,614,ls),
(117,614,o),
(39,538,o),
(39,406,cs),
(39,357,l)
);
}
);
width = 369;
}
);
note = uni1507;
unicode = 5383;
},
{
color = 3;
glyphname = "sBlackfoot-canadian";
lastChange = "2022-05-17 11:49:35 +0000";
layers = (
{
background = {
shapes = (
{
closed = 1;
nodes = (
(404,364,l),
(238,364,ls),
(112,364,o),
(88,446,o),
(88,513,cs),
(88,702,l),
(64,702,l),
(64,515,ls),
(64,400,o),
(123,342,o),
(238,342,cs),
(404,342,l),
(404,342,l)
);
}
);
};
layerId = m01;
shapes = (
{
closed = 1;
nodes = (
(298,357,l),
(298,379,l),
(201,379,ls),
(126,379,o),
(88,415,o),
(88,495,cs),
(88,714,l),
(64,714,l),
(64,497,ls),
(64,405,o),
(112,357,o),
(204,357,c)
);
}
);
width = 347;
},
{
background = {
shapes = (
{
closed = 1;
nodes = (
(417,426,l),
(293,426,ls),
(191.409,426,o),
(148,441.426,o),
(148,562,cs),
(148,702,l),
(29,702,l),
(29,526,ls),
(29,383.333,o),
(99.333,317,o),
(214,317,cs),
(417,317,l),
(417,317,l)
);
}
);
};
layerId = "A1461942-0433-4891-A171-8512F51D8C86";
shapes = (
{
closed = 1;
nodes = (
(340,357,l),
(340,460,l),
(220,460,ls),
(179,460,o),
(155,483,o),
(155,523,cs),
(155,714,l),
(39,714,l),
(39,524,ls),
(39,419,o),
(103,357,o),
(209,357,c)
);
}
);
width = 374;
}
);
note = uni1508;
unicode = 5384;
},
{
color = 3;
glyphname = "moosecreesk-canadian";
lastChange = "2022-05-19 10:24:25 +0000";
layers = (
{
background = {
shapes = (
{
closed = 1;
nodes = (
(266,215,o),
(319,274,o),
(319,354,cs),
(319,507,o),
(261,586,o),
(136,586,cs),
(81,586,l),
(88,567,l),
(88,714,l),
(64,714,l),
(64,562,l),
(128,562,ls),
(244,562,o),
(286,501,o),
(291,404,c),
(305,392,l),
(296,446,o),
(250,486,o),
(191,486,cs),
(118,486,o),
(64,432,o),
(64,352,cs),
(64,271,o),
(118,215,o),
(192,215,cs)
);
},
{
closed = 1;
nodes = (
(128,236,o),
(86,282,o),
(86,352,cs),
(86,420,o),
(129,465,o),
(192,465,cs),
(253,465,o),
(297,420,o),
(297,351,cs),
(297,286,o),
(258,236,o),
(191,236,cs)
);
}
);
};
layerId = m01;
shapes = (
{
closed = 1;
nodes = (
(266,225,o),
(319,284,o),
(319,364,cs),
(319,507,o),
(260,586,o),
(127,586,cs),
(81,586,l),
(88,567,l),
(88,714,l),
(64,714,l),
(64,562,l),
(130,562,ls),
(244,562,o),
(284,501,o),
(291,414,c),
(305,402,l),
(296,456,o),
(250,496,o),
(191,496,cs),
(118,496,o),
(64,442,o),
(64,362,cs),
(64,281,o),
(118,225,o),
(192,225,cs)
);
},
{
closed = 1;
nodes = (
(128,246,o),
(86,292,o),
(86,362,cs),
(86,430,o),
(129,475,o),
(192,475,cs),
(253,475,o),
(297,430,o),
(297,361,cs),
(297,296,o),
(258,246,o),
(191,246,cs)
);
}
);
width = 383;
},
{
background = {
shapes = (
{
closed = 1;
nodes = (
(295,215,o),
(359,274,o),
(359,400,cs),
(359,538,o),
(281,614,o),
(163,614,cs),
(108,614,l),
(160,569,l),
(160,714,l),
(44,714,l),
(44,520,l),
(127,520,ls),
(207,520,o),
(234,485,o),
(243,445,c),
(267,445,l),
(258,463,o),
(230,482,o),
(189,482,cs),
(110,482,o),
(54,428,o),
(54,351,cs),
(54,267,o),
(121,215,o),
(201,215,cs)
);
},
{
closed = 1;
nodes = (
(178,301,o),
(158,319,o),
(158,350,cs),
(158,382,o),
(178,400,o),
(205,400,cs),
(231,400,o),
(251,382,o),
(251,350,cs),
(251,319,o),
(232,301,o),
(205,301,cs)
);
}
);
};
layerId = "A1461942-0433-4891-A171-8512F51D8C86";
shapes = (
{
closed = 1;
nodes = (
(295,225,o),
(359,284,o),
(359,390,cs),
(359,528,o),
(281,614,o),
(143,614,cs),
(108,614,l),
(160,569,l),
(160,714,l),
(44,714,l),
(44,520,l),
(107,520,ls),
(205,520,o),
(232,495,o),
(241,455,c),
(267,455,l),
(258,473,o),
(230,492,o),
(189,492,cs),
(110,492,o),
(54,438,o),
(54,361,cs),
(54,277,o),
(121,225,o),
(201,225,cs)
);
},
{
closed = 1;
nodes = (
(178,311,o),
(158,329,o),
(158,360,cs),
(158,392,o),
(178,410,o),
(205,410,cs),
(231,410,o),
(251,392,o),
(251,360,cs),
(251,329,o),
(232,311,o),
(205,311,cs)
);
}
);
width = 393;
}
);
note = uni1509;
unicode = 5385;
},
{
color = 3;
glyphname = "skwNaskapi-canadian";
lastChange = "2022-05-19 10:24:30 +0000";
layers = (
{
background = {
shapes = (
{
closed = 1;
nodes = (
(221,274,o),
(261,311,o),
(261,364,cs),
(261,418,o),
(222,461,o),
(138,461,cs),
(83,461,l),
(83,441,l),
(134,441,ls),
(209,441,o),
(237,407,o),
(237,364,cs),
(237,323,o),
(209,296,o),
(168,296,cs),
(123,296,o),
(88,328,o),
(88,405,cs),
(88,478,o),
(119,516,o),
(172,532,cs),
(199,540,o),
(230,544,o),
(267,544,cs),
(291,544,l),
(291,714,l),
(267,714,l),
(267,566,l),
(257,566,ls),
(185,566,o),
(124,549,o),
(90,502,cs),
(73,479,o),
(64,446,o),
(64,405,cs),
(64,313,o),
(111,274,o),
(166,274,cs)
);
}
);
};
layerId = m01;
shapes = (
{
closed = 1;
nodes = (
(265,225,o),
(319,281,o),
(319,362,cs),
(319,442,o),
(265,496,o),
(192,496,cs),
(133,496,o),
(87,456,o),
(78,402,c),
(92,414,l),
(99,501,o),
(139,562,o),
(253,562,cs),
(319,562,l),
(319,714,l),
(295,714,l),
(295,567,l),
(302,586,l),
(256,586,ls),
(123,586,o),
(64,507,o),
(64,364,cs),
(64,284,o),
(117,225,o),
(191,225,cs)
);
},
{
closed = 1;
nodes = (
(125,246,o),
(86,296,o),
(86,361,cs),
(86,430,o),
(130,475,o),
(191,475,cs),
(254,475,o),
(297,430,o),
(297,362,cs),
(297,292,o),
(255,246,o),
(192,246,cs)
);
}
);
width = 383;
},
{
background = {
shapes = (
{
closed = 1;
nodes = (
(278,234,o),
(324,276,o),
(324,345,cs),
(324,436,o),
(248,469,o),
(128,469,cs),
(117,469,l),
(117,400,l),
(133,400,ls),
(192,400,o),
(216,378,o),
(216,349,cs),
(216,328,o),
(206,308,o),
(179,308,cs),
(152,308,o),
(137,324,o),
(137,375,cs),
(137,418,o),
(148,457,o),
(188,481,cs),
(208,492,o),
(237,498,o),
(275,498,cs),
(344,498,l),
(344,714,l),
(226,714,l),
(226,599,l),
(209,599,ls),
(90,599,o),
(24,541,o),
(24,417,cs),
(24,305,o),
(79,234,o),
(191,234,cs)
);
}
);
};
layerId = "A1461942-0433-4891-A171-8512F51D8C86";
shapes = (
{
closed = 1;
nodes = (
(272,225,o),
(339,277,o),
(339,361,cs),
(339,438,o),
(283,492,o),
(204,492,cs),
(163,492,o),
(135,473,o),
(126,455,c),
(152,455,l),
(161,495,o),
(188,520,o),
(286,520,cs),
(349,520,l),
(349,714,l),
(233,714,l),
(233,569,l),
(285,614,l),
(250,614,ls),
(112,614,o),
(34,528,o),
(34,390,cs),
(34,284,o),
(98,225,o),
(192,225,cs)
);
},
{
closed = 1;
nodes = (
(161,311,o),
(142,329,o),
(142,360,cs),
(142,392,o),
(162,410,o),
(188,410,cs),
(215,410,o),
(235,392,o),
(235,360,cs),
(235,329,o),
(215,311,o),
(188,311,cs)
);
}
);
width = 393;
}
);
metricLeft = "=|moosecreesk-canadian";
metricRight = "=|moosecreesk-canadian";
note = uni150A;
unicode = 5386;
},
{
color = 3;
glyphname = "swNaskapi-canadian";
lastChange = "2022-05-23 09:44:45 +0000";
layers = (
{
background = {
shapes = (
{
closed = 1;
nodes = (
(279,384,ls),
(279,468,o),
(260,517,o),
(209,540,cs),
(184,551,o),
(149,557,o),
(106,557,cs),
(100,557,l),
(100,665,l),
(76,665,l),
(76,535,l),
(98,535,ls),
(185,535,o),
(227,516,o),
(243,469,cs),
(251,446,o),
(255,415,o),
(255,376,cs),
(255,349,l),
(279,349,l),
(279,349,l)
);
},
{
closed = 1;
nodes = (
(286,244,o),
(300,258,o),
(300,277,cs),
(300,296,o),
(286,310,o),
(267,310,cs),
(248,310,o),
(233,296,o),
(233,277,cs),
(233,258,o),
(248,244,o),
(267,244,cs)
);
},
{
closed = 1;
nodes = (
(107,704,o),
(121,718,o),
(121,737,cs),
(121,756,o),
(107,770,o),
(88,770,cs),
(69,770,o),
(54,756,o),
(54,737,cs),
(54,718,o),
(69,704,o),
(88,704,cs)
);
}
);
};
layerId = m01;
shapes = (
{
closed = 1;
nodes = (
(293,179,l),
(293,223,ls),
(293,329,o),
(235,408,o),
(115,408,cs),
(86,408,l),
(93,389,l),
(93,536,l),
(69,536,l),
(69,384,l),
(107,384,ls),
(220,384,o),
(269,323,o),
(269,221,cs),
(269,179,l)
);
},
{
closed = 1;
nodes = (
(198,87,o),
(212,100,o),
(212,118,cs),
(212,136,o),
(198,149,o),
(181,149,cs),
(164,149,o),
(150,136,o),
(150,118,cs),
(150,100,o),
(164,87,o),
(181,87,cs)
);
},
{
closed = 1;
nodes = (
(198,566,o),
(212,579,o),
(212,597,cs),
(212,615,o),
(198,628,o),
(181,628,cs),
(164,628,o),
(150,615,o),
(150,597,cs),
(150,579,o),
(164,566,o),
(181,566,cs)
);
}
);
width = 362;
},
{
background = {
shapes = (
{
closed = 1;
nodes = (
(341,244,ls),
(341,360,o),
(260,432,o),
(137,432,cs),
(104,432,l),
(155,388,l),
(155,514,l),
(39,514,l),
(39,338,l),
(100,338,ls),
(183,338,o),
(225,313,o),
(225,239,cs),
(225,201,l),
(341,201,l)
);
}
);
};
layerId = "A1461942-0433-4891-A171-8512F51D8C86";
shapes = (
{
closed = 1;
nodes = (
(340,201,l),
(340,244,ls),
(340,360,o),
(260,432,o),
(137,432,cs),
(104,432,l),
(155,388,l),
(155,514,l),
(39,514,l),
(39,338,l),
(100,338,ls),
(183,338,o),
(224,313,o),
(224,239,cs),
(224,201,l)
);
},
{
closed = 1;
nodes = (
(233,-15,o),
(272,24,o),
(272,72,cs),
(272,120,o),
(233,159,o),
(185,159,cs),
(137,159,o),
(98,120,o),
(98,72,cs),
(98,24,o),
(137,-15,o),
(185,-15,cs)
);
},
{
closed = 1;
nodes = (
(233,555,o),
(272,594,o),
(272,642,cs),
(272,690,o),
(233,729,o),
(185,729,cs),
(137,729,o),
(98,690,o),
(98,642,cs),
(98,594,o),
(137,555,o),
(185,555,cs)
);
}
);
width = 379;
}
);
note = uni150B;
unicode = 5387;
},
{
color = 3;
glyphname = "spwaNaskapi-canadian";
lastChange = "2022-05-23 09:42:33 +0000";
layers = (
{
background = {
shapes = (
{
closed = 1;
nodes = (
(664,14,l),
(74,358,l),
(664,703,l),
(664,726,l),
(654,726,l),
(40,367,l),
(40,349,l),
(654,-10,l),
(664,-10,l),
(664,-10,l)
);
},
{
closed = 1;
nodes = (
(129,500,o),
(143,514,o),
(143,533,cs),
(143,552,o),
(129,566,o),
(110,566,cs),
(91,566,o),
(76,552,o),
(76,533,cs),
(76,514,o),
(91,500,o),
(110,500,cs)
);
},
{
closed = 1;
nodes = (
(357,649,ls),
(357,733,o),
(338,782,o),
(287,805,cs),
(262,816,o),
(227,822,o),
(184,822,cs),
(178,822,l),
(178,930,l),
(158,930,l),
(158,803,l),
(176,803,ls),
(263,803,o),
(307,782,o),
(324,735,cs),
(333,711,o),
(337,680,o),
(337,641,cs),
(337,614,l),
(357,614,l),
(357,614,l)
);
},
{
closed = 1;
nodes = (
(532,733,o),
(546,747,o),
(546,766,cs),
(546,785,o),
(532,799,o),
(513,799,cs),
(494,799,o),
(479,785,o),
(479,766,cs),
(479,747,o),
(494,733,o),
(513,733,cs)
);
}
);
};
guides = (
{
angle = 209.9185;
pos = (342,623);
}
);
layerId = m01;
shapes = (
{
closed = 1;
nodes = (
(656,0,l),
(656,21,l),
(59,363,l),
(59,351,l),
(656,693,l),
(656,714,l),
(643,714,l),
(40,367,l),
(40,347,l),
(643,0,l)
);
},
{
closed = 1;
nodes = (
(171,502,o),
(185,515,o),
(185,533,cs),
(185,551,o),
(171,564,o),
(154,564,cs),
(137,564,o),
(123,551,o),
(123,533,cs),
(123,515,o),
(137,502,o),
(154,502,cs)
);
},
{
closed = 1;
nodes = (
(360,611,l),
(360,659,ls),
(360,753,o),
(302,832,o),
(192,832,cs),
(153,832,l),
(160,813,l),
(160,952,l),
(136,952,l),
(136,808,l),
(184,808,ls),
(287,808,o),
(336,747,o),
(336,657,cs),
(336,611,l)
);
},
{
closed = 1;
nodes = (
(545,717,o),
(559,730,o),
(559,748,cs),
(559,766,o),
(545,779,o),
(528,779,cs),
(511,779,o),
(497,766,o),
(497,748,cs),
(497,730,o),
(511,717,o),
(528,717,cs)
);
}
);
width = 716;
},
{
background = {
shapes = (
{
closed = 1;
nodes = (
(1484,0,l),
(1484,168,l),
(1073,384,l),
(1073,328,l),
(1484,544,l),
(1484,714,l),
(1439,714,l),
(829,385,l),
(829,329,l),
(1439,0,l)
);
},
{
closed = 1;
nodes = (
(964,509,o),
(1003,548,o),
(1003,596,cs),
(1003,644,o),
(964,683,o),
(916,683,cs),
(868,683,o),
(829,644,o),
(829,596,cs),
(829,548,o),
(868,509,o),
(916,509,cs)
);
},
{
closed = 1;
nodes = (
(1400,744,o),
(1439,783,o),
(1439,831,cs),
(1439,879,o),
(1400,918,o),
(1352,918,cs),
(1304,918,o),
(1265,879,o),
(1265,831,cs),
(1265,783,o),
(1304,744,o),
(1352,744,cs)
);
},
{
closed = 1;
nodes = (
(1217,629,l),
(1217,674,ls),
(1217,786,o),
(1143,862,o),
(1035,862,cs),
(983,862,l),
(1056,819,l),
(1056,952,l),
(940,952,l),
(940,768,l),
(994,768,ls),
(1064,768,o),
(1101,733,o),
(1101,669,cs),
(1101,629,l)
);
},
{
closed = 1;
nodes = (
(417,682,ls),
(417,798,o),
(345,870,o),
(235,870,cs),
(205,870,l),
(256,826,l),
(256,952,l),
(140,952,l),
(140,776,l),
(193,776,ls),
(265,776,o),
(301,751,o),
(301,677,cs),
(301,639,l),
(417,639,l)
);
}
);
};
guides = (
{
angle = 208.3399;
pos = (384,641);
}
);
layerId = "A1461942-0433-4891-A171-8512F51D8C86";
shapes = (
{
closed = 1;
nodes = (
(684,0,l),
(684,168,l),
(273,384,l),
(273,328,l),
(684,544,l),
(684,714,l),
(639,714,l),
(29,385,l),
(29,329,l),
(639,0,l)
);
},
{
closed = 1;
nodes = (
(164,509,o),
(203,548,o),
(203,596,cs),
(203,644,o),
(164,683,o),
(116,683,cs),
(68,683,o),
(29,644,o),
(29,596,cs),
(29,548,o),
(68,509,o),
(116,509,cs)
);
},
{
closed = 1;
nodes = (
(413,639,l),
(413,682,ls),
(413,798,o),
(341,870,o),
(231,870,cs),
(201,870,l),
(252,826,l),
(252,952,l),
(136,952,l),
(136,776,l),
(189,776,ls),
(261,776,o),
(297,751,o),
(297,677,cs),
(297,639,l)
);
},
{
closed = 1;
nodes = (
(600,744,o),
(639,783,o),
(639,831,cs),
(639,879,o),
(600,918,o),
(552,918,cs),
(504,918,o),
(465,879,o),
(465,831,cs),
(465,783,o),
(504,744,o),
(552,744,cs)
);
}
);
width = 728;
}
);
metricLeft = "a-canadian";
metricWidth = "pa-canadian";
note = uni150C;
unicode = 5388;
},
{
color = 4;
glyphname = "she-canadian";
lastChange = "2022-05-23 09:46:03 +0000";
layers = (
{
anchors = (
{
name = middle_left_can;
pos = (-66,357);
},
{
name = middle_right_can;
pos = (1063,357);
},
{
name = top_left_can;
pos = (286,714);
},
{
name = top_right_can;
pos = (715,714);
}
);
background = {
shapes = (
{
closed = 1;
nodes = (
(708,-12,o),
(758,84,o),
(758,237,cs),
(758,282,l),
(732,282,l),
(732,238,ls),
(732,94,o),
(691,13,o),
(572,13,cs),
(455,13,o),
(412,94,o),
(412,238,cs),
(412,477,ls),
(412,632,o),
(362,726,o),
(226,726,cs),
(90,726,o),
(40,632,o),
(40,477,cs),
(40,432,l),
(66,432,l),
(66,476,ls),
(66,620,o),
(109,701,o),
(226,701,cs),
(345,701,o),
(386,620,o),
(386,476,cs),
(386,237,ls),
(386,84,o),
(436,-12,o),
(572,-12,cs)
);
}
);
};
layerId = m01;
shapes = (
{
closed = 1;
nodes = (
(852,-12,o),
(933,83,o),
(933,245,cs),
(933,304,l),
(907,304,l),
(907,247,ls),
(907,95,o),
(838,13,o),
(715,13,cs),
(589,13,o),
(529,97,o),
(519,242,cs),
(504,469,ls),
(493,628,o),
(420,726,o),
(286,726,cs),
(148,726,o),
(64,628,o),
(64,469,cs),
(64,410,l),
(90,410,l),
(90,469,ls),
(90,615,o),
(163,701,o),
(286,701,cs),
(405,701,o),
(469,615,o),
(478,472,cs),
(493,245,ls),
(504,81,o),
(577,-12,o),
(715,-12,cs)
);
}
);
width = 997;
},
{
anchors = (
{
name = middle_left_can;
pos = (-116,357);
},
{
name = middle_right_can;
pos = (1114,357);
},
{
name = top_left_can;
pos = (326,714);
},
{
name = top_right_can;
pos = (859,714);
}
);
background = {
shapes = (
{
closed = 1;
nodes = (
(843,-15,o),
(944,93,o),
(944,273,cs),
(944,324,l),
(753,324,l),
(753,268,ls),
(753,187,o),
(725,151,o),
(673,151,cs),
(618,151,o),
(589,190,o),
(589,271,cs),
(589,443,ls),
(589,629,o),
(490,729,o),
(326,729,cs),
(150,729,o),
(44,621,o),
(44,441,cs),
(44,390,l),
(235,390,l),
(235,451,ls),
(235,525,o),
(264,563,o),
(318,563,cs),
(370,563,o),
(399,526,o),
(399,450,cs),
(399,271,ls),
(399,88,o),
(493,-15,o),
(670,-15,cs)
);
}
);
};
layerId = "A1461942-0433-4891-A171-8512F51D8C86";
shapes = (
{
closed = 1;
nodes = (
(853,-15,o),
(954,93,o),
(954,273,cs),
(954,324,l),
(763,324,l),
(763,268,ls),
(763,187,o),
(735,151,o),
(683,151,cs),
(628,151,o),
(604,190,o),
(599,271,cs),
(589,443,ls),
(578,629,o),
(490,729,o),
(326,729,cs),
(150,729,o),
(44,621,o),
(44,441,cs),
(44,390,l),
(235,390,l),
(235,451,ls),
(235,525,o),
(264,563,o),
(318,563,cs),
(370,563,o),
(395,526,o),
(399,450,cs),
(409,271,ls),
(419,88,o),
(503,-15,o),
(680,-15,cs)
);
}
);
width = 998;
}
);
note = uni1510;
unicode = 5392;
},
{
color = 4;
glyphname = "shi-canadian";
lastChange = "2022-05-23 09:48:23 +0000";
layers = (
{
anchors = (
{
name = middle_left_can;
pos = (-66,357);
},
{
name = middle_right_can;
pos = (1063,357);
},
{
name = top_left_can;
pos = (286,714);
},
{
name = top_right_can;
pos = (715,714);
}
);
background = {
shapes = (
{
closed = 1;
nodes = (
(386,-12,o),
(436,84,o),
(436,237,cs),
(436,476,ls),
(436,620,o),
(479,701,o),
(596,701,cs),
(715,701,o),
(756,620,o),
(756,476,cs),
(756,432,l),
(782,432,l),
(782,477,ls),
(782,632,o),
(732,726,o),
(596,726,cs),
(460,726,o),
(410,632,o),
(410,477,cs),
(410,238,ls),
(410,94,o),
(369,13,o),
(250,13,cs),
(133,13,o),
(90,94,o),
(90,238,cs),
(90,282,l),
(64,282,l),
(64,237,ls),
(64,84,o),
(114,-12,o),
(250,-12,cs)
);
}
);
};
layerId = m01;
shapes = (
{
closed = 1;
nodes = (
(420,-12,o),
(493,81,o),
(504,245,cs),
(519,472,ls),
(528,615,o),
(592,701,o),
(711,701,cs),
(834,701,o),
(907,615,o),
(907,469,cs),
(907,410,l),
(933,410,l),
(933,469,ls),
(933,628,o),
(849,726,o),
(711,726,cs),
(577,726,o),
(504,628,o),
(493,469,cs),
(478,242,ls),
(468,97,o),
(408,13,o),
(282,13,cs),
(159,13,o),
(90,95,o),
(90,247,cs),
(90,304,l),
(64,304,l),
(64,245,ls),
(64,83,o),
(145,-12,o),
(282,-12,cs)
);
}
);
width = 997;
},
{
anchors = (
{
name = middle_left_can;
pos = (-116,357);
},
{
name = middle_right_can;
pos = (1114,357);
},
{
name = top_left_can;
pos = (140,714);
},
{
name = top_right_can;
pos = (672,714);
}
);
background = {
shapes = (
{
closed = 1;
nodes = (
(438,-12,o),
(523,70,o),
(523,230,cs),
(523,484,ls),
(523,551,o),
(539,573,o),
(572,573,cs),
(611,573,o),
(623,543,o),
(623,484,cs),
(623,415,l),
(813,415,l),
(813,465,ls),
(813,644,o),
(736,726,o),
(577,726,cs),
(420,726,o),
(334,644,o),
(334,484,cs),
(334,230,ls),
(334,166,o),
(320,141,o),
(284,141,cs),
(248,141,o),
(234,167,o),
(234,230,cs),
(234,299,l),
(44,299,l),
(44,249,ls),
(44,70,o),
(122,-12,o),
(279,-12,cs)
);
}
);
};
layerId = "A1461942-0433-4891-A171-8512F51D8C86";
shapes = (
{
closed = 1;
nodes = (
(495,-15,o),
(579,88,o),
(589,271,cs),
(599,450,ls),
(603,526,o),
(628,563,o),
(680,563,cs),
(734,563,o),
(763,525,o),
(763,451,cs),
(763,390,l),
(954,390,l),
(954,441,ls),
(954,621,o),
(848,729,o),
(672,729,cs),
(508,729,o),
(420,629,o),
(409,443,cs),
(399,271,ls),
(394,190,o),
(370,151,o),
(315,151,cs),
(263,151,o),
(235,187,o),
(235,268,cs),
(235,324,l),
(44,324,l),
(44,273,ls),
(44,93,o),
(145,-15,o),
(318,-15,cs)
);
}
);
width = 998;
}
);
metricLeft = "=|she-canadian";
metricRight = "=|she-canadian";
note = uni1511;
unicode = 5393;
},
{
color = 4;
glyphname = "sho-canadian";
lastChange = "2022-05-23 09:55:28 +0000";
layers = (
{
anchors = (
{
name = middle_left_can;
pos = (-56,357);
},
{
name = middle_right_can;
pos = (1083,357);
},
{
name = top_center_can;
pos = (514,499);
},
{
name = top_left_can;
pos = (286,499);
},
{
name = top_right_can;
pos = (742,499);
}
);
background = {
shapes = (
{
closed = 1;
nodes = (
(1382,13,l),
(1235,22,o),
(1190,144,o),
(1190,241,cs),
(1190,379,o),
(1270,468,o),
(1386,468,cs),
(1469,468,o),
(1518,428,o),
(1560,332,cs),
(1646,137,ls),
(1690,37,o),
(1747,-12,o),
(1842,-12,cs),
(1974,-12,o),
(2064,90,o),
(2064,240,cs),
(2064,374,o),
(1993,482,o),
(1848,493,c),
(1846,468,l),
(1993,459,o),
(2038,337,o),
(2038,240,cs),
(2038,102,o),
(1958,13,o),
(1842,13,cs),
(1759,13,o),
(1710,53,o),
(1668,149,cs),
(1582,344,ls),
(1538,444,o),
(1481,493,o),
(1386,493,cs),
(1254,493,o),
(1164,391,o),
(1164,241,cs),
(1164,107,o),
(1235,-1,o),
(1380,-12,c)
);
},
{
closed = 1;
nodes = (
(730,468,l),
(861,468,o),
(938,380,o),
(938,240,cs),
(938,102,o),
(858,13,o),
(742,13,cs),
(659,13,o),
(610,53,o),
(568,149,cs),
(482,344,ls),
(438,444,o),
(381,493,o),
(286,493,cs),
(154,493,o),
(64,391,o),
(64,241,cs),
(64,107,o),
(135,-1,o),
(280,-12,c),
(282,13,l),
(135,22,o),
(90,144,o),
(90,241,cs),
(90,379,o),
(170,468,o),
(286,468,cs),
(369,468,o),
(418,428,o),
(460,332,cs),
(546,137,ls),
(590,37,o),
(647,-12,o),
(742,-12,cs),
(874,-12,o),
(964,90,o),
(964,240,cs),
(964,396,o),
(872,493,o),
(730,493,c)
);
}
);
};
layerId = m01;
shapes = (
{
closed = 1;
nodes = (
(298,13,l),
(167,13,o),
(90,101,o),
(90,241,cs),
(90,379,o),
(170,468,o),
(286,468,cs),
(369,468,o),
(416,428,o),
(459,332,cs),
(547,137,ls),
(592,37,o),
(647,-12,o),
(742,-12,cs),
(874,-12,o),
(964,90,o),
(964,240,cs),
(964,396,o),
(872,493,o),
(730,493,c),
(730,468,l),
(861,468,o),
(938,380,o),
(938,240,cs),
(938,102,o),
(858,13,o),
(742,13,cs),
(659,13,o),
(612,53,o),
(569,149,cs),
(481,344,ls),
(436,444,o),
(381,493,o),
(286,493,cs),
(154,493,o),
(64,391,o),
(64,241,cs),
(64,85,o),
(156,-12,o),
(298,-12,c)
);
}
);
width = 1028;
},
{
anchors = (
{
name = middle_left_can;
pos = (-121,357);
},
{
name = middle_right_can;
pos = (1129,357);
},
{
name = top_center_can;
pos = (504,534);
},
{
name = top_left_can;
pos = (308,534);
},
{
name = top_right_can;
pos = (700,534);
}
);
background = {
shapes = (
{
closed = 1;
nodes = (
(1433,152,l),
(1365,152,o),
(1328,190,o),
(1328,259,cs),
(1328,330,o),
(1361,365,o),
(1406,365,cs),
(1437,365,o),
(1460,350,o),
(1484,299,cs),
(1553,155,ls),
(1617,21,o),
(1691,-15,o),
(1796,-15,cs),
(1957,-15,o),
(2069,103,o),
(2069,262,cs),
(2069,424,o),
(1957,529,o),
(1790,529,c),
(1775,362,l),
(1841,362,o),
(1880,322,o),
(1880,255,cs),
(1880,184,o),
(1847,149,o),
(1802,149,cs),
(1771,149,o),
(1747,165,o),
(1723,215,cs),
(1655,359,ls),
(1591,493,o),
(1517,529,o),
(1412,529,cs),
(1250,529,o),
(1139,421,o),
(1139,262,cs),
(1139,100,o),
(1251,-15,o),
(1418,-15,c)
);
},
{
closed = 1;
nodes = (
(665,362,l),
(743,362,o),
(780,324,o),
(780,255,cs),
(780,184,o),
(747,149,o),
(702,149,cs),
(671,149,o),
(648,164,o),
(624,215,cs),
(555,359,ls),
(500,473,o),
(428,529,o),
(308,529,cs),
(151,529,o),
(39,411,o),
(39,252,cs),
(39,90,o),
(151,-15,o),
(343,-15,c),
(343,152,l),
(267,152,o),
(228,192,o),
(228,259,cs),
(228,330,o),
(261,365,o),
(306,365,cs),
(337,365,o),
(361,349,o),
(385,299,cs),
(453,155,ls),
(507,41,o),
(580,-15,o),
(700,-15,cs),
(858,-15,o),
(969,93,o),
(969,252,cs),
(969,424,o),
(857,529,o),
(665,529,c)
);
}
);
};
layerId = "A1461942-0433-4891-A171-8512F51D8C86";
shapes = (
{
closed = 1;
nodes = (
(343,152,l),
(265,152,o),
(228,190,o),
(228,259,cs),
(228,330,o),
(261,365,o),
(306,365,cs),
(337,365,o),
(360,350,o),
(384,299,cs),
(453,155,ls),
(508,41,o),
(580,-15,o),
(700,-15,cs),
(857,-15,o),
(969,93,o),
(969,252,cs),
(969,424,o),
(857,529,o),
(665,529,c),
(665,362,l),
(743,362,o),
(780,324,o),
(780,255,cs),
(780,184,o),
(747,149,o),
(702,149,cs),
(671,149,o),
(647,165,o),
(623,215,cs),
(555,359,ls),
(501,473,o),
(428,529,o),
(308,529,cs),
(150,529,o),
(39,421,o),
(39,262,cs),
(39,90,o),
(151,-15,o),
(343,-15,c)
);
}
);
width = 1008;
}
);
metricLeft = "ke-canadian";
metricRight = "=|ke-canadian";
note = uni1513;
unicode = 5395;
},
{
color = 4;
glyphname = "sha-canadian";
lastChange = "2022-05-23 09:55:12 +0000";
layers = (
{
anchors = (
{
name = middle_left_can;
pos = (-56,357);
},
{
name = middle_right_can;
pos = (1083,357);
},
{
name = top_center_can;
pos = (514,499);
},
{
name = top_left_can;
pos = (286,499);
},
{
name = top_right_can;
pos = (742,499);
}
);
background = {
shapes = (
{
closed = 1;
nodes = (
(381,-12,o),
(438,37,o),
(482,137,cs),
(568,332,ls),
(610,428,o),
(659,468,o),
(742,468,cs),
(858,468,o),
(938,379,o),
(938,241,cs),
(938,144,o),
(893,22,o),
(746,13,c),
(748,-12,l),
(893,-1,o),
(964,107,o),
(964,241,cs),
(964,391,o),
(874,493,o),
(742,493,cs),
(647,493,o),
(590,444,o),
(546,344,cs),
(460,149,ls),
(418,53,o),
(369,13,o),
(286,13,cs),
(170,13,o),
(90,102,o),
(90,240,cs),
(90,337,o),
(135,459,o),
(282,468,c),
(280,493,l),
(135,482,o),
(64,374,o),
(64,240,cs),
(64,90,o),
(154,-12,o),
(286,-12,cs)
);
}
);
};
layerId = m01;
shapes = (
{
closed = 1;
nodes = (
(381,-12,o),
(436,37,o),
(481,137,cs),
(569,332,ls),
(612,428,o),
(659,468,o),
(742,468,cs),
(858,468,o),
(938,379,o),
(938,241,cs),
(938,101,o),
(861,13,o),
(730,13,c),
(730,-12,l),
(872,-12,o),
(964,85,o),
(964,241,cs),
(964,391,o),
(874,493,o),
(742,493,cs),
(647,493,o),
(592,444,o),
(547,344,cs),
(459,149,ls),
(416,53,o),
(369,13,o),
(286,13,cs),
(170,13,o),
(90,102,o),
(90,240,cs),
(90,380,o),
(167,468,o),
(298,468,c),
(298,493,l),
(156,493,o),
(64,396,o),
(64,240,cs),
(64,90,o),
(154,-12,o),
(286,-12,cs)
);
}
);
width = 1028;
},
{
anchors = (
{
name = middle_left_can;
pos = (-121,357);
},
{
name = middle_right_can;
pos = (1129,357);
},
{
name = top_center_can;
pos = (504,534);
},
{
name = top_left_can;
pos = (308,534);
},
{
name = top_right_can;
pos = (700,534);
}
);
background = {
shapes = (
{
closed = 1;
nodes = (
(407,-15,o),
(490,20,o),
(551,147,cs),
(623,299,ls),
(647,349,o),
(671,365,o),
(702,365,cs),
(747,365,o),
(780,330,o),
(780,259,cs),
(780,192,o),
(741,152,o),
(675,152,c),
(690,-15,l),
(857,-15,o),
(969,100,o),
(969,267,cs),
(969,424,o),
(867,529,o),
(703,529,cs),
(601,529,o),
(518,494,o),
(457,367,cs),
(385,215,ls),
(361,164,o),
(337,149,o),
(306,149,cs),
(261,149,o),
(228,184,o),
(228,255,cs),
(228,324,o),
(265,362,o),
(333,362,c),
(318,529,l),
(151,529,o),
(39,414,o),
(39,247,cs),
(39,91,o),
(140,-15,o),
(305,-15,cs)
);
}
);
};
layerId = "A1461942-0433-4891-A171-8512F51D8C86";
shapes = (
{
closed = 1;
nodes = (
(428,-15,o),
(501,41,o),
(555,155,cs),
(623,299,ls),
(647,349,o),
(671,365,o),
(702,365,cs),
(747,365,o),
(780,330,o),
(780,259,cs),
(780,190,o),
(743,152,o),
(665,152,c),
(665,-15,l),
(857,-15,o),
(969,90,o),
(969,262,cs),
(969,421,o),
(857,529,o),
(700,529,cs),
(580,529,o),
(508,473,o),
(453,359,cs),
(384,215,ls),
(360,164,o),
(337,149,o),
(306,149,cs),
(261,149,o),
(228,184,o),
(228,255,cs),
(228,324,o),
(265,362,o),
(343,362,c),
(343,529,l),
(151,529,o),
(39,424,o),
(39,252,cs),
(39,93,o),
(150,-15,o),
(308,-15,cs)
);
}
);
width = 1008;
}
);
metricLeft = "ke-canadian";
metricRight = "=|ke-canadian";
note = uni1515;
unicode = 5397;
},
{
color = 3;
glyphname = "sh-canadian";
lastChange = "2022-05-17 11:53:18 +0000";
layers = (
{
background = {
shapes = (
{
closed = 1;
nodes = (
(556,436,o),
(600,497,o),
(600,578,cs),
(600,665,o),
(550,720,o),
(471,720,cs),
(416,720,o),
(384,692,o),
(357,645,cs),
(344,622,o),
(329,594,o),
(312,563,cs),
(285,512,o),
(261,471,o),
(229,448,cs),
(213,436,o),
(194,430,o),
(171,430,cs),
(110,430,o),
(68,477,o),
(68,552,cs),
(68,631,o),
(112,674,o),
(180,705,c),
(171,726,l),
(88,693,o),
(44,632,o),
(44,549,cs),
(44,464,o),
(97,407,o),
(174,407,cs),
(229,407,o),
(261,433,o),
(290,477,cs),
(304,499,o),
(319,525,o),
(334,554,cs),
(362,606,o),
(383,652,o),
(415,678,cs),
(430,691,o),
(450,697,o),
(474,697,cs),
(535,697,o),
(576,650,o),
(576,578,cs),
(576,507,o),
(537,454,o),
(464,423,c),
(473,401,l),
(473,401,l)
);
}
);
};
layerId = m01;
shapes = (
{
closed = 1;
nodes = (
(296,351,o),
(340,387,o),
(372,460,cs),
(432,598,ls),
(463,669,o),
(499,698,o),
(559,698,cs),
(640,698,o),
(699,637,o),
(699,536,cs),
(699,434,o),
(642,373,o),
(551,373,c),
(551,351,l),
(654,351,o),
(722,422,o),
(722,536,cs),
(722,645,o),
(656,720,o),
(559,720,cs),
(490,720,o),
(446,684,o),
(414,611,cs),
(354,473,ls),
(323,402,o),
(287,373,o),
(226,373,cs),
(145,373,o),
(87,434,o),
(87,535,cs),
(87,637,o),
(143,698,o),
(235,698,c),
(235,720,l),
(131,720,o),
(64,649,o),
(64,535,cs),
(64,426,o),
(130,351,o),
(226,351,cs)
);
}
);
width = 786;
},
{
background = {
shapes = (
{
closed = 1;
nodes = (
(596,402,o),
(648,466,o),
(648,563,cs),
(648,660,o),
(597,725,o),
(494,725,cs),
(447,725,o),
(414,710,o),
(373,670,cs),
(352,649,o),
(327,621,o),
(297,584,cs),
(246,521,o),
(210,467,o),
(172,467,cs),
(151,467,o),
(137,487,o),
(137,518,cs),
(137,567,o),
(162,604,o),
(203,645,c),
(130,725,l),
(69,676,o),
(19,608,o),
(19,517,cs),
(19,420,o),
(76,359,o),
(169,359,cs),
(232,359,o),
(272,386,o),
(308,428,cs),
(326,449,o),
(345,471,o),
(365,496,cs),
(415,559,o),
(448,596,o),
(467,609,cs),
(476,614,o),
(484,617,o),
(491,617,cs),
(518,617,o),
(530,595,o),
(530,559,cs),
(530,508,o),
(507,471,o),
(468,440,c),
(536,358,l),
(536,358,l)
);
}
);
};
layerId = "A1461942-0433-4891-A171-8512F51D8C86";
shapes = (
{
closed = 1;
nodes = (
(297,351,o),
(339,389,o),
(377,466,cs),
(426,564,ls),
(443,598,o),
(458,609,o),
(481,609,cs),
(512,609,o),
(534,585,o),
(534,540,cs),
(534,490,o),
(508,464,o),
(448,464,c),
(448,351,l),
(578,351,o),
(654,422,o),
(654,539,cs),
(654,647,o),
(580,720,o),
(485,720,cs),
(396,720,o),
(350,676,o),
(315,605,cs),
(266,507,ls),
(249,472,o),
(235,462,o),
(212,462,cs),
(181,462,o),
(159,486,o),
(159,531,cs),
(159,581,o),
(185,607,o),
(245,607,c),
(245,720,l),
(115,720,o),
(39,649,o),
(39,532,cs),
(39,424,o),
(112,351,o),
(217,351,cs)
);
}
);
width = 693;
}
);
note = uni1525;
unicode = 5413;
},
{
color = 3;
glyphname = "ye-canadian";
lastChange = "2022-05-23 10:08:56 +0000";
layers = (
{
anchors = (
{
name = middle_left_can;
pos = (-61,357);
},
{
name = middle_right_can;
pos = (633,357);
},
{
name = top_left_can;
pos = (52,714);
},
{
name = top_right_can;
pos = (490,714);
}
);
background = {
shapes = (
{
closed = 1;
nodes = (
(853,297,l),
(451,297,l),
(787,711,l),
(766,726,l),
(412,290,l),
(412,272,l),
(827,272,l),
(827,0,l),
(853,0,l),
(853,0,l)
);
},
{
closed = 1;
nodes = (
(503,0,l),
(503,297,l),
(60,297,l),
(60,280,l),
(511,708,l),
(495,726,l),
(39,292,l),
(39,272,l),
(477,272,l),
(477,0,l)
);
}
);
};
layerId = m01;
shapes = (
{
closed = 1;
nodes = (
(503,0,l),
(503,305,l),
(60,305,l),
(62,288,l),
(513,708,l),
(495,726,l),
(39,300,l),
(39,280,l),
(477,280,l),
(477,0,l)
);
}
);
width = 588;
},
{
anchors = (
{
name = middle_left_can;
pos = (-101,357);
},
{
name = middle_right_can;
pos = (753,357);
},
{
name = top_left_can;
pos = (124,714);
},
{
name = top_right_can;
pos = (498,714);
}
);
background = {
shapes = (
{
closed = 1;
nodes = (
(1393,376,l),
(1145,376,l),
(1323,628,l),
(1178,726,l),
(853,265,l),
(853,220,l),
(1200,220,l),
(1200,0,l),
(1393,0,l),
(1393,0,l)
);
},
{
closed = 1;
nodes = (
(593,0,l),
(593,387,l),
(276,387,l),
(276,274,l),
(613,608,l),
(488,726,l),
(29,265,l),
(29,220,l),
(402,220,l),
(402,0,l)
);
}
);
};
guides = (
{
angle = 225.1246;
pos = (613,608);
}
);
layerId = "A1461942-0433-4891-A171-8512F51D8C86";
shapes = (
{
closed = 1;
nodes = (
(593,0,l),
(593,377,l),
(276,377,l),
(276,264,l),
(613,608,l),
(488,726,l),
(29,255,l),
(29,210,l),
(402,210,l),
(402,0,l)
);
}
);
width = 657;
}
);
note = uni1526;
unicode = 5414;
},
{
color = 3;
glyphname = "yi-canadian";
lastChange = "2022-05-23 10:18:29 +0000";
layers = (
{
anchors = (
{
name = middle_left_can;
pos = (-45,357);
},
{
name = middle_right_can;
pos = (649,357);
},
{
name = top_left_can;
pos = (98,714);
},
{
name = top_right_can;
pos = (536,714);
}
);
background = {
shapes = (
{
closed = 1;
nodes = (
(801,272,l),
(1216,272,l),
(1216,290,l),
(862,726,l),
(841,711,l),
(1177,297,l),
(775,297,l),
(775,0,l),
(801,0,l),
(801,0,l)
);
},
{
closed = 1;
nodes = (
(111,280,l),
(549,280,l),
(549,300,l),
(93,726,l),
(75,708,l),
(526,288,l),
(528,305,l),
(85,305,l),
(85,0,l),
(111,0,l)
);
}
);
};
layerId = m01;
shapes = (
{
closed = 1;
nodes = (
(111,0,l),
(111,280,l),
(549,280,l),
(549,300,l),
(93,726,l),
(76,708,l),
(527,288,l),
(528,305,l),
(85,305,l),
(85,0,l)
);
}
);
width = 588;
},
{
anchors = (
{
name = middle_left_can;
pos = (-96,357);
},
{
name = middle_right_can;
pos = (758,357);
},
{
name = top_left_can;
pos = (160,714);
},
{
name = top_right_can;
pos = (533,714);
}
);
background = {
shapes = (
{
closed = 1;
nodes = (
(1057,220,l),
(1404,220,l),
(1404,265,l),
(1079,726,l),
(934,628,l),
(1112,376,l),
(864,376,l),
(864,0,l),
(1057,0,l),
(1057,0,l)
);
},
{
closed = 1;
nodes = (
(255,0,l),
(255,210,l),
(628,210,l),
(628,255,l),
(169,726,l),
(44,608,l),
(381,264,l),
(381,377,l),
(64,377,l),
(64,0,l)
);
}
);
};
layerId = "A1461942-0433-4891-A171-8512F51D8C86";
shapes = (
{
closed = 1;
nodes = (
(255,0,l),
(255,210,l),
(628,210,l),
(628,255,l),
(169,726,l),
(47,610,l),
(384,266,l),
(384,377,l),
(64,377,l),
(64,0,l)
);
}
);
width = 657;
}
);
metricRight = "=|ye-canadian";
metricWidth = "ye-canadian";
note = uni1528;
unicode = 5416;
},
{
color = 3;
glyphname = "yo-canadian";
lastChange = "2022-05-23 10:09:14 +0000";
layers = (
{
anchors = (
{
name = middle_left_can;
pos = (-61,357);
},
{
name = middle_right_can;
pos = (633,357);
},
{
name = top_left_can;
pos = (52,714);
},
{
name = top_right_can;
pos = (490,714);
}
);
background = {
shapes = (
{
closed = 1;
nodes = (
(57,417,l),
(459,417,l),
(459,714,l),
(433,714,l),
(433,442,l),
(18,442,l),
(18,424,l),
(372,-12,l),
(393,3,l),
(393,3,l)
);
}
);
};
layerId = m01;
shapes = (
{
closed = 1;
nodes = (
(512,6,l),
(61,426,l),
(60,409,l),
(503,409,l),
(503,714,l),
(477,714,l),
(477,434,l),
(39,434,l),
(39,414,l),
(495,-12,l)
);
}
);
width = 588;
},
{
anchors = (
{
name = middle_left_can;
pos = (-100,357);
},
{
name = middle_right_can;
pos = (753,357);
},
{
name = top_left_can;
pos = (124,714);
},
{
name = top_right_can;
pos = (498,714);
}
);
background = {
shapes = (
{
closed = 1;
nodes = (
(308,338,l),
(556,338,l),
(556,714,l),
(363,714,l),
(363,494,l),
(16,494,l),
(16,449,l),
(341,-12,l),
(486,86,l),
(486,86,l)
);
}
);
};
layerId = "A1461942-0433-4891-A171-8512F51D8C86";
shapes = (
{
closed = 1;
nodes = (
(610,104,l),
(273,448,l),
(273,337,l),
(593,337,l),
(593,714,l),
(402,714,l),
(402,504,l),
(29,504,l),
(29,459,l),
(488,-12,l)
);
}
);
width = 657;
}
);
metricLeft = "ye-canadian";
metricWidth = "ye-canadian";
note = uni152A;
unicode = 5418;
},
{
color = 3;
glyphname = "ya-canadian";
lastChange = "2022-05-23 10:18:48 +0000";
layers = (
{
anchors = (
{
name = middle_left_can;
pos = (-45,357);
},
{
name = middle_right_can;
pos = (649,357);
},
{
name = top_left_can;
pos = (98,714);
},
{
name = top_right_can;
pos = (536,714);
}
);
background = {
shapes = (
{
closed = 1;
nodes = (
(546,442,l),
(131,442,l),
(131,714,l),
(105,714,l),
(105,417,l),
(507,417,l),
(171,3,l),
(192,-12,l),
(546,424,l),
(546,424,l)
);
}
);
};
layerId = m01;
shapes = (
{
closed = 1;
nodes = (
(549,414,l),
(549,434,l),
(111,434,l),
(111,714,l),
(85,714,l),
(85,409,l),
(528,409,l),
(526,426,l),
(75,6,l),
(93,-12,l)
);
}
);
width = 588;
},
{
anchors = (
{
name = middle_left_can;
pos = (-96,357);
},
{
name = middle_right_can;
pos = (758,357);
},
{
name = top_left_can;
pos = (160,714);
},
{
name = top_right_can;
pos = (533,714);
}
);
background = {
shapes = (
{
closed = 1;
nodes = (
(604,494,l),
(257,494,l),
(257,714,l),
(64,714,l),
(64,338,l),
(312,338,l),
(134,86,l),
(279,-12,l),
(604,449,l),
(604,449,l)
);
}
);
};
layerId = "A1461942-0433-4891-A171-8512F51D8C86";
shapes = (
{
closed = 1;
nodes = (
(628,459,l),
(628,504,l),
(255,504,l),
(255,714,l),
(64,714,l),
(64,337,l),
(381,337,l),
(381,450,l),
(44,106,l),
(169,-12,l)
);
}
);
width = 657;
}
);
metricRight = "=|ye-canadian";
metricWidth = "ye-canadian";
note = uni152D;
unicode = 5421;
},
{
color = 3;
glyphname = "y-canadian";
lastChange = "2022-05-17 11:55:42 +0000";
layers = (
{
background = {
shapes = (
{
closed = 1;
nodes = (
(314,582,l),
(93,582,l),
(93,714,l),
(69,714,l),
(69,560,l),
(276,560,l),
(92,340,l),
(110,326,l),
(314,570,l),
(314,570,l)
);
}
);
};
layerId = m01;
shapes = (
{
closed = 1;
nodes = (
(307,562,l),
(307,574,l),
(88,574,l),
(88,714,l),
(64,714,l),
(64,552,l),
(286,552,l),
(285,570,l),
(64,365,l),
(79,349,l)
);
}
);
width = 326;
},
{
background = {
shapes = (
{
closed = 1;
nodes = (
(359,589,l),
(147,589,l),
(147,714,l),
(29,714,l),
(29,480,l),
(172,480,l),
(72,340,l),
(160,279,l),
(359,561,l),
(359,561,l)
);
}
);
};
layerId = "A1461942-0433-4891-A171-8512F51D8C86";
shapes = (
{
closed = 1;
nodes = (
(341,577,l),
(341,609,l),
(155,609,l),
(155,714,l),
(39,714,l),
(39,506,l),
(198,506,l),
(198,582,l),
(39,410,l),
(122,341,l)
);
}
);
width = 350;
}
);
note = uni153E;
unicode = 5438;
},
{
color = 3;
glyphname = "biblecreey-canadian";
lastChange = "2022-05-17 11:55:55 +0000";
layers = (
{
background = {
shapes = (
{
closed = 1;
nodes = (
(155,662,l),
(273,342,l),
(278,342,l),
(395,662,l),
(467,342,l),
(487,342,l),
(487,350,l),
(406,714,l),
(391,714,l),
(275,400,l),
(159,714,l),
(144,714,l),
(63,350,l),
(63,342,l),
(83,342,l),
(83,342,l)
);
}
);
};
layerId = m01;
shapes = (
{
closed = 1;
nodes = (
(170,682,l),
(158,682,l),
(271,357,l),
(279,357,l),
(392,682,l),
(380,682,l),
(466,357,l),
(486,357,l),
(486,365,l),
(395,714,l),
(381,714,l),
(269,391,l),
(281,391,l),
(169,714,l),
(155,714,l),
(64,365,l),
(64,357,l),
(84,357,l)
);
}
);
width = 550;
},
{
background = {
shapes = (
{
closed = 1;
nodes = (
(182,525,l),
(270,316,l),
(331,316,l),
(419,525,l),
(458,317,l),
(562,317,l),
(562,350,l),
(489,714,l),
(399,714,l),
(304,486,l),
(202,714,l),
(112,714,l),
(39,350,l),
(39,317,l),
(143,317,l),
(143,317,l)
);
}
);
};
guides = (
{
angle = 245.8209;
pos = (441,592);
}
);
layerId = "A1461942-0433-4891-A171-8512F51D8C86";
shapes = (
{
closed = 1;
nodes = (
(210,587,l),
(158,587,l),
(258,357,l),
(322,357,l),
(422,587,l),
(370,587,l),
(437,358,l),
(541,358,l),
(541,387,l),
(451,714,l),
(368,714,l),
(261,469,l),
(319,469,l),
(212,714,l),
(129,714,l),
(39,387,l),
(39,358,l),
(143,358,l)
);
}
);
width = 580;
}
);
note = uni153F;
unicode = 5439;
},
{
color = 3;
glyphname = "yWestCree-canadian";
lastChange = "2022-05-17 11:56:03 +0000";
layers = (
{
background = {
shapes = (
{
closed = 1;
nodes = (
(226,356,l),
(367,356,l),
(367,378,l),
(226,378,l),
(226,528,l),
(204,528,l),
(204,378,l),
(64,378,l),
(64,356,l),
(204,356,l),
(204,205,l),
(226,205,l),
(226,205,l)
);
}
);
};
layerId = m01;
shapes = (
{
closed = 1;
nodes = (
(255,189,l),
(255,546,l),
(231,546,l),
(231,189,l)
);
},
{
closed = 1;
nodes = (
(420,358,l),
(420,380,l),
(64,380,l),
(64,358,l)
);
}
);
width = 484;
},
{
background = {
shapes = (
{
closed = 1;
nodes = (
(255,315,l),
(365,315,l),
(365,421,l),
(255,421,l),
(255,534,l),
(139,534,l),
(139,421,l),
(29,421,l),
(29,315,l),
(139,315,l),
(139,202,l),
(255,202,l),
(255,202,l)
);
}
);
};
layerId = "A1461942-0433-4891-A171-8512F51D8C86";
shapes = (
{
closed = 1;
nodes = (
(281,189,l),
(281,546,l),
(167,546,l),
(167,189,l)
);
},
{
closed = 1;
nodes = (
(407,317,l),
(407,421,l),
(39,421,l),
(39,317,l)
);
}
);
width = 446;
}
);
note = uni1540;
unicode = 5440;
},
{
color = 3;
glyphname = "yiSayisi-canadian";
lastChange = "2022-05-17 11:56:09 +0000";
layers = (
{
background = {
shapes = (
{
closed = 1;
nodes = (
(102,528,l),
(73,528,l),
(324,206,l),
(354,206,l),
(354,206,l)
);
},
{
closed = 1;
nodes = (
(347,528,l),
(318,528,l),
(66,206,l),
(96,206,l),
(96,206,l)
);
}
);
};
layerId = m01;
shapes = (
{
closed = 1;
nodes = (
(293,189,l),
(293,195,l),
(189,372,l),
(184,381,l),
(87,546,l),
(67,546,l),
(67,539,l),
(168,368,l),
(174,358,l),
(273,189,l)
);
},
{
closed = 1;
nodes = (
(85,189,l),
(183,358,l),
(189,368,l),
(290,539,l),
(290,546,l),
(270,546,l),
(173,381,l),
(168,372,l),
(64,195,l),
(64,189,l)
);
}
);
width = 357;
},
{
background = {
shapes = (
{
closed = 1;
nodes = (
(22,553,l),
(-109,553,l),
(143,206,l),
(274,206,l),
(274,206,l)
);
},
{
closed = 1;
nodes = (
(274,553,l),
(143,553,l),
(-109,206,l),
(22,206,l),
(22,206,l)
);
}
);
};
layerId = "A1461942-0433-4891-A171-8512F51D8C86";
shapes = (
{
closed = 1;
nodes = (
(353,189,l),
(353,211,l),
(243,388,l),
(214,427,l),
(140,546,l),
(40,546,l),
(40,523,l),
(147,354,l),
(172,321,l),
(253,189,l)
);
},
{
closed = 1;
nodes = (
(139,189,l),
(220,331,l),
(244,344,l),
(352,523,l),
(352,546,l),
(252,546,l),
(178,417,l),
(149,398,l),
(39,211,l),
(39,189,l)
);
}
);
width = 392;
}
);
note = uni1541;
unicode = 5441;
},
{
color = 3;
glyphname = "re-canadian";
lastChange = "2022-05-23 10:25:51 +0000";
layers = (
{
anchors = (
{
name = middle_left_can;
pos = (-51,357);
},
{
name = middle_right_can;
pos = (991,357);
},
{
name = top_center_can;
pos = (310,499);
},
{
name = top_left_can;
pos = (92,499);
},
{
name = top_right_can;
pos = (848,499);
}
);
background = {
shapes = (
{
closed = 1;
nodes = (
(2699,-10,o),
(2802,79,o),
(2802,252,cs),
(2802,475,l),
(3048,475,l),
(3048,500,l),
(2776,500,l),
(2776,244,ls),
(2776,92,o),
(2683,15,o),
(2540,15,cs),
(2391,15,o),
(2305,96,o),
(2305,256,cs),
(2305,500,l),
(2279,500,l),
(2279,254,ls),
(2279,82,o),
(2373,-10,o),
(2539,-10,cs)
);
},
{
closed = 1;
nodes = (
(1466,-12,o),
(1561,86,o),
(1561,235,cs),
(1561,456,l),
(1861,456,l),
(1861,481,l),
(1535,481,l),
(1535,235,ls),
(1535,100,o),
(1453,13,o),
(1320,13,cs),
(1187,13,o),
(1105,100,o),
(1105,235,cs),
(1105,481,l),
(1079,481,l),
(1079,235,ls),
(1079,86,o),
(1174,-12,o),
(1320,-12,cs)
);
},
{
closed = 1;
nodes = (
(465,-12,o),
(561,86,o),
(561,235,cs),
(561,344,o),
(506,436,o),
(400,466,c),
(403,456,l),
(820,456,l),
(820,481,l),
(325,481,ls),
(171,481,o),
(79,381,o),
(79,235,cs),
(79,86,o),
(174,-12,o),
(320,-12,cs)
);
},
{
closed = 1;
nodes = (
(187,13,o),
(105,100,o),
(105,235,cs),
(105,370,o),
(187,456,o),
(323,456,cs),
(453,456,o),
(535,371,o),
(535,235,cs),
(535,99,o),
(453,13,o),
(320,13,cs)
);
}
);
};
layerId = m01;
shapes = (
{
closed = 1;
nodes = (
(456,-12,o),
(541,87,o),
(541,248,cs),
(541,456,l),
(861,456,l),
(861,481,l),
(515,481,l),
(515,248,ls),
(515,101,o),
(443,13,o),
(310,13,cs),
(177,13,o),
(105,101,o),
(105,248,cs),
(105,481,l),
(79,481,l),
(79,248,ls),
(79,87,o),
(164,-12,o),
(310,-12,cs)
);
}
);
width = 921;
},
{
anchors = (
{
name = middle_left_can;
pos = (-101,357);
},
{
name = middle_right_can;
pos = (1078,357);
},
{
name = top_center_can;
pos = (349,534);
},
{
name = top_left_can;
pos = (156,534);
},
{
name = top_right_can;
pos = (823,534);
}
);
background = {
shapes = (
{
closed = 1;
nodes = (
(2702,-12,o),
(2829,107,o),
(2829,311,cs),
(2829,361,l),
(3047,361,l),
(3047,517,l),
(2636,517,l),
(2636,293,ls),
(2636,202,o),
(2585,151,o),
(2494,151,cs),
(2405,151,o),
(2352,202,o),
(2352,293,cs),
(2352,517,l),
(2159,517,l),
(2159,311,ls),
(2159,112,o),
(2282,-12,o),
(2495,-12,cs)
);
},
{
closed = 1;
nodes = (
(1528,-15,o),
(1641,94,o),
(1641,246,cs),
(1641,347,l),
(1882,347,l),
(1882,514,l),
(1450,514,l),
(1450,249,ls),
(1450,186,o),
(1412,147,o),
(1350,147,cs),
(1288,147,o),
(1250,186,o),
(1250,249,cs),
(1250,514,l),
(1059,514,l),
(1059,246,ls),
(1059,94,o),
(1172,-15,o),
(1350,-15,cs)
);
},
{
closed = 1;
nodes = (
(528,-15,o),
(641,87,o),
(641,243,cs),
(641,293,o),
(627,349,o),
(598,388,c),
(561,347,l),
(882,347,l),
(882,514,l),
(375,514,ls),
(173,514,o),
(59,399,o),
(59,245,cs),
(59,94,o),
(177,-15,o),
(351,-15,cs)
);
},
{
closed = 1;
nodes = (
(283,147,o),
(248,197,o),
(248,249,cs),
(248,301,o),
(283,352,o),
(351,352,cs),
(419,352,o),
(452,301,o),
(452,249,cs),
(452,197,o),
(419,147,o),
(351,147,cs)
);
}
);
};
layerId = "A1461942-0433-4891-A171-8512F51D8C86";
shapes = (
{
closed = 1;
nodes = (
(525,-15,o),
(634,93,o),
(634,253,cs),
(634,347,l),
(918,347,l),
(918,514,l),
(446,514,l),
(446,271,ls),
(446,191,o),
(411,149,o),
(349,149,cs),
(287,149,o),
(252,191,o),
(252,271,cs),
(252,514,l),
(59,514,l),
(59,253,ls),
(59,93,o),
(170,-15,o),
(348,-15,cs)
);
}
);
width = 958;
}
);
metricRight = "=|ne-canadian";
note = uni1542;
unicode = 5442;
},
{
color = 3;
glyphname = "reRCree-canadian";
lastChange = "2022-05-23 10:26:29 +0000";
layers = (
{
anchors = (
{
name = middle_left_can;
pos = (-70,357);
},
{
name = middle_right_can;
pos = (972,357);
},
{
name = top_center_can;
pos = (611,499);
},
{
name = top_left_can;
pos = (73,499);
},
{
name = top_right_can;
pos = (829,499);
}
);
background = {
shapes = (
{
closed = 1;
nodes = (
(745,-10,o),
(839,81,o),
(839,254,cs),
(839,500,l),
(813,500,l),
(813,256,ls),
(813,96,o),
(727,15,o),
(578,15,cs),
(437,15,o),
(342,92,o),
(342,244,cs),
(342,500,l),
(70,500,l),
(70,475,l),
(316,475,l),
(316,252,ls),
(316,79,o),
(419,-10,o),
(579,-10,cs)
);
}
);
};
layerId = m01;
shapes = (
{
closed = 1;
nodes = (
(759,-12,o),
(842,87,o),
(842,248,cs),
(842,481,l),
(816,481,l),
(816,248,ls),
(816,101,o),
(746,13,o),
(613,13,cs),
(480,13,o),
(406,97,o),
(406,244,cs),
(406,481,l),
(60,481,l),
(60,456,l),
(380,456,l),
(380,244,ls),
(380,83,o),
(467,-12,o),
(613,-12,cs)
);
}
);
width = 921;
},
{
anchors = (
{
name = middle_left_can;
pos = (-120,357);
},
{
name = middle_right_can;
pos = (1059,357);
},
{
name = top_center_can;
pos = (609,534);
},
{
name = top_left_can;
pos = (135,534);
},
{
name = top_right_can;
pos = (803,534);
}
);
background = {
shapes = (
{
closed = 1;
nodes = (
(805,-12,o),
(928,111,o),
(928,311,cs),
(928,517,l),
(735,517,l),
(735,293,ls),
(735,202,o),
(684,151,o),
(593,151,cs),
(502,151,o),
(451,202,o),
(451,293,cs),
(451,517,l),
(40,517,l),
(40,361,l),
(258,361,l),
(258,311,ls),
(258,111,o),
(383,-12,o),
(592,-12,cs)
);
}
);
};
layerId = "A1461942-0433-4891-A171-8512F51D8C86";
shapes = (
{
closed = 1;
nodes = (
(788,-15,o),
(899,93,o),
(899,253,cs),
(899,514,l),
(706,514,l),
(706,271,ls),
(706,191,o),
(671,149,o),
(609,149,cs),
(547,149,o),
(512,188,o),
(512,268,cs),
(512,514,l),
(40,514,l),
(40,347,l),
(324,347,l),
(324,251,ls),
(324,92,o),
(433,-15,o),
(610,-15,cs)
);
}
);
width = 958;
}
);
metricLeft = "ne-canadian";
metricRight = "=|re-canadian";
note = uni1543;
unicode = 5443;
},
{
color = 3;
glyphname = "leWestCree-canadian";
lastChange = "2022-05-23 10:26:43 +0000";
layers = (
{
anchors = (
{
name = middle_left_can;
pos = (-70,357);
},
{
name = middle_right_can;
pos = (972,357);
},
{
name = top_center_can;
pos = (611,499);
},
{
name = top_left_can;
pos = (73,499);
},
{
name = top_right_can;
pos = (829,499);
}
);
background = {
shapes = (
{
closed = 1;
nodes = (
(322,259,ls),
(322,411,o),
(417,488,o),
(558,488,cs),
(707,488,o),
(793,407,o),
(793,247,cs),
(793,0,l),
(819,0,l),
(819,249,ls),
(819,422,o),
(725,513,o),
(559,513,cs),
(399,513,o),
(296,424,o),
(296,251,cs),
(296,25,l),
(50,25,l),
(50,0,l),
(322,0,l),
(322,0,l)
);
}
);
};
layerId = m01;
shapes = (
{
closed = 1;
nodes = (
(406,0,l),
(406,233,ls),
(406,380,o),
(478,468,o),
(611,468,cs),
(744,468,o),
(816,380,o),
(816,233,cs),
(816,0,l),
(842,0,l),
(842,233,ls),
(842,394,o),
(757,493,o),
(611,493,cs),
(465,493,o),
(380,394,o),
(380,233,cs),
(380,25,l),
(60,25,l),
(60,0,l)
);
}
);
width = 921;
},
{
anchors = (
{
name = middle_left_can;
pos = (-120,357);
},
{
name = middle_right_can;
pos = (1059,357);
},
{
name = top_center_can;
pos = (609,534);
},
{
name = top_left_can;
pos = (135,534);
},
{
name = top_right_can;
pos = (803,534);
}
);
background = {
shapes = (
{
closed = 1;
nodes = (
(451,224,ls),
(451,315,o),
(502,366,o),
(593,366,cs),
(684,366,o),
(735,315,o),
(735,224,cs),
(735,0,l),
(928,0,l),
(928,206,ls),
(928,406,o),
(805,529,o),
(592,529,cs),
(383,529,o),
(258,407,o),
(258,206,cs),
(258,156,l),
(40,156,l),
(40,0,l),
(451,0,l),
(451,0,l)
);
}
);
};
layerId = "A1461942-0433-4891-A171-8512F51D8C86";
shapes = (
{
closed = 1;
nodes = (
(512,0,l),
(512,233,ls),
(512,323,o),
(549,365,o),
(612,365,cs),
(673,365,o),
(706,323,o),
(706,243,cs),
(706,0,l),
(899,0,l),
(899,261,ls),
(899,421,o),
(796,529,o),
(614,529,cs),
(441,529,o),
(324,421,o),
(324,251,cs),
(324,167,l),
(40,167,l),
(40,0,l)
);
}
);
width = 958;
}
);
metricLeft = "ne-canadian";
metricRight = "=|re-canadian";
note = uni1544;
unicode = 5444;
},
{
color = 3;
glyphname = "ri-canadian";
lastChange = "2022-05-23 10:26:50 +0000";
layers = (
{
anchors = (
{
name = middle_left_can;
pos = (-51,357);
},
{
name = middle_right_can;
pos = (991,357);
},
{
name = top_center_can;
pos = (310,499);
},
{
name = top_left_can;
pos = (92,499);
},
{
name = top_right_can;
pos = (848,499);
}
);
background = {
shapes = (
{
closed = 1;
nodes = (
(115,247,ls),
(115,407,o),
(201,488,o),
(350,488,cs),
(493,488,o),
(586,411,o),
(586,259,cs),
(586,0,l),
(858,0,l),
(858,25,l),
(612,25,l),
(612,251,ls),
(612,424,o),
(509,513,o),
(349,513,cs),
(183,513,o),
(89,422,o),
(89,249,cs),
(89,0,l),
(115,0,l),
(115,0,l)
);
}
);
};
layerId = m01;
shapes = (
{
closed = 1;
nodes = (
(105,0,l),
(105,233,ls),
(105,380,o),
(175,468,o),
(308,468,cs),
(441,468,o),
(515,384,o),
(515,237,cs),
(515,0,l),
(861,0,l),
(861,25,l),
(541,25,l),
(541,237,ls),
(541,398,o),
(454,493,o),
(308,493,cs),
(162,493,o),
(79,394,o),
(79,233,cs),
(79,0,l)
);
}
);
width = 921;
},
{
anchors = (
{
name = middle_left_can;
pos = (-101,357);
},
{
name = middle_right_can;
pos = (1078,357);
},
{
name = top_center_can;
pos = (349,534);
},
{
name = top_left_can;
pos = (156,534);
},
{
name = top_right_can;
pos = (823,534);
}
);
background = {
shapes = (
{
closed = 1;
nodes = (
(262,224,ls),
(262,315,o),
(315,366,o),
(404,366,cs),
(495,366,o),
(546,315,o),
(546,224,cs),
(546,0,l),
(957,0,l),
(957,156,l),
(739,156,l),
(739,206,ls),
(739,413,o),
(609,529,o),
(406,529,cs),
(192,529,o),
(69,406,o),
(69,206,cs),
(69,0,l),
(262,0,l),
(262,0,l)
);
}
);
};
layerId = "A1461942-0433-4891-A171-8512F51D8C86";
shapes = (
{
closed = 1;
nodes = (
(252,0,l),
(252,243,ls),
(252,323,o),
(287,365,o),
(349,365,cs),
(411,365,o),
(446,326,o),
(446,246,cs),
(446,0,l),
(918,0,l),
(918,167,l),
(634,167,l),
(634,264,ls),
(634,423,o),
(532,529,o),
(351,529,cs),
(176,529,o),
(59,421,o),
(59,256,cs),
(59,0,l)
);
}
);
width = 958;
}
);
metricLeft = "re-canadian";
metricRight = "=|ne-canadian";
note = uni1546;
unicode = 5446;
},
{
color = 1;
glyphname = "ro-canadian";
lastChange = "2022-05-23 10:34:51 +0000";
layers = (
{
anchors = (
{
name = middle_left_can;
pos = (-45,357);
},
{
name = middle_right_can;
pos = (589,357);
},
{
name = top_center_can;
pos = (236,714);
}
);
background = {
shapes = (
{
closed = 1;
nodes = (
(711,233,l),
(839,233,ls),
(995,233,o),
(1089,331,o),
(1089,473,cs),
(1089,617,o),
(1001,714,o),
(836,714,cs),
(685,714,l),
(685,689,l),
(839,689,ls),
(985,689,o),
(1063,605,o),
(1063,473,cs),
(1063,343,o),
(982,258,o),
(840,258,cs),
(685,258,l),
(685,0,l),
(711,0,l)
);
},
{
closed = 1;
nodes = (
(111,280,l),
(239,280,ls),
(395,280,o),
(489,368,o),
(489,497,cs),
(489,626,o),
(401,714,o),
(236,714,cs),
(85,714,l),
(85,689,l),
(239,689,ls),
(385,689,o),
(463,614,o),
(463,497,cs),
(463,381,o),
(382,305,o),
(240,305,cs),
(85,305,l),
(85,0,l),
(111,0,l)
);
}
);
};
layerId = m01;
shapes = (
{
closed = 1;
nodes = (
(111,0,l),
(111,280,l),
(239,280,ls),
(395,280,o),
(489,368,o),
(489,497,cs),
(489,626,o),
(401,714,o),
(236,714,cs),
(85,714,l),
(85,689,l),
(239,689,ls),
(385,689,o),
(463,614,o),
(463,497,cs),
(463,381,o),
(382,305,o),
(240,305,cs),
(85,305,l),
(85,0,l)
);
}
);
width = 560;
},
{
anchors = (
{
name = middle_left_can;
pos = (-96,357);
},
{
name = middle_right_can;
pos = (738,357);
},
{
name = top_center_can;
pos = (278,714);
}
);
background = {
shapes = (
{
closed = 1;
nodes = (
(255,200,l),
(297,200,ls),
(469,200,o),
(588,297,o),
(588,454,cs),
(588,617,o),
(481,714,o),
(278,714,cs),
(64,714,l),
(64,547,l),
(287,547,ls),
(353,547,o),
(397,515,o),
(397,457,cs),
(397,399,o),
(353,367,o),
(287,367,cs),
(64,367,l),
(64,1,l),
(255,1,l)
);
}
);
};
layerId = "A1461942-0433-4891-A171-8512F51D8C86";
shapes = (
{
closed = 1;
nodes = (
(255,1,l),
(255,210,l),
(307,210,ls),
(477,210,o),
(588,308,o),
(588,459,cs),
(588,622,o),
(477,714,o),
(278,714,cs),
(64,714,l),
(64,547,l),
(293,547,ls),
(356,547,o),
(397,517,o),
(397,462,cs),
(397,407,o),
(356,377,o),
(293,377,cs),
(64,377,l),
(64,1,l)
);
}
);
width = 637;
}
);
metricLeft = "nunavuth-canadian";
note = uni1548;
unicode = 5448;
},
{
color = 1;
glyphname = "loWestCree-canadian";
lastChange = "2022-05-23 10:34:48 +0000";
layers = (
{
anchors = (
{
name = middle_left_can;
pos = (-45,357);
},
{
name = middle_right_can;
pos = (589,357);
},
{
name = top_center_can;
pos = (278,714);
},
{
name = top_left_can;
pos = (98,714);
}
);
background = {
shapes = (
{
closed = 1;
nodes = (
(246,0,ls),
(411,0,o),
(499,97,o),
(499,241,cs),
(499,383,o),
(405,481,o),
(249,481,cs),
(121,481,l),
(121,714,l),
(95,714,l),
(95,456,l),
(250,456,ls),
(392,456,o),
(473,371,o),
(473,241,cs),
(473,109,o),
(395,25,o),
(249,25,cs),
(95,25,l),
(95,0,l)
);
}
);
};
layerId = m01;
shapes = (
{
closed = 1;
nodes = (
(236,0,ls),
(401,0,o),
(489,88,o),
(489,217,cs),
(489,346,o),
(395,434,o),
(239,434,cs),
(111,434,l),
(111,714,l),
(85,714,l),
(85,409,l),
(240,409,ls),
(382,409,o),
(463,333,o),
(463,217,cs),
(463,100,o),
(385,25,o),
(239,25,cs),
(85,25,l),
(85,0,l)
);
}
);
width = 560;
},
{
anchors = (
{
name = middle_left_can;
pos = (-96,357);
},
{
name = middle_right_can;
pos = (738,357);
},
{
name = top_center_can;
pos = (278,714);
},
{
name = top_left_can;
pos = (160,714);
}
);
background = {
shapes = (
{
closed = 1;
nodes = (
(278,1,ls),
(481,1,o),
(588,98,o),
(588,261,cs),
(588,418,o),
(469,515,o),
(297,515,cs),
(255,515,l),
(255,714,l),
(64,714,l),
(64,348,l),
(287,348,ls),
(353,348,o),
(397,316,o),
(397,258,cs),
(397,200,o),
(353,168,o),
(287,168,cs),
(64,168,l),
(64,1,l)
);
}
);
};
layerId = "A1461942-0433-4891-A171-8512F51D8C86";
shapes = (
{
closed = 1;
nodes = (
(278,1,ls),
(477,1,o),
(588,93,o),
(588,256,cs),
(588,407,o),
(477,505,o),
(307,505,cs),
(255,505,l),
(255,714,l),
(64,714,l),
(64,338,l),
(293,338,ls),
(356,338,o),
(397,308,o),
(397,253,cs),
(397,198,o),
(356,168,o),
(293,168,cs),
(64,168,l),
(64,1,l)
);
}
);
width = 637;
}
);
metricLeft = "nunavuth-canadian";
metricRight = "ro-canadian";
note = uni154A;
unicode = 5450;
},
